<svg xmlns="http://www.w3.org/2000/svg" viewBox="0 0 711.28 262.65"><defs><style>.cls-1{fill:#85c0c6;}.cls-2,.cls-3{fill:#1e4057;}.cls-3{fill-rule:evenodd;}.cls-4{fill:#c19144;}</style></defs><title>Asset 4</title><g id="Layer_2" data-name="Layer 2"><g id="Layer_1-2" data-name="Layer 1"><g id="LOGO_PATH_2" data-name="LOGO PATH 2"><path class="cls-1" d="M37,156.62a19.4,19.4,0,0,0-24.7,7.92,19.41,19.41,0,0,0,7.06,26.53,19.14,19.14,0,0,0,9.79,2.59A19.73,19.73,0,0,0,36.94,192a22.47,22.47,0,0,0,6.77-4.43l4.18,4.54A28.09,28.09,0,0,1,39,198a26.46,26.46,0,0,1-23.4-1.3A25.44,25.44,0,0,1,2.74,174.36a24.8,24.8,0,0,1,3.49-12.92,25.24,25.24,0,0,1,9.54-9.25,26.82,26.82,0,0,1,13.32-3.38,27.12,27.12,0,0,1,10.19,2,25.22,25.22,0,0,1,8.53,5.58l-4.1,5A20.82,20.82,0,0,0,37,156.62Z"/><path class="cls-1" d="M116.28,199.64,111,187.4H84.38l-5.26,12.24H71.86l22.39-50.4h7.2l22.32,50.4Zm-29.16-18.5h21.17L97.63,156.65Z"/><path class="cls-1" d="M174.35,156.4a24.7,24.7,0,0,0-6.95-1.12,12.83,12.83,0,0,0-7,1.69,5.26,5.26,0,0,0-2.63,4.64,6.11,6.11,0,0,0,1.58,4.36,11.2,11.2,0,0,0,3.89,2.66q2.3,1,6.41,2.27a72.6,72.6,0,0,1,8.28,3,14.36,14.36,0,0,1,5.4,4.28,11.85,11.85,0,0,1,2.23,7.52,12.58,12.58,0,0,1-2.34,7.56,15,15,0,0,1-6.55,5,24.88,24.88,0,0,1-9.68,1.76,28.15,28.15,0,0,1-10.8-2.16,29.26,29.26,0,0,1-9.07-5.76l3.1-6a26,26,0,0,0,8.1,5.44,22.32,22.32,0,0,0,8.75,1.91,14,14,0,0,0,8-2,6.17,6.17,0,0,0,2.92-5.36,6.26,6.26,0,0,0-1.58-4.39,11.18,11.18,0,0,0-4-2.74,68.25,68.25,0,0,0-6.52-2.23,66.42,66.42,0,0,1-8.21-3,14.16,14.16,0,0,1-5.36-4.25,11.7,11.7,0,0,1-2.2-7.42,11.87,11.87,0,0,1,2.23-7.13,14.09,14.09,0,0,1,6.26-4.75,24.5,24.5,0,0,1,9.36-1.66A30.26,30.26,0,0,1,176.8,150a29.86,29.86,0,0,1,7.74,3.56l-2.88,6.19A29,29,0,0,0,174.35,156.4Z"/><path class="cls-1" d="M248,156.62a19.41,19.41,0,0,0-24.7,7.92,19.37,19.37,0,0,0,16.85,29.12A19.73,19.73,0,0,0,247.9,192a22.47,22.47,0,0,0,6.77-4.43l4.18,4.54A28.11,28.11,0,0,1,250,198a26.46,26.46,0,0,1-23.4-1.3,25.44,25.44,0,0,1-12.89-22.36,24.8,24.8,0,0,1,3.49-12.92,25.25,25.25,0,0,1,9.54-9.25A26.82,26.82,0,0,1,240,148.8a27.13,27.13,0,0,1,10.19,2,25.21,25.21,0,0,1,8.53,5.58l-4.1,5A20.83,20.83,0,0,0,248,156.62Z"/><path class="cls-1" d="M327.24,199.64l-5.33-12.24H295.34l-5.26,12.24h-7.27l22.39-50.4h7.2l22.32,50.4Zm-29.16-18.5h21.17l-10.66-24.48Z"/><path class="cls-1" d="M397.47,152.51a24.12,24.12,0,0,1,9.32,9,26.11,26.11,0,0,1,0,25.78,24.29,24.29,0,0,1-9.4,9A27.4,27.4,0,0,1,384,199.64h-20.3v-50.4h20.52A27,27,0,0,1,397.47,152.51Zm-3.6,38.41a18,18,0,0,0,6.77-6.77,20,20,0,0,0,0-19.37,18.34,18.34,0,0,0-6.88-6.8A19.2,19.2,0,0,0,384,155.5H370.58v37.87h13.75A18.89,18.89,0,0,0,393.87,190.92Z"/><path class="cls-1" d="M441.65,149.24h6.91v50.4h-6.91Z"/><path class="cls-1" d="M522,199.64l-5.33-12.24H490.1l-5.26,12.24h-7.27L500,149.24h7.2l22.32,50.4Zm-29.16-18.5H514l-10.66-24.48Z"/><path class="cls-2" d="M600.48,153.81q5.33,4.64,5.33,13.07,0,8.93-5.33,13.86t-15,4.93h-9v14H563.33V149.16H585.5Q595.15,149.16,600.48,153.81Zm-9.4,19.33a7.52,7.52,0,0,0,2.2-5.83,7.22,7.22,0,0,0-2.2-5.65,9,9,0,0,0-6.23-2H576.5v15.48h8.35A8.88,8.88,0,0,0,591.08,173.14Z"/><path class="cls-2" d="M612.28,149.16h13.18v20.59h20.38V149.16H659v50.47H645.84V180.27H625.46v19.37H612.28Z"/><path class="cls-2" d="M706,153.81q5.33,4.64,5.33,13.07,0,8.93-5.33,13.86t-15,4.93h-9v14H668.8V149.16H691Q700.63,149.16,706,153.81Zm-9.4,19.33a7.52,7.52,0,0,0,2.2-5.83,7.22,7.22,0,0,0-2.2-5.65,9,9,0,0,0-6.23-2H682v15.48h8.35A8.88,8.88,0,0,0,696.56,173.14Z"/><path id="waves_1" data-name="waves 1" class="cls-3" d="M275.18,262.65a40.64,40.64,0,0,1-24.8-8.58,33.48,33.48,0,0,1-7.3-7.65,31.75,31.75,0,0,1-6.59,7.53A36.43,36.43,0,0,1,213,262.55c-13.12,0-25.2-7.47-30.91-15.88-4.7,8.25-14.94,15.88-29.07,15.88-14.36,0-25-7.62-30.06-15.77-5,8.16-15.63,15.77-29.93,15.77a36.43,36.43,0,0,1-23.65-8.6,31.21,31.21,0,0,1-6.21-7.09c-5.24,8.48-16.58,15.69-30.11,15.69C12.65,262.55,0,249.24,0,236.91H6.32c0,9.33,10.75,19.32,26.76,19.32,16.17,0,26.9-11.63,26.9-19.32h6.32c0,6.81,10.16,19.32,26.75,19.32,15.52,0,26.76-11.54,26.76-19.32h6.32c0,6.81,10.21,19.32,26.9,19.32s25.62-12.58,25.62-19.32H185c0,6.61,11.84,19.32,28,19.32s26.76-12.68,26.76-19.32h6.32c0,6.65,12.28,19.42,29.08,19.42,15.39,0,24.58-7.26,24.58-19.42h6.32c0,15.88-11.84,25.74-30.9,25.74"/><path id="bridge" class="cls-4" d="M692.59,109.58h-2a12,12,0,0,1-11.92-12V92.25a2.23,2.23,0,0,0-1.58-2.18,2.18,2.18,0,0,0-2.76,2.11v5.39a11.92,11.92,0,1,1-23.83,0V82.25a2.23,2.23,0,0,0-1.58-2.18,2.18,2.18,0,0,0-2.76,2.11V97.58a11.92,11.92,0,1,1-23.83,0V62.17A2.17,2.17,0,0,0,620.17,60h0A2.17,2.17,0,0,0,618,62.17V97.58a11.92,11.92,0,1,1-23.83,0V42.25a2.23,2.23,0,0,0-1.58-2.18,2.18,2.18,0,0,0-2.76,2.11V97.58a11.92,11.92,0,1,1-23.83,0V22.25a2.23,2.23,0,0,0-1.58-2.18,2.18,2.18,0,0,0-2.76,2.11V97.58a12,12,0,0,1-1.65,6.1,11.17,11.17,0,0,1-19,0,11.92,11.92,0,0,1-1.68-6.13V2.26A2.24,2.24,0,0,0,537.7.08a2.19,2.19,0,0,0-2.78,2.11V97.58a12,12,0,0,1-12,12H467.57a2.24,2.24,0,0,0-2.18,1.59,2.19,2.19,0,0,0,2.11,2.78h55.43a12,12,0,0,1,12,12v25.38a2.24,2.24,0,0,0,1.59,2.18,2.19,2.19,0,0,0,2.78-2.11V125.95a12,12,0,0,1,12-12H692.72a2.19,2.19,0,0,0,2.17-2.41A2.27,2.27,0,0,0,692.59,109.58Z"/></g></g></g></svg>