<?xml version="1.0" encoding="UTF-8"?>
<svg width="298px" height="228px" viewBox="0 0 298 228" version="1.1" xmlns="http://www.w3.org/2000/svg" xmlns:xlink="http://www.w3.org/1999/xlink">
    <!-- Generator: Sketch 43.2 (39069) - http://www.bohemiancoding.com/sketch -->
    <title>badge 2</title>
    <desc>Created with Sketch.</desc>
    <defs></defs>
    <g id="Page-1" stroke="none" stroke-width="1" fill="none" fill-rule="evenodd">
        <g id="badge-2" transform="translate(3.000000, 4.000000)">
            <g id="Group" transform="translate(0.000000, 4.000000)">
                <path d="M58.212,181.014 C59.9160085,182.466007 60.768,184.523987 60.768,187.188 C60.768,189.948014 59.9160085,192.083992 58.212,193.596 C56.5079915,195.108008 54.0960156,195.864 50.976,195.864 L44.172,195.864 L44.172,204 L41.688,204 L41.688,178.836 L50.976,178.836 C54.0960156,178.836 56.5079915,179.561993 58.212,181.014 Z M56.43,191.994 C57.7380065,190.901995 58.392,189.32401 58.392,187.26 C58.392,185.24399 57.7440065,183.708005 56.448,182.652 C55.1519935,181.595995 53.2920121,181.068 50.868,181.068 L44.172,181.068 L44.172,193.632 L50.868,193.632 C53.268012,193.632 55.1219935,193.086005 56.43,191.994 Z M85.736,178.836 L88.22,178.836 L88.22,190.356 L103.952,190.356 L103.952,178.836 L106.436,178.836 L106.436,204 L103.952,204 L103.952,192.588 L88.22,192.588 L88.22,204 L85.736,204 L85.736,178.836 Z M158.428,173.448 C160.796012,175.51201 161.98,178.415981 161.98,182.16 C161.98,186.12802 160.796012,189.207989 158.428,191.4 C156.059988,193.592011 152.732021,194.688 148.444,194.688 L142.444,194.688 L142.444,204 L133.66,204 L133.66,170.352 L148.444,170.352 C152.732021,170.352 156.059988,171.38399 158.428,173.448 Z M152.164,186.336 C153.140005,185.439996 153.628,184.144008 153.628,182.448 C153.628,180.815992 153.140005,179.560004 152.164,178.68 C151.187995,177.799996 149.804009,177.36 148.012,177.36 L142.444,177.36 L142.444,187.68 L148.012,187.68 C149.804009,187.68 151.187995,187.232004 152.164,186.336 Z M203.682,180.492 C205.66201,181.596006 207.221994,183.11399 208.362,185.046 C209.502006,186.97801 210.072,189.107988 210.072,191.436 C210.072,193.764012 209.502006,195.88799 208.362,197.808 C207.221994,199.72801 205.65601,201.239994 203.664,202.344 C201.67199,203.448006 199.464012,204 197.04,204 L186.996,204 L186.996,178.836 L197.112,178.836 C199.512012,178.836 201.70199,179.387994 203.682,180.492 Z M202.404,200.4 C203.988008,199.487995 205.241995,198.246008 206.166,196.674 C207.090005,195.101992 207.552,193.35601 207.552,191.436 C207.552,189.51599 207.084005,187.764008 206.148,186.18 C205.211995,184.595992 203.946008,183.348005 202.35,182.436 C200.753992,181.523995 198.99601,181.068 197.076,181.068 L189.48,181.068 L189.48,201.768 L197.184,201.768 C199.080009,201.768 200.819992,201.312005 202.404,200.4 Z M233.096,178.836 L236.012,178.836 L243.248,188.988 L250.484,178.836 L253.4,178.836 L244.796,190.932 L254.12,204 L251.132,204 L243.248,192.984 L235.364,204 L232.448,204 L241.736,191.004 L233.096,178.836 Z" id="PHPDX" fill="#000000"></path>
                <polyline id="tag-mountain" stroke="#000000" stroke-width="9" points="101 142.737487 146.242212 88 191.020511 143.067384"></polyline>
                <path d="M287,193.949731 L287,7.99442041 C287,3.57844088 283.420776,0 279.00558,0 L13.9944204,0 C9.57844088,0 6,3.57922394 6,7.99442041 L6,193.949731 L146.5,31 L287,193.949731 Z" id="Combined-Shape" fill="#000000"></path>
                <polyline id="bg-mountain" stroke="#FFFFFF" stroke-width="6" points="0 151.59661 104.350581 35 138.732422 73.8114529"></polyline>
            </g>
            <rect id="border" stroke="#000000" stroke-width="4" x="0" y="-2" width="293" height="224" rx="8"></rect>
            <g id="cut-lines" transform="translate(142.000000, 163.000000)" stroke="#FFFFFF" stroke-width="3" stroke-linecap="square">
                <path d="M1.5,0.5 L1.5,46.6735855" id="Line"></path>
            </g>
        </g>
    </g>
</svg>