<svg xmlns="http://www.w3.org/2000/svg" viewBox="0 0 707.97 262.65"><defs><style>.cls-1{fill:#6fa0a8;}.cls-2,.cls-3{fill:#1e4057;}.cls-3{fill-rule:evenodd;}.cls-4{fill:#c19144;}</style></defs><title>Asset 5</title><g id="Layer_2" data-name="Layer 2"><g id="Layer_1-2" data-name="Layer 1"><g id="LOGO_PATH_3" data-name="LOGO PATH 3"><path class="cls-1" d="M37.51,154.92a21.5,21.5,0,0,0-18.9,1.15,20.9,20.9,0,0,0-7.7,7.67,21.18,21.18,0,0,0,0,21.2,21.26,21.26,0,0,0,7.7,7.67,20.78,20.78,0,0,0,10.69,2.84,21.3,21.3,0,0,0,8.14-1.62,23.13,23.13,0,0,0,7.06-4.5l3,3.24A29,29,0,0,1,39,198.05a25.35,25.35,0,0,1-9.86,2A26,26,0,0,1,6.52,187.25,24.85,24.85,0,0,1,3,174.36a24.29,24.29,0,0,1,3.53-12.82,26.35,26.35,0,0,1,22.68-12.67,26.83,26.83,0,0,1,18.22,7.2l-3,3.46A22.14,22.14,0,0,0,37.51,154.92Z"/><path class="cls-1" d="M117.36,199.64l-6-13.39H83.45l-5.9,13.39H72.22L94.9,149.31h5.18l22.68,50.33Zm-32-17.86h24l-12.1-27.22Z"/><path class="cls-1" d="M173.23,154.53a25.35,25.35,0,0,0-6.91-1,15,15,0,0,0-8.32,2.05,6.36,6.36,0,0,0-3.13,5.58,7.3,7.3,0,0,0,1.73,5,12.21,12.21,0,0,0,4.25,3.06,66.76,66.76,0,0,0,6.91,2.48,59.62,59.62,0,0,1,8.24,3,14.6,14.6,0,0,1,5.33,4.28,13,13,0,0,1-.07,14.54,14.52,14.52,0,0,1-6.37,4.79,24.57,24.57,0,0,1-9.43,1.69,26.4,26.4,0,0,1-10.26-2.09,27.62,27.62,0,0,1-8.6-5.54l2.3-4.1a24.82,24.82,0,0,0,7.85,5.18,22.6,22.6,0,0,0,8.78,1.87q5.76,0,9.14-2.34a7.29,7.29,0,0,0,3.38-6.3,7.68,7.68,0,0,0-1.73-5.18,11.46,11.46,0,0,0-4.25-3.1q-2.52-1.08-7.06-2.52a72.22,72.22,0,0,1-8.21-3,13.83,13.83,0,0,1-5.26-4.18,11.43,11.43,0,0,1-2.16-7.24,10.85,10.85,0,0,1,2.16-6.7,13.66,13.66,0,0,1,6-4.43,24.23,24.23,0,0,1,9-1.55,30.34,30.34,0,0,1,15.55,4.46L180,157.52A26.06,26.06,0,0,0,173.23,154.53Z"/><path class="cls-1" d="M247,154.92a21.2,21.2,0,0,0-26.6,8.82,21.19,21.19,0,0,0,0,21.2,21.25,21.25,0,0,0,7.7,7.67,20.78,20.78,0,0,0,10.69,2.84,21.31,21.31,0,0,0,8.14-1.62,23.13,23.13,0,0,0,7.06-4.5l3,3.24a29,29,0,0,1-8.57,5.47,25.35,25.35,0,0,1-9.86,2A26,26,0,0,1,216,187.25a24.86,24.86,0,0,1-3.49-12.89,24.29,24.29,0,0,1,3.53-12.82,26.35,26.35,0,0,1,22.68-12.67,26.83,26.83,0,0,1,18.22,7.2l-3,3.46A22.13,22.13,0,0,0,247,154.92Z"/><path class="cls-1" d="M326.88,199.64l-6-13.39H293l-5.9,13.39h-5.33l22.68-50.33h5.18l22.68,50.33Zm-32-17.86h24l-12.1-27.22Z"/><path class="cls-1" d="M395.53,152.62a25,25,0,0,1,0,43.7,26.87,26.87,0,0,1-13.25,3.31H362.16V149.31h20.23A26.53,26.53,0,0,1,395.53,152.62ZM393,192.44a20.71,20.71,0,0,0-.11-35.93,20.89,20.89,0,0,0-10.55-2.74H367.13v41.4h15.41A20.55,20.55,0,0,0,393,192.44Z"/><path class="cls-1" d="M440.85,149.31h5v50.33h-5Z"/><path class="cls-1" d="M520.84,199.64l-6-13.39H486.93L481,199.64H475.7l22.68-50.33h5.18l22.68,50.33Zm-32-17.86h24l-12.1-27.22Z"/><path class="cls-2" d="M597.24,153.81q5.25,4.57,5.26,12.92,0,8.79-5.29,13.64t-14.87,4.86h-10v14.4H560.95v-50.4h21.38Q592,149.24,597.24,153.81Zm-8.1,19.73a8,8,0,0,0,2.56-6.44,7.73,7.73,0,0,0-2.56-6.3q-2.56-2.12-7.38-2.12h-9.43v17.06h9.43Q586.58,175.73,589.14,173.54Z"/><path class="cls-2" d="M609.76,149.24h11.38v21H644v-21h11.38v50.4H644V179.76H621.14v19.87H609.76Z"/><path class="cls-2" d="M702.71,153.81q5.25,4.57,5.26,12.92,0,8.79-5.29,13.64t-14.87,4.86h-10v14.4H666.43v-50.4h21.38Q697.46,149.24,702.71,153.81Zm-8.1,19.73a8,8,0,0,0,2.56-6.44,7.73,7.73,0,0,0-2.56-6.3q-2.56-2.12-7.38-2.12H677.8v17.06h9.43Q692.06,175.73,694.62,173.54Z"/><path id="waves_1" data-name="waves 1" class="cls-3" d="M275.18,262.65a40.64,40.64,0,0,1-24.8-8.58,33.48,33.48,0,0,1-7.3-7.65,31.75,31.75,0,0,1-6.59,7.53A36.43,36.43,0,0,1,213,262.55c-13.12,0-25.2-7.47-30.91-15.88-4.7,8.25-14.94,15.88-29.07,15.88-14.36,0-25-7.62-30.06-15.77-5,8.16-15.63,15.77-29.93,15.77a36.43,36.43,0,0,1-23.65-8.6,31.21,31.21,0,0,1-6.21-7.09c-5.24,8.48-16.58,15.69-30.11,15.69C12.65,262.55,0,249.24,0,236.91H6.32c0,9.33,10.75,19.32,26.76,19.32,16.17,0,26.9-11.63,26.9-19.32h6.32c0,6.81,10.16,19.32,26.75,19.32,15.52,0,26.76-11.54,26.76-19.32h6.32c0,6.81,10.21,19.32,26.9,19.32s25.62-12.58,25.62-19.32H185c0,6.61,11.84,19.32,28,19.32s26.76-12.68,26.76-19.32h6.32c0,6.65,12.28,19.42,29.08,19.42,15.39,0,24.58-7.26,24.58-19.42h6.32c0,15.88-11.84,25.74-30.9,25.74"/><path id="bridge" class="cls-4" d="M692.59,109.58h-2a12,12,0,0,1-11.92-12V92.25a2.23,2.23,0,0,0-1.58-2.18,2.18,2.18,0,0,0-2.76,2.11v5.39a11.92,11.92,0,1,1-23.83,0V82.25a2.23,2.23,0,0,0-1.58-2.18,2.18,2.18,0,0,0-2.76,2.11V97.58a11.92,11.92,0,1,1-23.83,0V62.17A2.17,2.17,0,0,0,620.17,60h0A2.17,2.17,0,0,0,618,62.17V97.58a11.92,11.92,0,1,1-23.83,0V42.25a2.23,2.23,0,0,0-1.58-2.18,2.18,2.18,0,0,0-2.76,2.11V97.58a11.92,11.92,0,1,1-23.83,0V22.25a2.23,2.23,0,0,0-1.58-2.18,2.18,2.18,0,0,0-2.76,2.11V97.58a12,12,0,0,1-1.65,6.1,11.17,11.17,0,0,1-19,0,11.92,11.92,0,0,1-1.68-6.13V2.26A2.24,2.24,0,0,0,537.7.08a2.19,2.19,0,0,0-2.78,2.11V97.58a12,12,0,0,1-12,12H467.57a2.24,2.24,0,0,0-2.18,1.59,2.19,2.19,0,0,0,2.11,2.78h55.43a12,12,0,0,1,12,12v25.38a2.24,2.24,0,0,0,1.59,2.18,2.19,2.19,0,0,0,2.78-2.11V125.95a12,12,0,0,1,12-12H692.72a2.19,2.19,0,0,0,2.17-2.41A2.27,2.27,0,0,0,692.59,109.58Z"/></g></g></g></svg>