<svg xmlns="http://www.w3.org/2000/svg" viewBox="0 0 704.73 262.65"><defs><style>.cls-1{fill:#fff;}.cls-2{fill:#6fa0a8;fill-rule:evenodd;}.cls-3{fill:#c19144;}</style></defs><title>Asset 6</title><g id="Layer_2" data-name="Layer 2"><g id="Layer_1-2" data-name="Layer 1"><g id="LOGO_PATH_1" data-name="LOGO PATH 1"><path class="cls-1" d="M37.94,153.48a23.34,23.34,0,0,0-20.12,1.37,22.74,22.74,0,0,0-8.39,8.21,22.18,22.18,0,0,0,0,22.61,23,23,0,0,0,8.39,8.24,23.32,23.32,0,0,0,20.09,1.44,23.86,23.86,0,0,0,7.31-4.57l1.87,2.09a26,26,0,0,1-8.17,5.18,25.46,25.46,0,0,1-9.61,1.87A26,26,0,0,1,6.8,187.22a25.13,25.13,0,0,1,0-25.56,26,26,0,0,1,22.5-12.71,25.83,25.83,0,0,1,9.54,1.8,26.81,26.81,0,0,1,8.17,5l-1.8,2.3A23.44,23.44,0,0,0,37.94,153.48Z"/><path class="cls-1" d="M118.51,199.64,112,185.31H82.51L76,199.64H72.72l22.82-50.33h3.24l23,50.33Zm-34.7-17.35h26.78L97.13,152.76Z"/><path class="cls-1" d="M172.15,153a26.91,26.91,0,0,0-6.91-.94q-6,0-9.58,2.38a7.27,7.27,0,0,0-3.6,6.34,8.37,8.37,0,0,0,1.84,5.62,12.44,12.44,0,0,0,4.54,3.35,72.61,72.61,0,0,0,7.31,2.63,65.68,65.68,0,0,1,8.28,3,13.9,13.9,0,0,1,5.33,4.25,11.59,11.59,0,0,1,2.16,7.27,11.43,11.43,0,0,1-2.16,6.88,13.74,13.74,0,0,1-6.12,4.61,24.22,24.22,0,0,1-9.22,1.62,25.19,25.19,0,0,1-9.79-2,24.92,24.92,0,0,1-8.14-5.33l1.58-2.66a21,21,0,0,0,7.49,5.08,23.32,23.32,0,0,0,8.93,1.84q6.55,0,10.37-2.7a9.12,9.12,0,0,0,1.94-13,12.82,12.82,0,0,0-4.64-3.42,64.18,64.18,0,0,0-7.38-2.59,68.4,68.4,0,0,1-8.24-3,13.73,13.73,0,0,1-5.18-4.14,11.29,11.29,0,0,1-2.12-7.13,10.27,10.27,0,0,1,2.05-6.34,13,13,0,0,1,5.83-4.21,23.75,23.75,0,0,1,8.68-1.48,27.47,27.47,0,0,1,7.67,1.12,25.11,25.11,0,0,1,6.73,3l-1.37,2.74A21.24,21.24,0,0,0,172.15,153Z"/><path class="cls-1" d="M246,153.48a23.16,23.16,0,0,0-28.51,9.58,22.19,22.19,0,0,0,0,22.61,23,23,0,0,0,8.39,8.24A23.32,23.32,0,0,0,246,195.35a23.87,23.87,0,0,0,7.31-4.57l1.87,2.09a26,26,0,0,1-8.17,5.18,25.46,25.46,0,0,1-9.61,1.87,26,26,0,0,1-22.5-12.71,25.13,25.13,0,0,1,0-25.56,26.25,26.25,0,0,1,32-10.91,26.79,26.79,0,0,1,8.17,5l-1.8,2.3A23.44,23.44,0,0,0,246,153.48Z"/><path class="cls-1" d="M326.59,199.64,320,185.31H290.59l-6.48,14.33H280.8l22.82-50.33h3.24l23,50.33Zm-34.7-17.35h26.78l-13.46-29.52Z"/><path class="cls-1" d="M393.73,152.66a25.09,25.09,0,0,1,9.4,9.14,25,25,0,0,1,0,25.34,25,25,0,0,1-9.43,9.14,26.23,26.23,0,0,1-13,3.35H360.72V149.31h20A26,26,0,0,1,393.73,152.66Zm-1.58,41a22.62,22.62,0,0,0,8.28-8.06,21.88,21.88,0,0,0,0-22.32,22.88,22.88,0,0,0-19.76-11.05H363.74v44.42h17A22.58,22.58,0,0,0,392.15,193.7Z"/><path class="cls-1" d="M440.13,149.31h3v50.33h-3Z"/><path class="cls-1" d="M519.77,199.64l-6.55-14.33H483.77l-6.48,14.33H474l22.82-50.33H500l23,50.33Zm-34.7-17.35h26.78l-13.46-29.52Z"/><path class="cls-1" d="M594,153.77q5.22,4.54,5.22,12.82,0,8.64-5.22,13.43t-14.72,4.79h-11v14.83h-9.65v-50.4h20.66Q588.82,149.24,594,153.77Zm-6.84,20.16q2.92-2.38,2.92-7.06T587.2,160q-2.92-2.3-8.39-2.3H568.29v18.65h10.51Q584.28,176.31,587.2,173.93Z"/><path class="cls-1" d="M607.25,149.24h9.65v21.53H642V149.24h9.65v50.4H642V179.19H616.89v20.45h-9.65Z"/><path class="cls-1" d="M699.51,153.77q5.22,4.54,5.22,12.82,0,8.64-5.22,13.43t-14.72,4.79h-11v14.83h-9.65v-50.4h20.66Q694.29,149.24,699.51,153.77Zm-6.84,20.16q2.92-2.38,2.92-7.06T692.67,160q-2.92-2.3-8.39-2.3H673.77v18.65h10.51Q689.76,176.31,692.67,173.93Z"/><path id="waves_1" data-name="waves 1" class="cls-2" d="M275.18,262.65a40.64,40.64,0,0,1-24.8-8.58,33.48,33.48,0,0,1-7.3-7.65,31.75,31.75,0,0,1-6.59,7.53A36.43,36.43,0,0,1,213,262.55c-13.12,0-25.2-7.47-30.91-15.88-4.7,8.25-14.94,15.88-29.07,15.88-14.36,0-25-7.62-30.06-15.77-5,8.16-15.63,15.77-29.93,15.77a36.43,36.43,0,0,1-23.65-8.6,31.21,31.21,0,0,1-6.21-7.09c-5.24,8.48-16.58,15.69-30.11,15.69C12.65,262.55,0,249.24,0,236.91H6.32c0,9.33,10.75,19.32,26.76,19.32,16.17,0,26.9-11.63,26.9-19.32h6.32c0,6.81,10.16,19.32,26.75,19.32,15.52,0,26.76-11.54,26.76-19.32h6.32c0,6.81,10.21,19.32,26.9,19.32s25.62-12.58,25.62-19.32H185c0,6.61,11.84,19.32,28,19.32s26.76-12.68,26.76-19.32h6.32c0,6.65,12.28,19.42,29.08,19.42,15.39,0,24.58-7.26,24.58-19.42h6.32c0,15.88-11.84,25.74-30.9,25.74"/><path id="bridge" class="cls-3" d="M687.59,109.58h-2a12,12,0,0,1-11.92-12V92.25a2.23,2.23,0,0,0-1.58-2.18,2.18,2.18,0,0,0-2.76,2.11v5.39a11.92,11.92,0,1,1-23.83,0V82.25a2.23,2.23,0,0,0-1.58-2.18,2.18,2.18,0,0,0-2.76,2.11V97.58a11.92,11.92,0,1,1-23.83,0V62.17A2.17,2.17,0,0,0,615.17,60h0A2.17,2.17,0,0,0,613,62.17V97.58a11.92,11.92,0,1,1-23.83,0V42.25a2.23,2.23,0,0,0-1.58-2.18,2.18,2.18,0,0,0-2.76,2.11V97.58a11.92,11.92,0,1,1-23.83,0V22.25a2.23,2.23,0,0,0-1.58-2.18,2.18,2.18,0,0,0-2.76,2.11V97.58a12,12,0,0,1-1.65,6.1,11.17,11.17,0,0,1-19,0,11.92,11.92,0,0,1-1.68-6.13V2.26A2.24,2.24,0,0,0,532.7.08a2.19,2.19,0,0,0-2.78,2.11V97.58a12,12,0,0,1-12,12H462.57a2.24,2.24,0,0,0-2.18,1.59,2.19,2.19,0,0,0,2.11,2.78h55.43a12,12,0,0,1,12,12v25.38a2.24,2.24,0,0,0,1.59,2.18,2.19,2.19,0,0,0,2.78-2.11V125.95a12,12,0,0,1,12-12H687.72a2.19,2.19,0,0,0,2.17-2.41A2.27,2.27,0,0,0,687.59,109.58Z"/></g></g></g></svg>