<svg id="Layer_1" data-name="Layer 1" xmlns="http://www.w3.org/2000/svg" viewBox="0 0 704.73 262.65"><defs><style>.cls-1{fill:#70a0a8;}.cls-2,.cls-3{fill:#1e4057;}.cls-3{fill-rule:evenodd;}.cls-4{fill:#c09144;}</style></defs><title>CascadiaPHP-Logo-v1-Color</title><g id="LOGO_PATH" data-name="LOGO PATH"><path class="cls-1" d="M71.53,172.16A23.16,23.16,0,0,0,43,181.74a22.18,22.18,0,0,0,0,22.61,23,23,0,0,0,8.39,8.24A23.32,23.32,0,0,0,71.49,214a23.86,23.86,0,0,0,7.31-4.57l1.87,2.09a26,26,0,0,1-8.17,5.18,25.46,25.46,0,0,1-9.61,1.87,26,26,0,0,1-22.5-12.71,25.13,25.13,0,0,1,0-25.56,26.25,26.25,0,0,1,32-10.91,26.81,26.81,0,0,1,8.17,5l-1.8,2.3A23.44,23.44,0,0,0,71.53,172.16Z" transform="translate(-33.58 -18.68)"/><path class="cls-1" d="M152.1,218.31,145.54,204H116.1l-6.48,14.33H106.3L129.13,168h3.24l23,50.33ZM117.39,201h26.78l-13.46-29.52Z" transform="translate(-33.58 -18.68)"/><path class="cls-1" d="M205.74,171.66a26.91,26.91,0,0,0-6.91-.94q-6,0-9.58,2.38a7.27,7.27,0,0,0-3.6,6.34,8.37,8.37,0,0,0,1.84,5.62A12.44,12.44,0,0,0,192,188.4a72.61,72.61,0,0,0,7.31,2.63,65.68,65.68,0,0,1,8.28,3,13.9,13.9,0,0,1,5.33,4.25,11.59,11.59,0,0,1,2.16,7.27,11.43,11.43,0,0,1-2.16,6.88,13.74,13.74,0,0,1-6.12,4.61,24.22,24.22,0,0,1-9.22,1.62,25.19,25.19,0,0,1-9.79-2,24.92,24.92,0,0,1-8.14-5.33l1.58-2.66a21,21,0,0,0,7.49,5.08,23.32,23.32,0,0,0,8.93,1.84q6.55,0,10.37-2.7a9.12,9.12,0,0,0,1.94-13,12.82,12.82,0,0,0-4.64-3.42,64.18,64.18,0,0,0-7.38-2.59,68.4,68.4,0,0,1-8.24-3,13.73,13.73,0,0,1-5.18-4.14,11.29,11.29,0,0,1-2.12-7.13,10.27,10.27,0,0,1,2.05-6.34,13,13,0,0,1,5.83-4.21,23.75,23.75,0,0,1,8.68-1.48,27.47,27.47,0,0,1,7.67,1.12,25.11,25.11,0,0,1,6.73,3L212,174.39A21.24,21.24,0,0,0,205.74,171.66Z" transform="translate(-33.58 -18.68)"/><path class="cls-1" d="M279.61,172.16a23.16,23.16,0,0,0-28.51,9.58,22.19,22.19,0,0,0,0,22.61,23,23,0,0,0,8.39,8.24A23.32,23.32,0,0,0,279.57,214a23.87,23.87,0,0,0,7.31-4.57l1.87,2.09a26,26,0,0,1-8.17,5.18A25.46,25.46,0,0,1,271,218.6a26,26,0,0,1-22.5-12.71,25.13,25.13,0,0,1,0-25.56,26.25,26.25,0,0,1,32-10.91,26.79,26.79,0,0,1,8.17,5l-1.8,2.3A23.44,23.44,0,0,0,279.61,172.16Z" transform="translate(-33.58 -18.68)"/><path class="cls-1" d="M360.18,218.31,353.62,204H324.18l-6.48,14.33h-3.31L337.21,168h3.24l23,50.33ZM325.47,201h26.78l-13.46-29.52Z" transform="translate(-33.58 -18.68)"/><path class="cls-1" d="M427.32,171.33a25.09,25.09,0,0,1,9.4,9.14,25,25,0,0,1,0,25.34,25,25,0,0,1-9.43,9.14,26.23,26.23,0,0,1-13,3.35H394.3V168h20A26,26,0,0,1,427.32,171.33Zm-1.58,41a22.62,22.62,0,0,0,8.28-8.06A21.88,21.88,0,0,0,434,182a22.88,22.88,0,0,0-19.76-11.05H397.33v44.42h17A22.58,22.58,0,0,0,425.73,212.37Z" transform="translate(-33.58 -18.68)"/><path class="cls-1" d="M473.72,168h3v50.33h-3Z" transform="translate(-33.58 -18.68)"/><path class="cls-1" d="M553.35,218.31,546.8,204H517.35l-6.48,14.33h-3.31L530.38,168h3.24l23,50.33ZM518.65,201h26.78L532,171.44Z" transform="translate(-33.58 -18.68)"/><path class="cls-2" d="M627.62,172.45q5.22,4.54,5.22,12.82,0,8.64-5.22,13.43t-14.72,4.79h-11v14.83h-9.65v-50.4H612.9Q622.4,167.91,627.62,172.45Zm-6.84,20.16q2.92-2.38,2.92-7.06t-2.92-6.91q-2.92-2.3-8.39-2.3H601.88V195h10.51Q617.86,195,620.78,192.61Z" transform="translate(-33.58 -18.68)"/><path class="cls-2" d="M640.83,167.91h9.65v21.53h25.13V167.91h9.65v50.4h-9.65V197.86H650.48v20.45h-9.65Z" transform="translate(-33.58 -18.68)"/><path class="cls-2" d="M733.1,172.45q5.22,4.54,5.22,12.82,0,8.64-5.22,13.43t-14.72,4.79h-11v14.83h-9.65v-50.4h20.66Q727.88,167.91,733.1,172.45Zm-6.84,20.16q2.92-2.38,2.92-7.06t-2.92-6.91q-2.92-2.3-8.39-2.3H707.36V195h10.51Q723.34,195,726.26,192.61Z" transform="translate(-33.58 -18.68)"/><path id="waves_1" data-name="waves 1" class="cls-3" d="M308.77,281.32a40.64,40.64,0,0,1-24.8-8.58,33.48,33.48,0,0,1-7.3-7.65,31.75,31.75,0,0,1-6.59,7.53,36.43,36.43,0,0,1-23.47,8.62c-13.12,0-25.2-7.47-30.91-15.88-4.7,8.25-14.94,15.88-29.07,15.88-14.36,0-25-7.62-30.06-15.77-5,8.16-15.63,15.77-29.93,15.77a36.43,36.43,0,0,1-23.65-8.6,31.21,31.21,0,0,1-6.21-7.09C91.54,274,80.2,281.23,66.66,281.23c-20.43,0-33.08-13.31-33.08-25.64h6.32c0,9.33,10.75,19.32,26.76,19.32,16.17,0,26.9-11.63,26.9-19.32h6.32c0,6.81,10.16,19.32,26.75,19.32,15.52,0,26.76-11.54,26.76-19.32h6.32c0,6.81,10.21,19.32,26.9,19.32s25.62-12.58,25.62-19.32h6.32c0,6.61,11.84,19.32,28,19.32s26.76-12.68,26.76-19.32h6.32c0,6.65,12.28,19.42,29.08,19.42,15.39,0,24.58-7.26,24.58-19.42h6.32c0,15.88-11.84,25.74-30.9,25.74" transform="translate(-33.58 -18.68)"/><path id="bridge" class="cls-4" d="M721.18,128.25h-2a12,12,0,0,1-11.92-12v-5.32a2.23,2.23,0,0,0-1.58-2.18,2.18,2.18,0,0,0-2.76,2.11v5.39a11.92,11.92,0,1,1-23.83,0V100.93a2.23,2.23,0,0,0-1.58-2.18,2.18,2.18,0,0,0-2.76,2.11v15.39a11.92,11.92,0,1,1-23.83,0V80.85a2.17,2.17,0,0,0-2.17-2.17h0a2.17,2.17,0,0,0-2.17,2.17v35.41a11.92,11.92,0,1,1-23.83,0V60.93a2.23,2.23,0,0,0-1.58-2.18,2.18,2.18,0,0,0-2.76,2.11v55.39a11.92,11.92,0,1,1-23.83,0V40.93A2.23,2.23,0,0,0,593,38.76a2.18,2.18,0,0,0-2.76,2.11v75.39a12,12,0,0,1-1.65,6.1,11.17,11.17,0,0,1-19,0,11.92,11.92,0,0,1-1.68-6.13V20.94a2.24,2.24,0,0,0-1.59-2.18,2.19,2.19,0,0,0-2.78,2.11v95.39a12,12,0,0,1-12,12H496.16a2.24,2.24,0,0,0-2.18,1.59,2.19,2.19,0,0,0,2.11,2.78h55.43a12,12,0,0,1,12,12V170a2.24,2.24,0,0,0,1.59,2.18,2.19,2.19,0,0,0,2.78-2.11V144.62a12,12,0,0,1,12-12H721.3a2.19,2.19,0,0,0,2.17-2.41A2.27,2.27,0,0,0,721.18,128.25Z" transform="translate(-33.58 -18.68)"/></g></svg>