<svg xmlns="http://www.w3.org/2000/svg" viewBox="0 0 700.55 262.65"><defs><style>.cls-1{fill:#6fa0a8;}.cls-2,.cls-3{fill:#1e4057;}.cls-3{fill-rule:evenodd;}.cls-4{fill:#c19144;}</style></defs><title>Asset 13</title><g id="Layer_2" data-name="Layer 2"><g id="Layer_1-2" data-name="Layer 1"><g id="LTBG"><path class="cls-1" d="M15.34,197.08a20.67,20.67,0,0,1-8.1-9,35,35,0,0,1,0-27.65,20.68,20.68,0,0,1,8.1-9,23.88,23.88,0,0,1,12.46-3.13,26.61,26.61,0,0,1,9.11,1.55,22.15,22.15,0,0,1,7.45,4.43,3.36,3.36,0,0,1,1.15,2.52,2.83,2.83,0,0,1-.58,1.76,1.69,1.69,0,0,1-1.37.76,4.06,4.06,0,0,1-2.09-.79,26.92,26.92,0,0,0-6.66-4,19,19,0,0,0-6.88-1.15q-8.35,0-12.85,5.44t-4.5,15.44q0,10.08,4.5,15.52t12.85,5.44A19.09,19.09,0,0,0,34.78,194a26.53,26.53,0,0,0,6.7-4,4.07,4.07,0,0,1,2.09-.79,1.71,1.71,0,0,1,1.37.72,2.79,2.79,0,0,1,.58,1.8,3.36,3.36,0,0,1-1.15,2.52,22.12,22.12,0,0,1-7.45,4.43,26.62,26.62,0,0,1-9.11,1.55A23.88,23.88,0,0,1,15.34,197.08Z"/><path class="cls-1" d="M119.38,197.48a2.29,2.29,0,0,1-.83,1.8,2.93,2.93,0,0,1-2,.72,2.55,2.55,0,0,1-2.52-1.73l-5.11-11.66H81.79l-5.18,11.66A2.55,2.55,0,0,1,74.09,200a3,3,0,0,1-2-.76,2.35,2.35,0,0,1-.86-1.84,2.56,2.56,0,0,1,.29-1.15l20.59-45.79a3.11,3.11,0,0,1,1.3-1.51,3.65,3.65,0,0,1,1.87-.5,3.59,3.59,0,0,1,1.94.54,3.37,3.37,0,0,1,1.3,1.48l20.59,45.79A2.71,2.71,0,0,1,119.38,197.48ZM84,181.71h22.82L95.33,155.86Z"/><path class="cls-1" d="M154.76,198.59a21.12,21.12,0,0,1-7.88-4.36,3.31,3.31,0,0,1-1.08-2.52,2.82,2.82,0,0,1,.58-1.76,1.68,1.68,0,0,1,1.37-.76,3.48,3.48,0,0,1,2,.79A24.27,24.27,0,0,0,165,195.17q6.19,0,9.5-2.38a7.83,7.83,0,0,0,3.31-6.77,5.44,5.44,0,0,0-1.58-4.07,11.46,11.46,0,0,0-4.18-2.48,63.18,63.18,0,0,0-7-1.94,67.94,67.94,0,0,1-9.68-2.88,15.07,15.07,0,0,1-6.12-4.32A11.09,11.09,0,0,1,147,163a13.05,13.05,0,0,1,2.34-7.67,15.15,15.15,0,0,1,6.55-5.18,23.84,23.84,0,0,1,9.61-1.84,27.87,27.87,0,0,1,9.4,1.55,19.8,19.8,0,0,1,7.31,4.43,3.51,3.51,0,0,1,1.15,2.52,2.83,2.83,0,0,1-.58,1.76,1.68,1.68,0,0,1-1.37.76,4.37,4.37,0,0,1-2.09-.79,24.51,24.51,0,0,0-6.55-4,20.48,20.48,0,0,0-7.27-1.15q-6,0-9.29,2.48a8.19,8.19,0,0,0-3.31,6.95,6.38,6.38,0,0,0,2.92,5.72,29.4,29.4,0,0,0,9,3.35q6.55,1.58,10.3,2.92a15.43,15.43,0,0,1,6.23,4,10,10,0,0,1,2.48,7.13,12.47,12.47,0,0,1-2.34,7.49,15.2,15.2,0,0,1-6.59,5,24.72,24.72,0,0,1-9.72,1.8A32.89,32.89,0,0,1,154.76,198.59Z"/><path class="cls-1" d="M224,197.08a20.67,20.67,0,0,1-8.1-9,35,35,0,0,1,0-27.65,20.68,20.68,0,0,1,8.1-9,23.88,23.88,0,0,1,12.46-3.13,26.61,26.61,0,0,1,9.11,1.55,22.15,22.15,0,0,1,7.45,4.43,3.35,3.35,0,0,1,1.15,2.52,2.83,2.83,0,0,1-.58,1.76,1.69,1.69,0,0,1-1.37.76,4.07,4.07,0,0,1-2.09-.79,26.88,26.88,0,0,0-6.66-4,19,19,0,0,0-6.88-1.15q-8.35,0-12.85,5.44t-4.5,15.44q0,10.08,4.5,15.52t12.85,5.44a19.1,19.1,0,0,0,6.84-1.15,26.52,26.52,0,0,0,6.7-4,4.07,4.07,0,0,1,2.09-.79,1.71,1.71,0,0,1,1.37.72,2.79,2.79,0,0,1,.58,1.8,3.36,3.36,0,0,1-1.15,2.52,22.12,22.12,0,0,1-7.45,4.43,26.62,26.62,0,0,1-9.11,1.55A23.88,23.88,0,0,1,224,197.08Z"/><path class="cls-1" d="M328,197.48a2.29,2.29,0,0,1-.83,1.8,2.92,2.92,0,0,1-2,.72,2.55,2.55,0,0,1-2.52-1.73l-5.11-11.66H290.45l-5.18,11.66a2.55,2.55,0,0,1-2.52,1.73,3,3,0,0,1-2-.76,2.35,2.35,0,0,1-.86-1.84,2.56,2.56,0,0,1,.29-1.15l20.59-45.79a3.11,3.11,0,0,1,1.3-1.51,3.65,3.65,0,0,1,1.87-.5,3.59,3.59,0,0,1,1.94.54,3.37,3.37,0,0,1,1.3,1.48l20.59,45.79A2.71,2.71,0,0,1,328,197.48Zm-35.42-15.77h22.82L304,155.86Z"/><path class="cls-1" d="M358.81,198.84a2.76,2.76,0,0,1-.83-2.09v-45a2.76,2.76,0,0,1,.83-2.09,3,3,0,0,1,2.2-.79h14q12.17,0,18.83,6.59t6.66,18.76q0,12.17-6.7,18.79T375,199.64H361A3,3,0,0,1,358.81,198.84Zm15.88-4.25q19.73,0,19.73-20.38t-19.73-20.3h-10.8V194.6Z"/><path class="cls-1" d="M433.58,199.17a3,3,0,0,1-.79-2.2V151.54a3,3,0,0,1,.79-2.2,3.23,3.23,0,0,1,4.32,0,3,3,0,0,1,.79,2.2V197a3,3,0,0,1-.79,2.2,3.23,3.23,0,0,1-4.32,0Z"/><path class="cls-1" d="M516.81,197.48a2.29,2.29,0,0,1-.83,1.8,2.92,2.92,0,0,1-2,.72,2.55,2.55,0,0,1-2.52-1.73l-5.11-11.66H479.23L474,198.27a2.55,2.55,0,0,1-2.52,1.73,3,3,0,0,1-2-.76,2.35,2.35,0,0,1-.86-1.84,2.56,2.56,0,0,1,.29-1.15l20.59-45.79a3.11,3.11,0,0,1,1.3-1.51,3.65,3.65,0,0,1,1.87-.5,3.59,3.59,0,0,1,1.94.54,3.37,3.37,0,0,1,1.3,1.48l20.59,45.79A2.71,2.71,0,0,1,516.81,197.48Zm-35.42-15.77h22.82l-11.45-25.85Z"/><path class="cls-2" d="M589.75,153.81q5.33,4.64,5.33,13.07,0,8.93-5.33,13.86t-15,4.93h-9v14H552.6V149.16h22.18Q584.42,149.16,589.75,153.81Zm-9.4,19.33a7.52,7.52,0,0,0,2.2-5.83,7.22,7.22,0,0,0-2.2-5.65,9,9,0,0,0-6.23-2h-8.35v15.48h8.35A8.88,8.88,0,0,0,580.35,173.14Z"/><path class="cls-2" d="M601.55,149.16h13.18v20.59h20.38V149.16h13.18v50.47H635.11V180.27H614.73v19.37H601.55Z"/><path class="cls-2" d="M695.23,153.81q5.33,4.64,5.33,13.07,0,8.93-5.33,13.86t-15,4.93h-9v14H658.07V149.16h22.18Q689.9,149.16,695.23,153.81Zm-9.4,19.33a7.52,7.52,0,0,0,2.2-5.83,7.22,7.22,0,0,0-2.2-5.65,9,9,0,0,0-6.23-2h-8.35v15.48h8.35A8.88,8.88,0,0,0,685.83,173.14Z"/><path id="waves_1" data-name="waves 1" class="cls-3" d="M275.18,262.65a40.64,40.64,0,0,1-24.8-8.58,33.48,33.48,0,0,1-7.3-7.65,31.75,31.75,0,0,1-6.59,7.53A36.43,36.43,0,0,1,213,262.55c-13.12,0-25.2-7.47-30.91-15.88-4.7,8.25-14.94,15.88-29.07,15.88-14.36,0-25-7.62-30.06-15.77-5,8.16-15.63,15.77-29.93,15.77a36.43,36.43,0,0,1-23.65-8.6,31.21,31.21,0,0,1-6.21-7.09c-5.24,8.48-16.58,15.69-30.11,15.69C12.65,262.55,0,249.24,0,236.91H6.32c0,9.33,10.75,19.32,26.76,19.32,16.17,0,26.9-11.63,26.9-19.32h6.32c0,6.81,10.16,19.32,26.75,19.32,15.52,0,26.76-11.54,26.76-19.32h6.32c0,6.81,10.21,19.32,26.9,19.32s25.62-12.58,25.62-19.32H185c0,6.61,11.84,19.32,28,19.32s26.76-12.68,26.76-19.32h6.32c0,6.65,12.28,19.42,29.08,19.42,15.39,0,24.58-7.26,24.58-19.42h6.32c0,15.88-11.84,25.74-30.9,25.74"/><path id="bridge" class="cls-4" d="M683.59,109.58h-2a12,12,0,0,1-11.92-12V92.25a2.23,2.23,0,0,0-1.58-2.18,2.18,2.18,0,0,0-2.76,2.11v5.39a11.92,11.92,0,1,1-23.83,0V82.25a2.23,2.23,0,0,0-1.58-2.18,2.18,2.18,0,0,0-2.76,2.11V97.58a11.92,11.92,0,1,1-23.83,0V62.17A2.17,2.17,0,0,0,611.17,60h0A2.17,2.17,0,0,0,609,62.17V97.58a11.92,11.92,0,1,1-23.83,0V42.25a2.23,2.23,0,0,0-1.58-2.18,2.18,2.18,0,0,0-2.76,2.11V97.58a11.92,11.92,0,1,1-23.83,0V22.25a2.23,2.23,0,0,0-1.58-2.18,2.18,2.18,0,0,0-2.76,2.11V97.58a12,12,0,0,1-1.65,6.1,11.17,11.17,0,0,1-19,0,11.92,11.92,0,0,1-1.68-6.13V2.26A2.24,2.24,0,0,0,528.7.08a2.19,2.19,0,0,0-2.78,2.11V97.58a12,12,0,0,1-12,12H458.57a2.24,2.24,0,0,0-2.18,1.59,2.19,2.19,0,0,0,2.11,2.78h55.43a12,12,0,0,1,12,12v25.38a2.24,2.24,0,0,0,1.59,2.18,2.19,2.19,0,0,0,2.78-2.11V125.95a12,12,0,0,1,12-12H683.72a2.19,2.19,0,0,0,2.17-2.41A2.27,2.27,0,0,0,683.59,109.58Z"/></g></g></g></svg>