<svg xmlns="http://www.w3.org/2000/svg" viewBox="0 0 229.59 153.59"><defs><style>.cls-1{fill:#c19144;}</style></defs><title>Asset 6</title><g id="Layer_2" data-name="Layer 2"><g id="Layer_1-2" data-name="Layer 1"><g id="LOGO_PATH_3" data-name="LOGO PATH 3"><path id="bridge" class="cls-1" d="M227.28,109.58h-2a12,12,0,0,1-11.92-12V92.25a2.23,2.23,0,0,0-1.58-2.18A2.18,2.18,0,0,0,209,92.19v5.39a11.92,11.92,0,1,1-23.83,0V82.25a2.23,2.23,0,0,0-1.58-2.18,2.18,2.18,0,0,0-2.76,2.11V97.58a11.92,11.92,0,1,1-23.83,0V62.17A2.17,2.17,0,0,0,154.86,60h0a2.17,2.17,0,0,0-2.17,2.17V97.58a11.92,11.92,0,1,1-23.83,0V42.25a2.23,2.23,0,0,0-1.58-2.18,2.18,2.18,0,0,0-2.76,2.11V97.58a11.92,11.92,0,1,1-23.83,0V22.25a2.23,2.23,0,0,0-1.58-2.18,2.18,2.18,0,0,0-2.76,2.11V97.58a12,12,0,0,1-1.65,6.1,11.17,11.17,0,0,1-19,0A11.92,11.92,0,0,1,74,97.58V2.26A2.24,2.24,0,0,0,72.39.08a2.19,2.19,0,0,0-2.78,2.11V97.58a12,12,0,0,1-12,12H2.26a2.24,2.24,0,0,0-2.18,1.59,2.19,2.19,0,0,0,2.11,2.78H57.61a12,12,0,0,1,12,12v25.38a2.24,2.24,0,0,0,1.59,2.18A2.19,2.19,0,0,0,74,151.41V125.95a12,12,0,0,1,12-12H227.41a2.19,2.19,0,0,0,2.17-2.41A2.27,2.27,0,0,0,227.28,109.58Z"/></g></g></g></svg>