<svg xmlns="http://www.w3.org/2000/svg" viewBox="0 0 172.59 164.74"><defs><style>.a{fill:#ffffff11;}</style></defs><title>Artboard 1</title><path class="a" d="M170.28,142.58h-2a12,12,0,0,1-11.92-12v-5.33a2.22,2.22,0,0,0-1.58-2.18,2.19,2.19,0,0,0-2.7,1.5,2.57,2.57,0,0,0-.08.62v5.39a11.92,11.92,0,0,1-23.83.69q0-.35,0-.69V115.25a2.22,2.22,0,0,0-1.58-2.18,2.18,2.18,0,0,0-2.68,1.52,2.33,2.33,0,0,0-.08.59v15.4a11.92,11.92,0,0,1-23.83.69q0-.35,0-.69V95.17A2.17,2.17,0,0,0,97.86,93h0a2.17,2.17,0,0,0-2.17,2.17v35.41a11.92,11.92,0,0,1-23.83.69q0-.35,0-.69V75.25a2.22,2.22,0,0,0-1.58-2.18,2.18,2.18,0,0,0-2.68,1.52,2.33,2.33,0,0,0-.08.59v55.4a11.92,11.92,0,0,1-23.83.69q0-.35,0-.69V55.25a2.22,2.22,0,0,0-1.58-2.18,2.18,2.18,0,0,0-2.68,1.52,2.33,2.33,0,0,0-.08.59v75.4a12,12,0,0,1-1.65,6.1,11.17,11.17,0,0,1-19,0,11.91,11.91,0,0,1-1.7-6.1V35.26a2.23,2.23,0,0,0-1.61-2.18,2.19,2.19,0,0,0-2.7,1.52,2.33,2.33,0,0,0-.08.59v95.39a12,12,0,0,1-12,12H-54.74a2.23,2.23,0,0,0-2.18,1.59,2.19,2.19,0,0,0,1.52,2.7,2.33,2.33,0,0,0,.59.08H.61a12,12,0,0,1,12,12v25.38a2.23,2.23,0,0,0,1.59,2.18A2.18,2.18,0,0,0,16.91,185a2.1,2.1,0,0,0,.09-.61V159a12,12,0,0,1,12-12H170.41a2.18,2.18,0,0,0,2.18-2.2,1.48,1.48,0,0,0,0-.21A2.27,2.27,0,0,0,170.28,142.58Z"/></svg>
