<svg version="1.1" xmlns="http://www.w3.org/2000/svg" xmlns:xlink="http://www.w3.org/1999/xlink" x="0px" y="0px"
	 viewBox="0 0 380 400" style="enable-background:new 0 0 380 400;" xml:space="preserve">
<style type="text/css">
	.st0{clip-path:url(#SVGID_2_);}
	.st1{clip-path:url(#SVGID_4_);fill:#212721;}
	.st2{clip-path:url(#SVGID_4_);fill:#FFFFFF;}
</style>
<g id="Artwork_1_1_">
	<g>
		<defs>
			<rect id="SVGID_1_" x="0.33" y="3.41" width="380" height="393.982"/>
		</defs>
		<clipPath id="SVGID_2_">
			<use xlink:href="#SVGID_1_"  style="overflow:visible;"/>
		</clipPath>
		<g class="st0">
			<defs>
				<rect id="SVGID_3_" x="0.33" y="3.411" width="380" height="393.982"/>
			</defs>
			<clipPath id="SVGID_4_">
				<use xlink:href="#SVGID_3_"  style="overflow:visible;"/>
			</clipPath>
			<path class="st1" d="M380.33,83.703l-51.501-0.056l-54.58,72.194V83.703h-44.533V3.411h-50.942l-21.822,29.176l-0.022,51.166
				h-24.013c0,0-12.093-2.28-18.804-2.844c-4.605-0.391-9.137-0.497-14.742-0.497c-23.051,0-41.297,6.102-54.228,18.128
				c-3.498,3.252-6.566,6.896-9.204,10.908c-0.341,0.492-20.151,28.858-20.481,29.355C6.93,151.013,2.593,166.85,2.593,186.101
				c0,18.486,3.867,33.887,11.495,45.762c3.074,4.778,6.751,9.008,10.953,12.574c-3.588,9.221-4.336,13.596-4.336,17.273
				c0,4.61,0.313,8.74,0.944,12.518c-0.268,0.391-10.713,15.356-11.042,15.848C3.443,300.023,0.33,311.032,0.33,325.159
				c0,20.347,2.252,41.169,18.626,55.642c13.16,11.629,32.714,16.591,65.371,16.591c29.137,0,49.579-5.046,64.332-15.871
				c5.404-3.962,10.21-9.131,14.256-14.272c8.852-11.266,10.595-13.82,18.799-27.723c1.241-2.107,2.341-4.364,4.174-8.427
				c1.218-2.682,3.23-7.829,4.141-12.233h16.558l14.708-19.313c5.896,7.796,13.49,13.412,23.096,17.089
				c9.159,3.509,16.094,5.141,30.115,5.141c10.467,0,21.582-1.822,33.071-5.415v2.453h49.456l23.297-30.819V83.703z"/>
			<path class="st2" d="M182.141,267.619c-2.956-8.382-7.779-15.044-14.334-19.794c-12.076-8.751-28.858-10.545-50.328-10.545
				c-9.332,0-18.849-0.073-25.354-0.581c-4.124-0.319-6.326-0.766-7.444-1.084c-0.095-0.944-0.145-2.369-0.145-4.269
				c0.307-1.704,1.755-6.169,3.604-11.294c4.219,0.302,8.349,0.497,9.93,0.497c23.839,0,40.291-4.627,51.786-14.563
				c12.411-10.735,18.441-27.315,18.441-50.708c0-11.651-2.716-25.527-3.834-28.746c-0.162-0.475-0.33-0.944-0.503-1.408h12.657
				V92.266h-46.304c-1.766-0.503-3.593-0.9-5.46-1.19c-8.416-1.302-16.977-2.062-25.488-2.062c-20.805,0-37.078,5.326-48.366,15.82
				c-12.143,11.294-18.296,28.265-18.296,50.445c0,16.809,3.403,30.64,10.126,41.107c3.778,5.879,8.533,10.668,14.189,14.306
				c-0.145,0.38-0.313,0.754-0.469,1.134c-4.761,11.372-5.734,15.837-5.734,19.056c0,6.572,0.687,12.015,2.124,16.642
				c0.235,0.766,0.492,1.503,0.76,2.219c-13.535,10.623-23.258,21.688-23.258,44.594c0,18.324,1.9,36.983,15.714,49.193
				c11.45,10.12,29.299,14.434,59.677,14.434c27.209,0,46.041-4.51,59.235-14.2c7.226-5.298,12.652-12.199,16.144-20.492
				c3.269-7.807,4.873-16.737,4.873-27.293C186.086,284.44,184.784,275.163,182.141,267.619 M73.981,128.819
				c4.448-4.415,12.646-6.561,25.063-6.561c14.054,0,23.146,2.179,27.807,6.678c4.605,4.443,6.751,12.814,6.751,26.343
				c0,8.394-0.676,20.19-6.6,25.711c-4.638,4.314-13.518,6.326-27.958,6.326c-12.78,0-20.788-1.978-25.209-6.22
				c-4.554-4.359-6.767-12.808-6.767-25.818C67.068,142.096,69.32,133.446,73.981,128.819 M142.912,317.377
				c-6.862,4.873-19.224,7.349-36.754,7.349c-18.927,0-30.59-2.14-35.631-6.533c-4.074-3.543-5.728-10.539-5.728-24.191
				c0-9.656,1.676-13.736,16.34-24.331c7.773,0.268,25.331,0.849,35.698,0.849c13.792,0,23.968,0.671,28.796,3.979
				c1.587,1.079,5.761,3.929,5.761,21.481C151.395,309.604,146.862,314.56,142.912,317.377"/>
			<path class="st2" d="M337.687,92.303v145.249c-7.846,4.236-23.979,11.562-41.683,11.562c-17.927,0-21.844-4.482-24.326-9.075
				c-3.129-5.812-6.035-16.072-6.035-51.557V92.303h-34.038v96.833c0,31.182,1.995,55.161,11.735,70.842
				c5.203,8.366,12.316,14.194,21.761,17.804c8.153,3.118,17.977,4.577,30.903,4.577c15.865,0,30.791-4.566,41.683-9.081v6.114
				h34.038V92.303H337.687z"/>
			<path class="st2" d="M187.072,12.016v246.665c0,11.422,9.254,20.682,20.676,20.682h13.367V12.016H187.072z"/>
		</g>
	</g>
</g>
</svg>
