<?xml version="1.0" standalone="no"?>
<!DOCTYPE svg PUBLIC "-//W3C//DTD SVG 20010904//EN"
 "http://www.w3.org/TR/2001/REC-SVG-20010904/DTD/svg10.dtd">
<svg version="1.0" xmlns="http://www.w3.org/2000/svg"
 width="615.000000pt" height="615.000000pt" viewBox="0 0 615.000000 615.000000"
 preserveAspectRatio="xMidYMid meet">
<metadata>
Created by potrace 1.11, written by Peter Selinger 2001-2013
</metadata>
<g transform="translate(0.000000,615.000000) scale(0.100000,-0.100000)"
fill="#000000" stroke="none">
<path d="M1228 6135 c-15 -8 -30 -25 -34 -37 -5 -13 -8 -903 -9 -1978 -1
-1869 -2 -1957 -19 -2010 -54 -161 -159 -268 -316 -322 -63 -21 -79 -22 -457
-22 l-393 -1 0 -87 c0 -49 3 -88 8 -89 4 0 182 -2 397 -3 433 -3 438 -4 550
-71 104 -63 188 -177 216 -290 8 -35 12 -214 13 -605 1 -402 5 -561 14 -576
28 -52 124 -52 152 1 10 19 13 145 14 582 2 575 3 590 44 680 58 128 181 230
324 267 41 10 468 13 2234 12 l2184 -1 -1 100 0 100 -71 34 c-86 41 -171 124
-211 205 -49 99 -55 160 -55 518 0 237 -3 336 -12 358 -24 58 -122 62 -152 6
-9 -15 -12 -130 -14 -386 -1 -316 -3 -371 -18 -410 -9 -25 -18 -50 -19 -55 -5
-24 -67 -113 -103 -149 -55 -56 -119 -94 -194 -117 -85 -26 -150 -29 -230 -13
-172 36 -299 150 -363 324 -19 53 -20 82 -21 820 -1 576 -5 770 -14 787 -17
31 -75 48 -112 33 -16 -6 -32 -19 -37 -28 -4 -10 -10 -366 -13 -792 -5 -760
-6 -776 -27 -831 -112 -297 -446 -412 -707 -245 -62 40 -129 114 -162 179 -58
114 -56 69 -58 1324 l-1 1152 -23 23 c-31 31 -93 31 -124 0 l-23 -23 -1 -1153
c-2 -1254 0 -1210 -58 -1323 -95 -188 -325 -294 -531 -244 -121 29 -253 133
-307 241 -60 119 -57 26 -58 1712 0 1134 -3 1554 -12 1572 -24 54 -121 55
-151 2 -8 -16 -12 -405 -13 -1586 l-1 -1565 -21 -59 c-69 -189 -228 -306 -417
-306 -206 0 -377 129 -436 330 -11 37 -14 411 -15 1985 0 1067 -4 1956 -7
1975 -5 25 -16 41 -36 53 -35 21 -57 21 -93 2z"/>
</g>
</svg>
