<svg id="Layer_1" data-name="Layer 1" xmlns="http://www.w3.org/2000/svg" viewBox="0 0 334.16 58.78"><defs><style>.cls-1{fill:#6bacf9;}.cls-2{fill:#0763f2;}.cls-3,.cls-4,.cls-5{fill:#231f20;}.cls-3,.cls-5{stroke:#231f20;stroke-miterlimit:10;}.cls-3{stroke-width:1.84px;}.cls-5{stroke-width:1.3px;}</style></defs><title>impactflow_logo</title><path class="cls-1" d="M6.22,24.48,27.83,2.86a6.65,6.65,0,0,1,3.46-1.69c6-.91,5.88,8.91,6.35,12.67l1.63,13.05V27l-4.82.41L32.08,11.43s0-5.12-6.54,1.41L10.06,28.32" transform="translate(-1.42 -1.11)"/><path class="cls-1" d="M24.61,6.09,3,27.7c-2.63,2.63-1.83,6.44,1.37,8.15,2.69,1.44,6.77.51,9.73.45L21,36.15l9.25-.2-8.76-1.87C19.39,33.62,10.88,33,10,31a3.21,3.21,0,0,1,.48-3c4.59-6.64,12.22-12.31,18-18.05" transform="translate(-1.42 -1.11)"/><path class="cls-2" d="M62.1,42.22,46.18,58.14A6.36,6.36,0,0,1,42,59.89a4.12,4.12,0,0,1-3.28-1.78c-1.41-1.86-1.49-4.09-1.83-6.32-.16,0-1.17-9.53-1.28-10.37l-.9-7.19c0-.06,0-.94,0-1l4.82-.41,2.39,16.76s0,5.12,6.54-1.41l9.78-9.78" transform="translate(-1.42 -1.11)"/><path class="cls-2" d="M53.9,50.42,70.74,33.58a6.57,6.57,0,0,0,1.74-4.34c-.31-5.11-6.65-4.23-10.11-3.88-3.3.33-44.27,6.37-44.27,6.37l44.07-2.39s5.12,0-1.41,6.54l-10.7,10.7" transform="translate(-1.42 -1.11)"/><path class="cls-3" d="M123,16.41l-8.65,12a.89.89,0,0,1-.77.43h-.08a.88.88,0,0,1-.81-.43l-8.65-12v22.2a.94.94,0,0,1-.93.93,1,1,0,0,1-1-.93v-25a.88.88,0,0,1,.39-.73s0,0,.08-.08a1,1,0,0,1,1.31.23l9.61,13.32,9.58-13.32a1,1,0,0,1,1.31-.23,2,2,0,0,1,.27.31,1.26,1.26,0,0,1,.15.5v25a.94.94,0,0,1-.93.93.91.91,0,0,1-.93-.93Z" transform="translate(-1.42 -1.11)"/><path class="cls-3" d="M129.95,13.48a.94.94,0,0,1,.93-.93h7.64a7.7,7.7,0,0,1,0,15.4l-6.68.08V38.65a1,1,0,0,1-1,.93.94.94,0,0,1-.93-.93Zm8.57,12.66a5.91,5.91,0,0,0,5.83-5.87,5.85,5.85,0,0,0-5.83-5.83h-6.68v11.7Z" transform="translate(-1.42 -1.11)"/><path class="cls-3" d="M161.65,32.59H149.34L146.94,39a1,1,0,0,1-.89.62c-.08,0-.23,0-.35,0a1,1,0,0,1-.54-1.24l9.38-25.06a1,1,0,0,1,.93-.58,1,1,0,0,1,.93.58l9.38,25.06a1,1,0,0,1-.5,1.24c-.15,0-.23,0-.35,0A1,1,0,0,1,164,39ZM150,30.7H161l-5.44-14.52Z" transform="translate(-1.42 -1.11)"/><path class="cls-3" d="M180.23,12.16a14.34,14.34,0,0,1,8.73,3,1,1,0,0,1,.15,1.35.9.9,0,0,1-1.31.19,12.32,12.32,0,0,0-7.57-2.63,12,12,0,0,0-12.16,11.89,12,12,0,0,0,12.16,11.74,11.5,11.5,0,0,0,7.49-2.63.94.94,0,0,1,1.35.23.91.91,0,0,1-.11,1.35,14.31,14.31,0,0,1-8.73,2.93,13.85,13.85,0,0,1-14.05-13.63A13.9,13.9,0,0,1,180.23,12.16Z" transform="translate(-1.42 -1.11)"/><path class="cls-3" d="M201.24,14.44h-8.15a1,1,0,0,1-.93-1,.94.94,0,0,1,.93-.93h18.15a.94.94,0,0,1,.93.93,1,1,0,0,1-.93,1h-8.15V38.65a.93.93,0,1,1-1.85,0Z" transform="translate(-1.42 -1.11)"/><path class="cls-4" d="M216.38,12.67a1,1,0,0,1,1-1h15a1,1,0,0,1,1,1,1,1,0,0,1-1,1H218.41V25.2h12.2a1,1,0,1,1,0,2h-12.2V39.72a1,1,0,0,1-2,0Z" transform="translate(-1.42 -1.11)"/><path class="cls-4" d="M237.92,40.54h-.08a1,1,0,0,1-1-1V12.66a1,1,0,0,1,1-1,1,1,0,0,1,1,1V38.52h13.81a1,1,0,1,1,0,2Z" transform="translate(-1.42 -1.11)"/><path class="cls-4" d="M267.69,11.46c7.61,0,13.58,6.47,13.62,14.44s-6,14.43-13.62,14.43S254,33.86,253.95,25.89,260,11.46,267.69,11.46Zm0,26.88c6.26,0,11.55-5.49,11.59-12.44s-5.33-12.4-11.59-12.4c-6.46,0-11.75,5.37-11.75,12.4S261.23,38.33,267.69,38.33Z" transform="translate(-1.42 -1.11)"/><path class="cls-4" d="M283.73,12.34l10.33,24.58,7.35-17.39a1.14,1.14,0,0,1,.95-.62,1.17,1.17,0,0,1,1,.62l7.31,17.39L321,12.34a1,1,0,0,1,1.36-.5,1,1,0,0,1,.5,1.32L311.65,39.85a1.17,1.17,0,0,1-.83.66h-.21a.8.8,0,0,1-.5-.17s-.12-.08-.17-.17a1.42,1.42,0,0,1-.17-.25.16.16,0,0,0,0-.12L302.4,22.34,295,39.81a.31.31,0,0,1-.08.21.72.72,0,0,1-.21.29.15.15,0,0,0-.08,0,1,1,0,0,1-.58.17,1,1,0,0,1-.62-.21l-.08-.08,0,0a.94.94,0,0,1-.25-.5L281.91,13.17a1,1,0,0,1,1.82-.83Z" transform="translate(-1.42 -1.11)"/><path class="cls-5" d="M90.69,14.28H85.62a1,1,0,0,1,0-1.92h12a1,1,0,0,1,0,1.92H92.56V38.88a.93.93,0,1,1-1.86,0Z" transform="translate(-1.42 -1.11)"/><path class="cls-5" d="M92.56,37.9h5.05a1,1,0,0,1,0,1.92h-12a1,1,0,0,1,0-1.92h5.12V13.29a.93.93,0,1,1,1.86,0Z" transform="translate(-1.42 -1.11)"/><path class="cls-4" d="M326.21,15.69a4.63,4.63,0,0,1,.62-2.34,4.57,4.57,0,0,1,1.71-1.72,4.68,4.68,0,0,1,4.73,8.08A4.69,4.69,0,0,1,326.82,18,4.63,4.63,0,0,1,326.21,15.69Zm.58,0a4,4,0,0,0,.55,2.05,4.11,4.11,0,0,0,1.5,1.5,4.09,4.09,0,0,0,4.11,0,4.11,4.11,0,0,0,1.5-1.5,4,4,0,0,0,.55-2.06,4,4,0,0,0-.53-2A4.1,4.1,0,0,0,333,12.15a4.07,4.07,0,0,0-4.13,0,4.08,4.08,0,0,0-1.5,1.51A4,4,0,0,0,326.79,15.69Zm5.77-1.16a1.54,1.54,0,0,1-.93,1.46l1.48,2.45h-.75l-1.31-2.24h-1v2.24h-.63V12.95h1.31a2.19,2.19,0,0,1,1.38.39A1.42,1.42,0,0,1,332.56,14.52ZM330,15.69h.7a1.29,1.29,0,0,0,.89-.29,1.07,1.07,0,0,0,.32-.84q0-1.07-1.23-1.07H330Z" transform="translate(-1.42 -1.11)"/></svg>