<svg width="160" height="40" viewBox="0 0 160 40" version="1.1" xmlns="http://www.w3.org/2000/svg" xmlns:xlink="http://www.w3.org/1999/xlink">
<title>logo</title>
<desc>Created using Figma</desc>
<g id="Canvas" transform="translate(9781 -159)">
<g id="logo">
<g id="Group 3">
<mask id="mask0_outline" mask-type="alpha">
<g id="Clip 2">
<use xlink:href="#path0_fill" transform="translate(-9781 159.031)" fill="#FFFFFF"/>
</g>
</mask>
<g id="Fill 1" mask="url(#mask0_outline)">
<use xlink:href="#path1_fill" transform="translate(-9781 159.031)" fill="#FD671A"/>
</g>
</g>
<g id="Fill 4">
<use xlink:href="#path2_fill" transform="translate(-9744.37 176.143)" fill="#232F34"/>
</g>
<g id="Fill 6">
<use xlink:href="#path3_fill" transform="translate(-9732.81 176.143)" fill="#232F34"/>
</g>
<g id="Fill 8">
<use xlink:href="#path4_fill" transform="translate(-9721.24 179)" fill="#232F34"/>
</g>
<g id="Fill 10">
<use xlink:href="#path5_fill" transform="translate(-9708.71 179)" fill="#232F34"/>
</g>
<g id="Fill 12">
<use xlink:href="#path6_fill" transform="translate(-9697.14 179)" fill="#232F34"/>
</g>
<g id="Fill 14">
<use xlink:href="#path7_fill" transform="translate(-9684.61 176.143)" fill="#232F34"/>
</g>
<g id="Fill 16">
<use xlink:href="#path8_fill" transform="translate(-9672.08 179.952)" fill="#232F34"/>
</g>
<g id="Fill 18">
<use xlink:href="#path9_fill" transform="translate(-9660.52 179.952)" fill="#232F34"/>
</g>
<g id="Fill 20">
<use xlink:href="#path10_fill" transform="translate(-9652.81 179.952)" fill="#232F34"/>
</g>
<g id="Fill 22">
<use xlink:href="#path11_fill" transform="translate(-9643.17 179.952)" fill="#232F34"/>
</g>
<g id="Fill 24">
<use xlink:href="#path9_fill" transform="translate(-9631.6 179.952)" fill="#232F34"/>
</g>
<g id="Group 28">
<mask id="mask1_outline" mask-type="alpha">
<g id="Clip 27">
<use xlink:href="#path12_fill" transform="translate(-9624.77 180.192)" fill="#FFFFFF"/>
</g>
</mask>
<g id="Fill 26" mask="url(#mask1_outline)">
<use xlink:href="#path13_fill" transform="translate(-9624.77 180.192)" fill="#232F34"/>
</g>
</g>
</g>
</g>
<defs>
<path id="path0_fill" fill-rule="evenodd" d="M 0 0L 30.734 0L 30.734 39.9692L 0 39.9692L 0 0Z"/>
<path id="path1_fill" fill-rule="evenodd" d="M 22.6108 33.3381C 21.9766 33.7901 21.209 34.1433 20.3966 34.3549C 20.3537 34.3662 20.3107 34.3771 20.2677 34.387C 20.1676 34.4113 20.0671 34.4332 19.9662 34.4527C 18.6971 34.6995 17.3601 34.5925 16.2789 33.972C 15.8166 33.694 15.3564 33.3863 14.902 33.0486C 13.7771 32.2144 12.6862 31.2021 11.6805 30.0308C 11.3498 29.6462 11.0282 29.2434 10.7174 28.825C 9.57201 27.2807 8.62626 25.5833 7.96365 23.7836C 7.72453 23.135 7.52942 22.4903 7.37867 21.8564C 7.11875 20.6458 7.43238 19.3621 8.0645 18.2506C 8.1151 18.1624 8.16743 18.0752 8.22149 17.9891C 8.24505 17.9518 8.26862 17.9149 8.29288 17.8783C 8.74894 17.1839 9.32804 16.5744 9.95946 16.1169C 10.3306 15.8516 10.8643 15.9525 11.1492 16.3402C 11.6669 17.0465 12.1847 17.7528 12.7017 18.4588C 12.9835 18.8431 13.2646 19.2267 13.5463 19.6109C 13.8305 19.9976 13.6731 20.5949 13.2989 20.8626C 12.727 21.2728 12.1556 21.6834 11.5838 22.094C 11.327 22.2773 11.2525 22.5569 11.3758 22.9039C 11.9418 24.361 12.6886 25.6971 13.6316 26.9504C 13.817 27.1969 13.9972 27.4243 14.1746 27.638C 14.928 28.5446 15.6357 29.1942 16.5163 29.9019C 16.8098 30.1217 17.1051 30.1422 17.3619 29.9586C 17.934 29.5494 18.5065 29.1402 19.079 28.7306C 19.4533 28.4633 20.0771 28.5019 20.3644 28.8923C 20.8108 29.4981 21.2568 30.1036 21.7032 30.7101C 22.0577 31.1915 22.4122 31.6721 22.7664 32.1535C 23.0513 32.5415 22.9819 33.0728 22.6108 33.3381ZM 30.7342 17.1662C 30.1063 17.4759 29.4274 17.7733 28.764 17.9935C 26.4574 18.7597 24.3385 18.5928 25.1949 14.7696C 25.3155 14.2321 25.4946 13.6222 25.7407 12.932C 25.9784 12.1737 25.9958 11.4868 25.8641 10.8701C 25.7875 10.5128 25.661 10.1795 25.4985 9.86906C 25.0604 9.03316 24.3597 8.3665 23.668 7.86462C 22.5867 7.07966 21.5273 6.69709 21.5273 6.69709C 21.5273 6.69709 21.8236 8.30462 21.3907 9.59556C 21.2137 10.1244 20.9139 10.6 20.4218 10.8899C 19.808 11.2509 18.8959 11.3244 17.5478 10.8537C 15.6002 10.174 14.8374 8.41573 14.6371 6.50769C 14.3155 3.4465 15.4411 0 15.4411 0C 14.9067 0.248889 14.4066 0.585641 13.935 0.932991C 12.8665 1.71966 11.9204 2.66838 11.1313 3.72718C 10.3492 4.77607 9.72398 5.93538 9.27034 7.15761C 9.0326 7.79692 8.8413 8.45299 8.69506 9.11897C 8.55401 9.75761 8.40569 10.385 8.16136 10.9945C 7.06209 13.7409 5.02158 14.6636 4.74572 13.0574C 4.68611 12.7111 4.70864 12.2468 4.84068 11.6581C 4.00998 12.2226 3.47525 12.9159 3.14048 13.6711C 2.92666 14.1545 2.79427 14.6629 2.71872 15.1798C 2.69065 15.3716 2.66986 15.5644 2.65634 15.7576C 2.60193 16.5224 2.64872 17.2909 2.71838 18.0085C 2.92631 20.1706 3.33316 21.8667 1.7449 21.5904C 1.32003 21.5162 0.752717 21.3012 0 20.9162C 0.0911439 21.0646 0.17605 21.2198 0.256451 21.3815C 0.911092 22.7077 1.22992 24.4879 1.56192 26.4352C 1.66554 27.0455 1.8156 28.8738 2.64456 31.1265C 3.1987 32.6328 4.05677 34.3296 5.40764 35.9771C 7.09432 37.6232 9.05651 38.6161 10.9705 39.201C 15.2668 40.5142 19.3145 39.7491 19.4507 39.7361C 21.4025 39.5504 22.8719 38.6971 22.8719 38.6971C 22.8719 38.6971 23.7057 38.3142 24.2477 37.9135C 24.9187 37.4168 25.2801 37.1313 25.8059 36.6434C 27.0406 35.4961 27.7448 33.5501 28.1423 31.921C 28.4813 30.5289 28.2841 27.2667 28.2245 24.8191C 28.168 22.5217 29.0649 20.1214 30.169 18.1207C 30.3506 17.7911 30.5394 17.4721 30.7342 17.1662Z"/>
<path id="path2_fill" fill-rule="evenodd" d="M 5.59723 7.10218C 6.94749 7.10218 7.76965 6.36755 7.76965 5.24493L 7.76965 5.2039C 7.76965 3.97976 6.94749 3.32649 5.57756 3.32649L 3.79688 3.32649L 3.79688 7.10218L 5.59723 7.10218ZM 0 0L 5.87115 0C 9.33516 0 11.5663 1.85725 11.5663 5.02034L 11.5663 5.06136C 11.5663 8.42854 9.08078 10.2041 5.67544 10.2041L 3.79674 10.2041L 3.79674 14.2857L 0 14.2857L 0 0Z"/>
<path id="path3_fill" fill-rule="evenodd" d="M 0 0L 3.75834 0L 3.75834 5.14674C 4.45084 4.26594 5.43987 3.46416 6.96302 3.46416C 9.23764 3.46416 10.6024 4.95104 10.6024 7.35805L 10.6024 14.2857L 6.84441 14.2857L 6.84441 8.55189C 6.84441 7.39739 6.2311 6.77097 5.3408 6.77097C 4.43095 6.77097 3.75834 7.39739 3.75834 8.55189L 3.75834 14.2857L 0 14.2857L 0 0Z"/>
<path id="path4_fill" fill-rule="evenodd" d="M 7.98776 5.75471L 7.98776 5.71412C 7.98776 4.38148 7.05957 3.25076 5.76367 3.25076C 4.42888 3.25076 3.57812 4.36118 3.57812 5.67387L 3.57812 5.71412C 3.57812 7.0471 4.50631 8.17781 5.80222 8.17781C 7.137 8.17781 7.98776 7.06705 7.98776 5.75471ZM 0 5.75471L 0 5.71411C 0 2.60474 2.43695 0 5.80241 0C 9.14843 0 11.5663 2.56414 11.5663 5.67387L 11.5663 5.71411C 11.5663 8.82384 9.12932 11.4286 5.76386 11.4286C 2.41783 11.4286 0 8.86443 0 5.75471Z"/>
<path id="path5_fill" fill-rule="evenodd" d="M 0 0.247865L 3.758 0.247865L 3.758 1.81815C 4.4505 0.888302 5.43987 0 6.96269 0C 9.23764 0 10.6024 1.57028 10.6024 4.11231L 10.6024 11.4286L 6.84407 11.4286L 6.84407 5.37312C 6.84407 4.15386 6.23076 3.4923 5.3408 3.4923C 4.43062 3.4923 3.758 4.15386 3.758 5.37312L 3.758 11.4286L 0 11.4286L 0 0.247865Z"/>
<path id="path6_fill" fill-rule="evenodd" d="M 7.14547 4.80562C 7.00985 3.59407 6.33006 2.82661 5.32013 2.82661C 4.34957 2.82661 3.6893 3.61402 3.49512 4.80562L 7.14547 4.80562ZM 0 5.75471L 0 5.71411C 0 2.52355 2.19451 0 5.30137 0C 8.93221 0 10.6024 2.76573 10.6024 5.97658C 10.6024 6.21876 10.6024 6.50186 10.5832 6.76399L 3.55376 6.76399C 3.84487 7.95559 4.68013 8.56137 5.82569 8.56137C 6.69932 8.56137 7.39863 8.21806 8.15583 7.4506L 10.1949 9.20739C 9.18494 10.5404 7.72877 11.4286 5.63151 11.4286C 2.33014 11.4286 0 9.14685 0 5.75471Z"/>
<path id="path7_fill" fill-rule="evenodd" d="M 10.4619 10.347C 10.4619 8.59159 8.89909 7.57153 6.02305 7.57153L 1.08398 7.57153L 1.08398 13.3063L 6.37736 13.3063C 8.87814 13.3063 10.4619 12.1837 10.4619 10.3877L 10.4619 10.347ZM 9.64925 3.61229C 9.64925 2.04082 8.33638 0.979736 6.00211 0.979736L 1.08398 0.979736L 1.08398 6.59181L 5.89808 6.59181C 8.08644 6.59181 9.64925 5.55089 9.64925 3.65296L 9.64925 3.61229ZM 6.33572 14.2857L 0 14.2857L 0 0L 6.02295 0C 8.85709 0 10.7536 1.36738 10.7536 3.51007L 10.7536 3.55074C 10.7536 5.48969 9.46169 6.46942 8.27379 6.93878C 10.0244 7.38762 11.5663 8.36735 11.5663 10.347L 11.5663 10.3877C 11.5663 12.7754 9.48229 14.2857 6.33572 14.2857Z"/>
<path id="path8_fill" fill-rule="evenodd" d="M 7.70213 10.2355L 7.70213 8.32905C 7.02714 9.53289 5.89563 10.4762 4.04923 10.4762C 1.48862 10.4762 0 8.71027 0 6.26158L 0 0L 0.972573 0L 0.972573 6.08105C 0.972573 8.18853 2.14365 9.57323 4.18822 9.57323C 6.17327 9.57323 7.70213 8.04801 7.70213 5.92036L 7.70213 0L 8.6747 0L 8.6747 10.2355L 7.70213 10.2355Z"/>
<path id="path9_fill" fill-rule="evenodd" d="M 5.67817 1.09527C 3.19661 1.09527 1.03067 2.89486 1.03067 6.25087L 1.03067 10.4762L 0 10.4762L 0 0.165341L 1.03067 0.165341L 1.03067 3.09703C 1.87182 1.25715 3.6591 -0.0771295 5.78313 0.00346439L 5.78313 1.09527L 5.67817 1.09527Z"/>
<path id="path10_fill" fill-rule="evenodd" d="M 7.70213 10.4762L 7.70213 4.39534C 7.70213 2.28793 6.53071 0.903273 4.48614 0.903273C 2.50109 0.903273 0.972911 2.42844 0.972911 4.55603L 0.972911 10.4762L 0 10.4762L 0 0.241032L 0.972911 0.241032L 0.972911 2.14775C 1.64756 0.943274 2.77873 0 4.62513 0C 7.18608 0 8.6747 1.7662 8.6747 4.21482L 8.6747 10.4762L 7.70213 10.4762Z"/>
<path id="path11_fill" fill-rule="evenodd" d="M 8.56529 4.76719C 8.42352 2.74654 7.22857 0.88298 4.85972 0.88298C 2.81445 0.88298 1.23487 2.55036 1.05273 4.76719L 8.56529 4.76719ZM 5.10301 9.57382C 6.70294 9.57382 7.79612 8.88702 8.64645 8.0047L 9.33499 8.59291C 8.28217 9.69146 7.04686 10.4762 5.06265 10.4762C 2.34918 10.4762 0 8.37734 0 5.25781L 0 5.21871C 0 2.31508 2.10599 0 4.90052 0C 7.79612 0 9.63855 2.27598 9.63855 5.2381L 9.63855 5.2772C 9.63855 5.41456 9.63855 5.47338 9.61855 5.63046L 1.05317 5.63046C 1.23531 8.12201 3.07809 9.57382 5.10301 9.57382Z"/>
<path id="path12_fill" fill-rule="evenodd" d="M 0 0L 3.62899 0L 3.62899 3.25957L 0 3.25957L 0 0Z"/>
<path id="path13_fill" fill-rule="evenodd" d="M 1.92424 0.972473L 1.37793 0.972473L 1.37793 1.56676L 1.90921 1.56676C 2.17022 1.56676 2.34988 1.45871 2.34988 1.26511C 2.34988 1.08053 2.1895 0.972473 1.92424 0.972473ZM 2.15545 1.74684L 2.73145 2.41766L 2.39064 2.41766L 1.85396 1.78771L 1.3782 1.78771L 1.3782 2.41766L 1.10254 2.41766L 1.10254 0.74736L 1.93454 0.74736C 2.34591 0.74736 2.63661 0.940953 2.63661 1.2516C 2.63661 1.52623 2.43574 1.68831 2.15545 1.74684ZM 1.8194 0.139572C 0.876364 0.139572 0.165039 0.814897 0.165039 1.63429C 0.165039 2.45368 0.872123 3.12001 1.80899 3.12001C 2.75164 3.12001 3.46297 2.44468 3.46297 1.62529C 3.46297 0.805893 2.75627 0.139572 1.8194 0.139572ZM 1.80935 3.25957C 0.791904 3.25957 0 2.52571 0 1.63429C 0 0.742857 0.801928 0 1.81976 0C 2.83682 0 3.62911 0.733853 3.62911 1.62528C 3.62911 2.51671 2.82718 3.25957 1.80935 3.25957Z"/>
</defs>
</svg>
