<svg xmlns="http://www.w3.org/2000/svg" viewBox="0 0 259 85"><defs><style>.a,.c{fill:#009b72;}.b{fill:#231f20;}.c{stroke:#231f20;stroke-linecap:round;stroke-linejoin:round;}</style></defs><title>bridge-right</title><polygon class="a" points="129.56 73.13 136.45 73.13 134.7 2.46 129.21 2.52 129.56 73.13"/><path class="b" d="M129.6,73.09l6.85-.17-.21.22c-.25-5.89-.48-11.78-.64-17.67s-.33-11.77-.39-17.66S135.11,26,135,20.13s-.33-11.77-.56-17.66l.29.27-5.49.12.34-.34q.16,8.79.23,17.56c.07,5.84.07,11.69.07,17.55s-.07,11.76-.1,17.65l-.06,8.87Zm-.07.08-.19-8.71-.15-8.79C129.11,49.8,129,44,128.92,38s-.12-11.83-.1-17.75,0-11.84.05-17.75h0a.34.34,0,0,1,.34-.34h5.5a.29.29,0,0,1,.28.28c.06,5.89.15,11.78.31,17.67s.41,11.77.64,17.66.39,11.77.49,17.66.2,11.78.24,17.67h0a.21.21,0,0,1-.21.21h0Z"/><path class="a" d="M1.46,59.08c2.7.2,6.29.5,11.65.69s121.18,5.85,148.09,6.66,95.49,2.48,95.49,2.48v1.32s-68.57-1.68-95.49-2.48S18.46,61.27,13.11,61.09s-9.75-.54-11.65-.69H-1.46c-1.89.15-6.29.5-11.64.69s-121.19,5.85-148.1,6.66-95.49,2.48-95.49,2.48V68.91s68.57-1.68,95.49-2.48S-18.46,60-13.1,59.77s9-.49,11.64-.69Z"/><path class="b" d="M1.46,59c10.62.67,21.26,1.08,31.89,1.54L65.25,62l63.8,2.74L161,66.06l31.92.77c21.28.48,42.55,1.14,63.83,1.7a.4.4,0,0,1,.38.38v1.32a.38.38,0,0,1-.37.38h0l-63.83-1.75L160.93,68,129,66.49l-63.8-2.86-31.9-1.4c-10.63-.47-21.26-.88-31.9-1.56H-1.44c-10.63.7-21.27,1.15-31.9,1.65l-31.89,1.49L-129,66.76l-31.89,1.44-31.92.84-63.84,1.68a.48.48,0,0,1-.5-.47V68.91a.48.48,0,0,1,.47-.48l63.84-1.65,31.92-.76,31.9-1.36,63.8-2.73,31.9-1.37C-22.72,60.1-12.08,59.7-1.46,59H1.46Zm0,.1H-1.46c-10.62.71-21.25,1.15-31.88,1.66l-31.9,1.49-63.79,3-31.9,1.51-31.91.91-63.84,1.68.47-.49v1.32l-.5-.48,63.84-1.65,31.92-.83,31.9-1.43,63.79-2.79,31.9-1.38c10.63-.46,21.27-.87,31.88-1.54h3c10.61.7,21.25,1.14,31.88,1.64l31.89,1.47,63.8,2.87L161,67.49l31.91.79,63.84,1.57-.39.38V68.91l.37.38c-21.28-.54-42.56-1-63.84-1.62l-31.91-.9L129,65.27l-63.79-3L33.35,60.79C22.71,60.29,12.08,59.84,1.46,59.13Z"/><line class="a" x1="134.69" y1="4.93" x2="245.26" y2="68.63"/><path class="b" d="M134.72,4.89q14.07,7.53,27.82,15.61c4.58,2.71,9.1,5.5,13.7,8.17s9.23,5.29,13.88,7.87q13.95,7.73,27.76,15.72t27.41,16.33l0,.08q-14.06-7.56-27.88-15.52T189.84,37c-4.56-2.73-9.14-5.44-13.77-8.05s-9.3-5.15-13.94-7.75Q148.26,13.35,134.67,5Z"/><line class="a" x1="134.83" y1="8.09" x2="236.71" y2="68.48"/><path class="b" d="M134.86,8.05c8.66,4.74,17.2,9.69,25.65,14.78,4.21,2.57,8.37,5.23,12.61,7.76s8.5,5,12.79,7.46q12.87,7.32,25.59,14.89t25.23,15.5l0,.08q-13-7.14-25.71-14.69T185.63,38.52c-4.21-2.58-8.41-5.16-12.68-7.63s-8.59-4.88-12.86-7.34Q147.3,16.1,134.8,8.14Z"/><line class="a" x1="134.92" y1="11.25" x2="228.15" y2="68.35"/><path class="b" d="M134.94,11.21q11.92,6.7,23.5,14c3.85,2.43,7.65,4.95,11.53,7.34s7.78,4.75,11.7,7.06q11.81,6.9,23.44,14.06T228.17,68.3l0,.09q-11.9-6.73-23.55-13.88T181.39,40c-3.84-2.45-7.69-4.88-11.6-7.22S161.92,28.2,158,25.88q-11.72-7-23.12-14.59Z"/><line class="a" x1="135.08" y1="14.41" x2="219.59" y2="68.04"/><path class="b" d="M135.11,14.37c7.22,4.18,14.32,8.57,21.32,13.1,3.49,2.29,6.92,4.66,10.44,6.91s7,4.45,10.61,6.61q10.71,6.48,21.26,13.21T219.62,68l-.06.08q-10.81-6.31-21.37-13t-21-13.61c-3.48-2.31-7-4.6-10.51-6.79s-7.14-4.32-10.69-6.5c-7.08-4.41-14.07-9-20.93-13.72Z"/><line class="a" x1="135.08" y1="17.57" x2="211.03" y2="67.92"/><path class="b" d="M135.11,17.53q9.78,5.87,19.19,12.28c3.13,2.15,6.2,4.39,9.36,6.5s6.34,4.17,9.55,6.21q9.64,6.06,19.12,12.38t18.73,13L211,68q-9.75-5.91-19.24-12.2T172.91,43c-3.12-2.16-6.25-4.32-9.44-6.38s-6.43-4-9.63-6.09q-9.56-6.19-18.78-12.89Z"/><line class="a" x1="135.18" y1="20.73" x2="202.47" y2="67.64"/><path class="b" d="M135.21,20.69c5.8,3.63,11.46,7.46,17,11.43,2.77,2,5.48,4.09,8.27,6.06S166.13,42.07,169,44q8.57,5.64,17,11.53c5.6,3.92,11.13,7.94,16.56,12.11l-.06.08q-8.67-5.49-17.09-11.35T168.67,44.41c-2.76-2-5.52-4-8.35-5.95s-5.71-3.76-8.55-5.66c-5.65-3.85-11.2-7.84-16.62-12Z"/><line class="a" x1="135.22" y1="23.89" x2="193.91" y2="67.42"/><path class="b" d="M135.25,23.85q7.63,5,14.89,10.59c2.41,1.87,4.76,3.81,7.19,5.64s4.91,3.61,7.4,5.36c5,3.47,9.94,7.05,14.83,10.67s9.68,7.39,14.38,11.27l-.06.08c-5.08-3.37-10-6.91-15-10.49s-9.74-7.31-14.52-11.09c-2.39-1.88-4.8-3.75-7.27-5.53s-5-3.48-7.48-5.24c-4.94-3.57-9.77-7.28-14.46-11.18Z"/><line class="a" x1="135.3" y1="27.05" x2="185.36" y2="67.07"/><path class="b" d="M135.33,27c4.39,3.07,8.62,6.33,12.75,9.72,2,1.72,4,3.51,6.09,5.2s4.19,3.32,6.33,4.92c4.29,3.18,8.5,6.47,12.68,9.8s8.23,6.8,12.21,10.38l-.07.08c-4.36-3.09-8.61-6.33-12.81-9.63s-8.3-6.72-12.35-10.2c-2-1.74-4.08-3.45-6.19-5.09s-4.28-3.2-6.41-4.81c-4.22-3.28-8.33-6.69-12.29-10.29Z"/><line class="a" x1="135.38" y1="30.21" x2="176.5" y2="66.86"/><path class="b" d="M135.42,30.17c3.65,2.8,7.14,5.78,10.52,8.89,1.66,1.58,3.28,3.22,5,4.77s3.44,3,5.21,4.5q5.32,4.37,10.45,9c3.4,3.09,6.74,6.23,10,9.52l-.07.07c-3.63-2.81-7.14-5.78-10.6-8.8s-6.8-6.16-10.1-9.35c-1.66-1.59-3.33-3.16-5.07-4.67s-3.54-2.91-5.31-4.39c-3.47-3-6.83-6.13-10-9.43Z"/><line class="a" x1="135.46" y1="33.37" x2="168.24" y2="66.66"/><path class="b" d="M135.49,33.33A107.59,107.59,0,0,1,144,41.4c1.32,1.44,2.58,2.93,3.92,4.34s2.75,2.76,4.17,4.08c2.87,2.64,5.65,5.37,8.38,8.14s5.35,5.67,7.85,8.67l-.07.07c-2.95-2.56-5.77-5.25-8.54-8s-5.41-5.59-8-8.5c-1.3-1.45-2.63-2.88-4-4.24s-2.87-2.65-4.28-4a109.42,109.42,0,0,1-7.94-8.58Z"/><line class="a" x1="135.61" y1="36.53" x2="159.68" y2="66.43"/><path class="b" d="M135.65,36.5a74.58,74.58,0,0,1,6.3,7.24c1,1.29,1.84,2.63,2.81,3.9s2,2.47,3.1,3.67c2.15,2.37,4.21,4.82,6.22,7.31s3.88,5.08,5.64,7.77l-.08.07c-2.25-2.3-4.35-4.71-6.39-7.17s-4-5-5.82-7.64c-.94-1.3-1.9-2.58-2.92-3.81s-2.15-2.38-3.21-3.58a73.2,73.2,0,0,1-5.73-7.7Z"/><line class="a" x1="135.61" y1="39.69" x2="151.12" y2="66.07"/><path class="b" d="M135.65,39.66a46.72,46.72,0,0,1,4.19,6.41c.59,1.14,1.11,2.31,1.72,3.43s1.32,2.18,2,3.24c1.46,2.1,2.81,4.27,4.1,6.46A74.26,74.26,0,0,1,151.16,66l-.08,0a71.46,71.46,0,0,1-4.3-6.35c-1.29-2.2-2.52-4.43-3.65-6.72a37.71,37.71,0,0,0-1.85-3.36c-.67-1.08-1.45-2.1-2.15-3.17a46.05,46.05,0,0,1-3.57-6.78Z"/><line class="a" x1="129.4" y1="39.69" x2="115.21" y2="64.44"/><path class="b" d="M129.44,39.71a39.67,39.67,0,0,1-3.23,6.37c-.65,1-1.37,2-2,3a33.93,33.93,0,0,0-1.68,3.15c-1,2.16-2.14,4.25-3.32,6.32a64.78,64.78,0,0,1-4,5.95l-.08,0A62.57,62.57,0,0,1,118.3,58c1.18-2.06,2.42-4.09,3.77-6.06.66-1,1.31-2,1.87-3s1-2.15,1.55-3.22a40.69,40.69,0,0,1,3.87-6Z"/><line class="a" x1="129.38" y1="36.53" x2="105.98" y2="64.08"/><path class="b" d="M129.42,36.56a67.56,67.56,0,0,1-5.57,7.13c-1,1.1-2.12,2.15-3.12,3.27s-1.93,2.32-2.84,3.52c-1.81,2.42-3.71,4.76-5.65,7.06s-4,4.48-6.22,6.57l-.08-.06c1.71-2.51,3.57-4.88,5.48-7.2s4-4.55,6-6.72c1-1.1,2.06-2.21,3-3.38s1.81-2.41,2.73-3.6a65.35,65.35,0,0,1,6.13-6.65Z"/><line class="a" x1="129.37" y1="33.37" x2="96.75" y2="63.62"/><path class="b" d="M129.4,33.41a99,99,0,0,1-7.91,7.83c-1.4,1.21-2.86,2.36-4.25,3.59s-2.7,2.54-4,3.87c-2.59,2.66-5.26,5.23-8,7.75s-5.54,4.92-8.48,7.21l-.07-.07c2.51-2.76,5.15-5.36,7.83-7.92s5.48-5,8.33-7.37c1.42-1.2,2.81-2.42,4.15-3.7s2.6-2.66,3.91-4a99.16,99.16,0,0,1,8.4-7.3Z"/><line class="a" x1="129.37" y1="30.21" x2="87.06" y2="63.24"/><path class="b" d="M129.4,30.25q-5,4.53-10.35,8.55c-1.81,1.32-3.66,2.58-5.45,3.92s-3.51,2.78-5.22,4.22Q103.27,51.29,98,55.4c-3.56,2.72-7.16,5.38-10.88,7.88L87,63.2c3.33-3,6.79-5.85,10.28-8.64s7.09-5.45,10.74-8.05c1.81-1.31,3.61-2.64,5.35-4s3.41-2.9,5.13-4.33q5.22-4.23,10.8-8Z"/><line class="a" x1="129.37" y1="27.05" x2="78.29" y2="62.68"/><path class="b" d="M129.39,27.09c-4.06,3.25-8.26,6.3-12.56,9.21-2.17,1.43-4.38,2.79-6.53,4.25s-4.24,3-6.32,4.54c-4.15,3.13-8.36,6.15-12.62,9.12s-8.61,5.81-13,8.51l0-.08c4.07-3.23,8.26-6.29,12.49-9.3s8.55-5.88,12.92-8.7c2.18-1.41,4.34-2.85,6.45-4.36s4.15-3.12,6.24-4.66c4.21-3,8.53-5.92,13-8.61Z"/><line class="a" x1="129.21" y1="23.89" x2="69.05" y2="62.4"/><path class="b" d="M129.24,23.93c-4.83,3.5-9.79,6.79-14.84,9.94-2.54,1.55-5.14,3-7.65,4.61s-5,3.22-7.47,4.89q-7.36,5.06-14.9,9.85c-5,3.17-10.12,6.28-15.3,9.22l0-.08c4.84-3.48,9.79-6.79,14.78-10S93.87,46,99,42.91c2.55-1.53,5.09-3.08,7.57-4.73s4.92-3.35,7.39-5c5-3.27,10-6.4,15.24-9.32Z"/><line class="a" x1="129.17" y1="20.73" x2="59.82" y2="61.9"/><path class="b" d="M129.19,20.77C123.59,24.49,117.86,28,112,31.38c-2.92,1.66-5.89,3.23-8.79,4.94s-5.77,3.44-8.62,5.23q-8.52,5.39-17.21,10.5T59.85,61.94l-.05-.09q8.43-5.54,17.09-10.69T94.35,41.08c2.94-1.65,5.86-3.3,8.72-5.06s5.69-3.58,8.55-5.35q8.61-5.25,17.52-10Z"/><line class="a" x1="129.15" y1="17.57" x2="50.59" y2="61.6"/><path class="b" d="M129.17,17.61q-9.57,6-19.46,11.33c-3.3,1.78-6.66,3.47-9.94,5.29s-6.53,3.69-9.77,5.6Q80.32,45.56,70.48,51T50.62,61.65l0-.09Q60.16,55.65,70,50.15t19.76-10.8c3.31-1.77,6.62-3.54,9.87-5.42s6.45-3.82,9.7-5.71q9.76-5.61,19.81-10.69Z"/><line class="a" x1="129.37" y1="14.41" x2="41.36" y2="61"/><path class="b" d="M129.39,14.46c-7.18,4.18-14.46,8.15-21.83,12-3.7,1.88-7.44,3.68-11.12,5.61s-7.32,3.9-11,5.91Q74.61,44,63.6,49.81T41.38,61.05l0-.09C48.53,56.8,55.79,52.8,63.12,48.9s14.7-7.71,22.11-11.43c3.71-1.87,7.41-3.75,11-5.74s7.25-4,10.89-6q11-5.93,22.17-11.32Z"/><line class="a" x1="129.26" y1="11.25" x2="32.13" y2="60.62"/><path class="b" d="M129.28,11.3Q117.37,17.92,105.16,24c-4.07,2-8.19,3.91-12.25,6s-8.08,4.13-12.09,6.26q-12,6.41-24.18,12.55T32.15,60.66l0-.09Q44,54,56.18,47.82T80.57,35.69c4.08-2,8.16-4,12.18-6.08s8-4.27,12-6.39q12.09-6.27,24.44-12Z"/><line class="a" x1="129.21" y1="8.09" x2="22.9" y2="60.18"/><path class="b" d="M129.23,8.14q-13.06,7-26.41,13.35c-4.46,2.11-9,4.13-13.4,6.29s-8.85,4.36-13.24,6.6Q63,41.15,49.7,47.62T22.92,60.23l-.05-.09Q36,53.21,49.25,46.7T75.93,33.89c4.47-2.1,8.93-4.2,13.34-6.42s8.78-4.5,13.18-6.73q13.24-6.61,26.74-12.69Z"/><line class="a" x1="129.26" y1="4.93" x2="13.67" y2="59.79"/><path class="b" d="M129.28,5Q115,12.29,100.54,19c-4.85,2.23-9.73,4.37-14.56,6.64s-9.62,4.59-14.4,7q-14.34,7.11-28.8,13.93T13.69,59.84l0-.09q14.25-7.28,28.7-14.14t29-13.49c4.85-2.22,9.7-4.44,14.5-6.77s9.55-4.73,14.34-7.08q14.4-7,29-13.38Z"/><path class="c" d="M132.79,73.13c-3.51,0-3.26,0-3.26,0s-1.13-.11-1.27.6S127,81.23,127,81.23h11.88s-.9-6.41-1.1-7.22-.53-.61-1.3-.88Z"/><path class="c" d="M139.26,83H126.45l.12-1.48a1.16,1.16,0,0,1,.4-.33c.24-.11,11.88,0,11.88,0a.39.39,0,0,1,.2.22C139.09,81.6,139.26,83,139.26,83Z"/><line class="c" x1="133.03" y1="81.19" x2="133.03" y2="83.01"/></svg>