<svg xmlns="http://www.w3.org/2000/svg" viewBox="0 0 258.88 85.08"><defs><style>.a,.c{fill:#009b72;}.b{fill:#231f20;}.c{stroke:#231f20;stroke-linecap:round;stroke-linejoin:round;}</style></defs><title>bridge-left</title><polygon class="a" points="130.6 73.13 123.72 73.13 125.47 2.46 130.96 2.52 130.6 73.13"/><path class="b" d="M130.64,73.17l-6.92.17a.21.21,0,0,1-.22-.2h0v0c0-5.89.11-11.78.24-17.67s.25-11.78.49-17.66.48-11.78.64-17.66.25-11.78.31-17.67a.29.29,0,0,1,.28-.28H131a.34.34,0,0,1,.34.34h0q.07,8.87,0,17.75c0,5.92,0,11.84-.1,17.75s-.19,11.78-.27,17.65l-.15,8.79Zm-.07-.08-.1-8.94-.06-8.87c0-5.89-.13-11.81-.1-17.65s0-11.71.07-17.55.12-11.7.23-17.56l.34.34-5.49-.12.29-.27c-.23,5.89-.43,11.77-.56,17.66S125,31.91,125,37.81s-.2,11.78-.39,17.66-.39,11.78-.64,17.67l-.21-.22Z"/><line class="a" x1="125.48" y1="4.93" x2="14.91" y2="68.63"/><path class="b" d="M125.5,5Q111.93,13.38,98,21.22C93.4,23.82,88.71,26.33,84.1,29S74.89,34.29,70.33,37Q56.64,45.21,42.81,53.15T14.93,68.67l0-.08q13.59-8.37,27.41-16.33T70.05,36.54c4.65-2.58,9.29-5.17,13.88-7.87s9.12-5.46,13.7-8.17q13.75-8.07,27.82-15.61Z"/><line class="a" x1="125.34" y1="8.09" x2="23.46" y2="68.48"/><path class="b" d="M125.36,8.14q-12.47,8-25.28,15.41c-4.28,2.46-8.6,4.83-12.86,7.34s-8.48,5-12.68,7.63Q61.94,46.31,49.2,53.83T23.49,68.52l0-.08q12.5-7.95,25.23-15.5T74.26,38.05c4.29-2.45,8.57-4.9,12.79-7.46s8.4-5.19,12.61-7.76c8.45-5.09,17-10,25.65-14.78Z"/><line class="a" x1="125.25" y1="11.25" x2="32.02" y2="68.35"/><path class="b" d="M125.28,11.29q-11.39,7.58-23.12,14.59c-3.92,2.32-7.89,4.56-11.78,6.93S82.62,37.58,78.78,40Q67.28,47.41,55.6,54.51T32.05,68.39l0-.09q11.4-7.53,23.06-14.67T78.49,39.57c3.93-2.31,7.85-4.63,11.71-7.06s7.68-4.91,11.53-7.34q11.59-7.23,23.5-14Z"/><line class="a" x1="125.09" y1="14.41" x2="40.58" y2="68.04"/><path class="b" d="M125.11,14.45c-6.86,4.76-13.85,9.31-20.93,13.72-3.55,2.18-7.16,4.28-10.69,6.5s-7,4.48-10.51,6.79Q72.57,48.39,62,55.07t-21.37,13L40.55,68q10.32-7.09,20.88-13.8T82.69,41c3.56-2.16,7.12-4.34,10.61-6.61s7-4.62,10.44-6.91c7-4.53,14.1-8.92,21.32-13.1Z"/><line class="a" x1="125.09" y1="17.57" x2="49.14" y2="67.92"/><path class="b" d="M125.11,17.61q-9.21,6.72-18.78,12.89c-3.2,2-6.46,4-9.63,6.09S90.38,40.81,87.26,43Q77.93,49.5,68.41,55.76T49.17,68l-.06-.09q9.24-6.68,18.73-13T87,42.52c3.21-2,6.41-4.07,9.55-6.21s6.23-4.35,9.36-6.5q9.43-6.39,19.19-12.28Z"/><line class="a" x1="124.99" y1="20.73" x2="57.7" y2="67.64"/><path class="b" d="M125,20.77c-5.42,4.19-11,8.18-16.62,12-2.84,1.9-5.73,3.72-8.55,5.66s-5.59,3.93-8.35,5.95Q83.25,50.5,74.82,56.33T57.73,67.68l-.06-.08c5.43-4.17,11-8.19,16.56-12.11s11.25-7.77,17-11.53c2.85-1.89,5.69-3.78,8.47-5.78s5.5-4.06,8.27-6.06c5.56-4,11.23-7.8,17-11.43Z"/><line class="a" x1="124.95" y1="23.89" x2="66.26" y2="67.42"/><path class="b" d="M125,23.93c-4.69,3.9-9.52,7.61-14.46,11.18-2.48,1.76-5,3.44-7.48,5.24S98.16,44,95.77,45.88C91,49.66,86.14,53.34,81.25,57s-9.88,7.12-15,10.49l-.06-.08c4.7-3.88,9.52-7.6,14.38-11.27s9.83-7.2,14.83-10.67c2.49-1.75,5-3.51,7.4-5.36s4.78-3.77,7.19-5.64q7.27-5.53,14.89-10.59Z"/><line class="a" x1="124.87" y1="27.05" x2="74.81" y2="67.07"/><path class="b" d="M124.9,27.09c-4,3.6-8.07,7-12.29,10.29-2.13,1.61-4.3,3.17-6.41,4.81S102,45.54,100,47.28c-4.05,3.48-8.18,6.87-12.35,10.2S79.21,64,74.85,67.11L74.78,67c4-3.58,8.07-7,12.21-10.38s8.39-6.62,12.68-9.8c2.14-1.6,4.26-3.23,6.33-4.92s4-3.48,6.09-5.2c4.13-3.39,8.36-6.65,12.74-9.72Z"/><line class="a" x1="124.79" y1="30.21" x2="83.67" y2="66.86"/><path class="b" d="M124.82,30.25c-3.2,3.3-6.56,6.43-10,9.43-1.76,1.48-3.57,2.89-5.3,4.39s-3.41,3.08-5.07,4.67c-3.3,3.19-6.68,6.3-10.1,9.35s-7,6-10.6,8.8l-.07-.07c3.21-3.29,6.56-6.43,10-9.52s6.89-6.06,10.45-9c1.77-1.46,3.52-2.95,5.21-4.5s3.31-3.19,5-4.77c3.38-3.11,6.87-6.09,10.52-8.89Z"/><line class="a" x1="124.71" y1="33.37" x2="91.93" y2="66.66"/><path class="b" d="M124.75,33.4A109.42,109.42,0,0,1,116.81,42c-1.42,1.34-2.88,2.63-4.28,4s-2.71,2.79-4,4.24c-2.6,2.91-5.28,5.73-8,8.5s-5.59,5.43-8.54,8l-.07-.07c2.5-3,5.15-5.86,7.85-8.67s5.51-5.5,8.38-8.14c1.42-1.32,2.83-2.67,4.17-4.08s2.6-2.9,3.92-4.34a109.23,109.23,0,0,1,8.45-8.07Z"/><line class="a" x1="124.56" y1="36.53" x2="100.49" y2="66.43"/><path class="b" d="M124.6,36.56a73.2,73.2,0,0,1-5.73,7.7c-1.06,1.2-2.18,2.36-3.21,3.58s-2,2.51-2.92,3.81c-1.86,2.61-3.81,5.14-5.82,7.64s-4.14,4.87-6.39,7.17l-.08-.07c1.76-2.69,3.68-5.25,5.64-7.77s4.07-4.94,6.22-7.31c1.07-1.2,2.12-2.41,3.1-3.67s1.86-2.61,2.81-3.9a74.58,74.58,0,0,1,6.3-7.24Z"/><line class="a" x1="124.56" y1="39.69" x2="109.05" y2="66.07"/><path class="b" d="M124.61,39.71A46.05,46.05,0,0,1,121,46.49c-.7,1.07-1.48,2.09-2.15,3.17A37.71,37.71,0,0,0,117,53c-1.13,2.29-2.36,4.52-3.65,6.72a71.46,71.46,0,0,1-4.3,6.35L109,66a71.84,71.84,0,0,1,3.46-6.84c1.29-2.19,2.64-4.36,4.1-6.46.72-1.06,1.42-2.12,2-3.24s1.13-2.29,1.72-3.43a46.72,46.72,0,0,1,4.19-6.41Z"/><line class="a" x1="130.77" y1="39.69" x2="144.96" y2="64.44"/><path class="b" d="M130.81,39.66a41.52,41.52,0,0,1,3.87,6c.53,1.07,1,2.17,1.55,3.22s1.21,2,1.87,3c1.35,2,2.59,4,3.77,6.06A62.57,62.57,0,0,1,145,64.42l-.08,0a62.8,62.8,0,0,1-4-5.95c-1.18-2.07-2.31-4.16-3.32-6.32-.52-1.07-1.06-2.14-1.68-3.15s-1.34-2-2-3a39.67,39.67,0,0,1-3.23-6.37Z"/><line class="a" x1="130.79" y1="36.53" x2="154.19" y2="64.08"/><path class="b" d="M130.83,36.5A65.35,65.35,0,0,1,137,43.15c.92,1.19,1.78,2.43,2.73,3.6s2,2.28,3,3.38c2.09,2.17,4.09,4.42,6.05,6.72s3.77,4.69,5.48,7.2l-.08.06c-2.19-2.09-4.23-4.31-6.22-6.57s-3.84-4.64-5.65-7.06c-.91-1.2-1.84-2.39-2.84-3.52s-2.09-2.17-3.12-3.27a67.56,67.56,0,0,1-5.57-7.13Z"/><line class="a" x1="130.8" y1="33.37" x2="163.42" y2="63.62"/><path class="b" d="M130.84,33.33a100.74,100.74,0,0,1,8.4,7.3c1.31,1.31,2.57,2.68,3.91,4s2.73,2.5,4.15,3.7c2.85,2.38,5.61,4.85,8.33,7.37s5.32,5.16,7.82,7.92l-.06.07c-2.94-2.29-5.73-4.73-8.49-7.21s-5.38-5.09-8-7.75c-1.3-1.33-2.63-2.63-4-3.87s-2.85-2.38-4.25-3.59a99,99,0,0,1-7.91-7.83Z"/><line class="a" x1="130.8" y1="30.21" x2="173.11" y2="63.24"/><path class="b" d="M130.84,30.17q5.59,3.73,10.8,8c1.71,1.43,3.39,2.92,5.13,4.33s3.54,2.73,5.35,4c3.65,2.6,7.21,5.3,10.74,8.05s6.95,5.64,10.28,8.64l-.06.08c-3.72-2.5-7.32-5.16-10.88-7.88s-7-5.56-10.41-8.46c-1.71-1.44-3.44-2.86-5.22-4.22s-3.64-2.6-5.45-3.92q-5.35-4-10.35-8.55Z"/><line class="a" x1="130.8" y1="27.05" x2="181.88" y2="62.68"/><path class="b" d="M130.83,27c4.45,2.69,8.77,5.58,13,8.61,2.09,1.54,4.13,3.14,6.24,4.66s4.27,2.95,6.45,4.36c4.37,2.82,8.66,5.73,12.92,8.7s8.42,6.07,12.49,9.3l-.06.08c-4.43-2.7-8.76-5.58-13-8.51s-8.47-6-12.62-9.12c-2.08-1.55-4.18-3.08-6.32-4.54s-4.36-2.82-6.53-4.25c-4.3-2.91-8.5-6-12.56-9.21Z"/><line class="a" x1="130.96" y1="23.89" x2="191.12" y2="62.4"/><path class="b" d="M131,23.85c5.2,2.92,10.27,6,15.24,9.32,2.47,1.66,4.89,3.4,7.39,5s5,3.2,7.57,4.73q7.68,4.58,15.18,9.41c5,3.25,9.94,6.56,14.78,10l0,.08c-5.19-2.94-10.26-6-15.3-9.22s-10-6.48-14.9-9.85c-2.46-1.67-4.93-3.33-7.47-4.89s-5.11-3.06-7.65-4.61c-5.05-3.15-10-6.44-14.84-9.94Z"/><line class="a" x1="131" y1="20.73" x2="200.35" y2="61.9"/><path class="b" d="M131,20.69q8.92,4.71,17.52,10c2.86,1.77,5.66,3.62,8.55,5.35s5.78,3.41,8.71,5.06q8.82,4.91,17.46,10.08t17.1,10.69l-.05.09q-8.91-4.75-17.57-9.89t-17.22-10.5c-2.84-1.79-5.7-3.56-8.61-5.23s-5.87-3.28-8.79-4.94C142.31,28,136.58,24.49,131,20.77Z"/><line class="a" x1="131.02" y1="17.57" x2="209.58" y2="61.6"/><path class="b" d="M131.05,17.53q10.06,5.05,19.81,10.69c3.25,1.89,6.44,3.87,9.71,5.71s6.55,3.65,9.86,5.42q10,5.26,19.76,10.8T209.6,61.56l0,.09q-10-5.1-19.86-10.61T170.17,39.83c-3.24-1.91-6.48-3.81-9.77-5.6s-6.64-3.51-9.94-5.29q-9.89-5.4-19.46-11.33Z"/><line class="a" x1="130.8" y1="14.41" x2="218.81" y2="61"/><path class="b" d="M130.83,14.37Q142.07,19.74,153,25.69c3.64,2,7.23,4.09,10.89,6s7.34,3.87,11,5.74q11.13,5.58,22.12,11.43c7.33,3.9,14.59,7.9,21.78,12.06l0,.09q-11.22-5.41-22.22-11.24T174.68,38c-3.63-2-7.26-4-11-5.91s-7.42-3.73-11.12-5.61c-7.37-3.82-14.65-7.79-21.83-12Z"/><line class="a" x1="130.91" y1="11.25" x2="228.04" y2="60.62"/><path class="b" d="M130.94,11.21q12.36,5.71,24.44,12c4,2.12,8,4.32,12,6.39s8.1,4.09,12.18,6.08Q191.87,41.62,204,47.82t24.07,12.75l0,.09q-12.36-5.76-24.49-11.93T179.35,36.18c-4-2.13-8-4.25-12.09-6.26s-8.18-4-12.25-6Q142.82,17.9,130.89,11.3Z"/><line class="a" x1="130.96" y1="8.09" x2="237.27" y2="60.18"/><path class="b" d="M131,8.05q13.52,6.06,26.74,12.69c4.4,2.23,8.76,4.55,13.18,6.73s8.87,4.32,13.33,6.42q13.41,6.27,26.69,12.81t26.37,13.44l0,.09q-13.5-6.1-26.78-12.61T184,34.38c-4.39-2.24-8.79-4.47-13.24-6.6s-8.94-4.18-13.4-6.29Q144,15.07,130.93,8.14Z"/><line class="a" x1="130.91" y1="4.93" x2="246.5" y2="59.79"/><path class="b" d="M130.94,4.89Q145.6,11.28,160,18.27c4.79,2.35,9.53,4.78,14.34,7.08s9.65,4.55,14.5,6.77q14.56,6.6,29,13.49t28.7,14.14l-.05.09q-14.64-6.44-29.09-13.3t-28.8-13.93c-4.78-2.36-9.57-4.71-14.4-6.95s-9.71-4.41-14.56-6.64q-14.49-6.75-28.74-14Z"/><path class="a" d="M127.38,73.13c3.51,0,3.26,0,3.26,0s1.13-.11,1.27.6,1.29,7.51,1.29,7.51H121.32s.9-6.41,1.1-7.22.53-.61,1.3-.88Z"/><path class="b" d="M127.38,73.08c.55,0,1.09,0,1.64,0l.81-.05.41,0h.33c-.06,0-.07,0-.12.15a.2.2,0,0,0,.09.22.52.52,0,0,0,.09,0h0l0-.41a1.72,1.72,0,0,1,1.31.25,1.15,1.15,0,0,1,.35.67l.14.55q.26,1.13.45,2.25c.25,1.51.38,3,.55,4.55v0a.2.2,0,0,1-.19.23h0a49.05,49.05,0,0,0-5.94,0c-2,.13-4,.19-5.94.23a.5.5,0,0,1-.5-.48v-.09c.19-1.5.39-3,.66-4.49.13-.75.26-1.5.43-2.23a2.32,2.32,0,0,1,.48-1.21,1.18,1.18,0,0,1,.72-.26,2.73,2.73,0,0,0,.51-.07h.09l1.83.14C126.16,73.06,126.77,73.07,127.38,73.08Zm0,.1c-.61,0-1.22,0-1.83.06l-1.83.14.08,0c-.35.17-.9.23-.9.34a3,3,0,0,0-.14.93c-.07.75-.16,1.5-.26,2.24-.18,1.48-.43,3-.69,4.43l-.49-.56c2,0,4,.1,5.94.23a51.18,51.18,0,0,0,5.94,0l-.22.26c-.35-1.49-.74-3-1-4.47-.14-.74-.24-1.5-.33-2.26-.06-.35,0-.85-.14-.93a1.19,1.19,0,0,0-.85-.28l0-.41h0a.12.12,0,0,1,.09,0,.21.21,0,0,1,.1.22c0,.12-.07.11-.13.14l-.07,0h-.2l-.21,0-.41,0-.81,0C128.47,73.19,127.93,73.19,127.38,73.18Z"/><path class="c" d="M120.91,83h12.81l-.12-1.48a1.16,1.16,0,0,0-.4-.33c-.24-.11-11.88,0-11.88,0a.42.42,0,0,0-.21.22C121.08,81.6,120.91,83,120.91,83Z"/><line class="c" x1="127.14" y1="81.19" x2="127.14" y2="83.01"/><path class="a" d="M261.63,59.08c2.69.2,6.29.5,11.64.69s121.18,5.85,148.1,6.66,95.49,2.48,95.49,2.48v1.32s-68.57-1.68-95.49-2.48-142.75-6.48-148.1-6.66-9.75-.54-11.64-.69h-2.92c-1.89.15-6.3.5-11.65.69S125.88,66.94,99,67.75,3.48,70.23,3.48,70.23V68.91S72.05,67.23,99,66.43,241.71,60,247.06,59.77s8.95-.49,11.65-.69Z"/><path class="b" d="M261.63,59c10.62.67,21.26,1.08,31.89,1.54L325.42,62l63.8,2.74,31.9,1.37,31.92.77c21.28.48,42.55,1.14,63.83,1.7a.38.38,0,0,1,.37.38v1.32a.38.38,0,0,1-.38.38h0L453,68.86,421.1,68l-31.9-1.48-63.79-2.86-31.9-1.4c-10.63-.47-21.26-.88-31.9-1.56h-2.88c-10.63.7-21.27,1.15-31.9,1.65l-31.89,1.49-63.8,2.94L99.25,68.2,67.33,69,3.49,70.72a.48.48,0,0,1-.5-.47V68.91a.48.48,0,0,1,.47-.48L67.3,66.78,99.22,66l31.9-1.36,63.8-2.73,31.9-1.37c10.63-.46,21.26-.86,31.88-1.53h2.93Zm0,.1h-2.92c-10.62.71-21.25,1.15-31.89,1.66l-31.89,1.49-63.79,3-31.9,1.51-31.91.91L3.49,69.4,4,68.91v1.32l-.5-.48L67.3,68.1l31.92-.83,31.89-1.43,63.8-2.79,31.9-1.38c10.63-.46,21.27-.87,31.88-1.54h3c10.61.7,21.25,1.14,31.88,1.64l31.89,1.47,63.8,2.87,31.89,1.38,31.92.79,63.84,1.57-.39.38V68.91l.37.38c-21.28-.54-42.56-1-63.84-1.62l-31.91-.9-31.9-1.5-63.79-3-31.9-1.49C282.88,60.29,272.25,59.84,261.63,59.13Z"/></svg>