<svg xmlns="http://www.w3.org/2000/svg" viewBox="0 0 335.79 336"><defs><style>.a{fill:#183982;}.b{fill:#49a4ea;}.c{fill:#df1f96;}.d{fill:#ff0005;}</style></defs><title>Artboard 2</title><rect class="a" y="2" width="6" height="6"/><rect class="a" y="8" width="6" height="6"/><rect class="a" y="14" width="6" height="6"/><rect class="a" y="20" width="6" height="6"/><rect class="b" y="32" width="6" height="6"/><rect class="b" y="40" width="6" height="6"/><rect class="b" y="48" width="6" height="6"/><rect class="b" y="56" width="6" height="6"/><rect class="a" y="24" width="6" height="6"/><rect class="a" x="32" y="27" width="6" height="6"/><rect class="a" x="41" y="36" width="6" height="6"/><rect class="a" x="50" y="45" width="6" height="6"/><rect class="a" x="84" y="78" width="6" height="6"/><rect class="a" x="84" y="86" width="6" height="6"/><rect class="a" x="76" y="86" width="6" height="6"/><rect class="a" x="76" y="78" width="6" height="6"/><rect class="a" x="84" y="70" width="6" height="6"/><rect class="c" x="92" y="70" width="6" height="6"/><rect class="d" x="92" y="78" width="6" height="6"/><rect class="c" x="100" y="70" width="6" height="6"/><rect class="c" x="108" y="70" width="6" height="6"/><rect class="a" x="84" y="92" width="6" height="6"/><rect class="a" x="84" y="98" width="6" height="6"/><rect class="a" x="84" y="104" width="6" height="6"/><rect class="a" x="58" y="104" width="6" height="6"/><rect class="a" x="67" y="95" width="6" height="6"/><rect class="a" x="70" y="78" width="6" height="6"/><rect class="a" x="64" y="78" width="6" height="6"/><rect class="a" x="58" y="78" width="6" height="6"/><rect class="a" x="52" y="78" width="6" height="6"/><rect class="a" x="46" y="78" width="6" height="6"/><rect class="a" x="40" y="78" width="6" height="6"/><rect class="a" x="34" y="78" width="6" height="6"/><rect class="d" x="34.08" y="88" width="6" height="6"/><rect class="d" x="25.08" y="88" width="6" height="6"/><rect class="d" x="16" y="88" width="6" height="6"/><rect class="a" x="28" y="78" width="6" height="6"/><rect class="a" x="22" y="78" width="6" height="6"/><rect class="a" x="32" y="27" width="6" height="6"/><rect class="a" x="41" y="36" width="6" height="6"/><rect class="a" x="84" y="64" width="6" height="6"/><rect class="a" x="84" y="58" width="6" height="6"/><rect class="a" x="84" y="52" width="6" height="6"/><rect class="a" x="50" y="45" width="6" height="6"/><rect class="a" x="84" y="46" width="6" height="6"/><rect class="a" x="84" y="40" width="6" height="6"/><rect class="a" x="84" y="34" width="6" height="6"/><rect class="a" x="84" y="28" width="6" height="6"/><rect class="b" x="84" y="116" width="6" height="6"/><rect class="b" x="84" y="124" width="6" height="6"/><rect class="b" x="84" y="132" width="6" height="6"/><rect class="b" x="84" y="140" width="6" height="6"/><rect class="c" x="116" y="70" width="6" height="6"/><rect class="c" x="124" y="70" width="6" height="6"/><rect class="c" x="132" y="70" width="6" height="6"/><rect class="c" x="140" y="70" width="6" height="6"/><rect class="a" x="84" y="20" width="6" height="6"/><rect class="a" x="16" y="78" width="6" height="6"/><rect class="a" x="84" y="108" width="6" height="6"/><rect class="a" x="116" y="111" width="6" height="6"/><rect class="a" x="125" y="120" width="6" height="6"/><rect class="a" x="134" y="129" width="6" height="6"/><rect class="a" x="168" y="162" width="6" height="6"/><rect class="a" x="168" y="170" width="6" height="6"/><rect class="a" x="160" y="170" width="6" height="6"/><rect class="a" x="160" y="162" width="6" height="6"/><rect class="a" x="168" y="154" width="6" height="6"/><rect class="c" x="176" y="154" width="6" height="6"/><rect class="d" x="176" y="162" width="6" height="6"/><rect class="c" x="184" y="154" width="6" height="6"/><rect class="c" x="192" y="154" width="6" height="6"/><rect class="a" x="168" y="176" width="6" height="6"/><rect class="a" x="168" y="182" width="6" height="6"/><rect class="a" x="168" y="188" width="6" height="6"/><rect class="a" x="142" y="188" width="6" height="6"/><rect class="a" x="151" y="179" width="6" height="6"/><rect class="a" x="154" y="162" width="6" height="6"/><rect class="a" x="148" y="162" width="6" height="6"/><rect class="a" x="142" y="162" width="6" height="6"/><rect class="a" x="136" y="162" width="6" height="6"/><rect class="a" x="130" y="162" width="6" height="6"/><rect class="a" x="124" y="162" width="6" height="6"/><rect class="a" x="118" y="162" width="6" height="6"/><rect class="d" x="118.08" y="172" width="6" height="6"/><rect class="d" x="109.08" y="172" width="6" height="6"/><rect class="d" x="100" y="172" width="6" height="6"/><rect class="a" x="112" y="162" width="6" height="6"/><rect class="a" x="106" y="162" width="6" height="6"/><rect class="a" x="116" y="111" width="6" height="6"/><rect class="a" x="125" y="120" width="6" height="6"/><rect class="a" x="168" y="148" width="6" height="6"/><rect class="a" x="168" y="142" width="6" height="6"/><rect class="a" x="168" y="136" width="6" height="6"/><rect class="a" x="134" y="129" width="6" height="6"/><rect class="a" x="168" y="130" width="6" height="6"/><rect class="a" x="168" y="124" width="6" height="6"/><rect class="a" x="168" y="118" width="6" height="6"/><rect class="a" x="168" y="112" width="6" height="6"/><rect class="b" x="168" y="200" width="6" height="6"/><rect class="b" x="168" y="208" width="6" height="6"/><rect class="b" x="168" y="216" width="6" height="6"/><rect class="b" x="168" y="224" width="6" height="6"/><rect class="c" x="200" y="154" width="6" height="6"/><rect class="c" x="208" y="154" width="6" height="6"/><rect class="c" x="216" y="154" width="6" height="6"/><rect class="c" x="224" y="154" width="6" height="6"/><rect class="a" x="168" y="104" width="6" height="6"/><rect class="a" x="100" y="162" width="6" height="6"/><rect class="a" x="168" y="192" width="6" height="6"/><rect class="a" x="200" y="195" width="6" height="6"/><rect class="a" x="209" y="204" width="6" height="6"/><rect class="a" x="218" y="213" width="6" height="6"/><rect class="a" x="252" y="246" width="6" height="6"/><rect class="a" x="252" y="254" width="6" height="6"/><rect class="a" x="244" y="254" width="6" height="6"/><rect class="a" x="244" y="246" width="6" height="6"/><rect class="a" x="252" y="238" width="6" height="6"/><rect class="c" x="260" y="238" width="6" height="6"/><rect class="d" x="260" y="246" width="6" height="6"/><rect class="c" x="268" y="238" width="6" height="6"/><rect class="c" x="276" y="238" width="6" height="6"/><rect class="a" x="252" y="260" width="6" height="6"/><rect class="a" x="252" y="266" width="6" height="6"/><rect class="a" x="252" y="272" width="6" height="6"/><rect class="a" x="226" y="272" width="6" height="6"/><rect class="a" x="235" y="263" width="6" height="6"/><rect class="a" x="238" y="246" width="6" height="6"/><rect class="a" x="232" y="246" width="6" height="6"/><rect class="a" x="226" y="246" width="6" height="6"/><rect class="a" x="220" y="246" width="6" height="6"/><rect class="a" x="214" y="246" width="6" height="6"/><rect class="a" x="208" y="246" width="6" height="6"/><rect class="a" x="202" y="246" width="6" height="6"/><rect class="d" x="202.08" y="256" width="6" height="6"/><rect class="d" x="193.08" y="256" width="6" height="6"/><rect class="d" x="184" y="256" width="6" height="6"/><rect class="a" x="196" y="246" width="6" height="6"/><rect class="a" x="190" y="246" width="6" height="6"/><rect class="a" x="200" y="195" width="6" height="6"/><rect class="a" x="209" y="204" width="6" height="6"/><rect class="a" x="252" y="232" width="6" height="6"/><rect class="a" x="252" y="226" width="6" height="6"/><rect class="a" x="252" y="220" width="6" height="6"/><rect class="a" x="218" y="213" width="6" height="6"/><rect class="a" x="252" y="214" width="6" height="6"/><rect class="a" x="252" y="208" width="6" height="6"/><rect class="a" x="252" y="202" width="6" height="6"/><rect class="a" x="252" y="196" width="6" height="6"/><rect class="b" x="252" y="284" width="6" height="6"/><rect class="b" x="252" y="292" width="6" height="6"/><rect class="b" x="252" y="300" width="6" height="6"/><rect class="b" x="252" y="308" width="6" height="6"/><rect class="c" x="284" y="238" width="6" height="6"/><rect class="c" x="292" y="238" width="6" height="6"/><rect class="c" x="300" y="238" width="6" height="6"/><rect class="c" x="308" y="238" width="6" height="6"/><rect class="a" x="252" y="188" width="6" height="6"/><rect class="a" x="184" y="246" width="6" height="6"/><rect class="a" x="252" y="276" width="6" height="6"/><rect class="a" x="284" y="279" width="6" height="6"/><rect class="a" x="293" y="288" width="6" height="6"/><rect class="a" x="302" y="297" width="6" height="6"/><rect class="a" x="294" y="120" width="6" height="6"/><rect class="a" x="294" y="128" width="6" height="6"/><rect class="a" x="286" y="128" width="6" height="6"/><rect class="a" x="286" y="120" width="6" height="6"/><rect class="a" x="294" y="112" width="6" height="6"/><rect class="c" x="302" y="112" width="6" height="6"/><rect class="d" x="302" y="120" width="6" height="6"/><rect class="c" x="310" y="112" width="6" height="6"/><rect class="c" x="318" y="112" width="6" height="6"/><rect class="a" x="294" y="134" width="6" height="6"/><rect class="a" x="294" y="140" width="6" height="6"/><rect class="a" x="294" y="146" width="6" height="6"/><rect class="a" x="268" y="146" width="6" height="6"/><rect class="a" x="277" y="137" width="6" height="6"/><rect class="a" x="280" y="120" width="6" height="6"/><rect class="a" x="274" y="120" width="6" height="6"/><rect class="a" x="268" y="120" width="6" height="6"/><rect class="a" x="262" y="120" width="6" height="6"/><rect class="a" x="256" y="120" width="6" height="6"/><rect class="a" x="250" y="120" width="6" height="6"/><rect class="a" x="244" y="120" width="6" height="6"/><rect class="d" x="244.08" y="130" width="6" height="6"/><rect class="d" x="235.08" y="130" width="6" height="6"/><rect class="d" x="226" y="130" width="6" height="6"/><rect class="a" x="238" y="120" width="6" height="6"/><rect class="a" x="232" y="120" width="6" height="6"/><rect class="a" x="242" y="69" width="6" height="6"/><rect class="a" x="251" y="78" width="6" height="6"/><rect class="a" x="294" y="106" width="6" height="6"/><rect class="a" x="294" y="100" width="6" height="6"/><rect class="a" x="294" y="94" width="6" height="6"/><rect class="a" x="260" y="87" width="6" height="6"/><rect class="a" x="294" y="88" width="6" height="6"/><rect class="a" x="294" y="82" width="6" height="6"/><rect class="a" x="294" y="76" width="6" height="6"/><rect class="a" x="294" y="70" width="6" height="6"/><rect class="b" x="294" y="158" width="6" height="6"/><rect class="b" x="294" y="166" width="6" height="6"/><rect class="b" x="294" y="174" width="6" height="6"/><rect class="b" x="294" y="182" width="6" height="6"/><rect class="c" x="326" y="112" width="6" height="6"/><rect class="c" x="334" y="112" width="6" height="6"/><rect class="a" x="294" y="62" width="6" height="6"/><rect class="a" x="226" y="120" width="6" height="6"/><rect class="a" x="294" y="150" width="6" height="6"/><rect class="a" x="326" y="153" width="6" height="6"/><rect class="a" x="335" y="162" width="6" height="6"/><rect class="a" x="334" y="204" width="6" height="6"/><rect class="a" x="328" y="204" width="6" height="6"/><rect class="d" x="328.08" y="214" width="6" height="6"/><rect class="d" x="319.08" y="214" width="6" height="6"/><rect class="d" x="310" y="214" width="6" height="6"/><rect class="a" x="322" y="204" width="6" height="6"/><rect class="a" x="316" y="204" width="6" height="6"/><rect class="a" x="326" y="153" width="6" height="6"/><rect class="a" x="335" y="162" width="6" height="6"/><rect class="a" x="310" y="204" width="6" height="6"/><rect class="b" x="126" y="-2" width="6" height="6"/><rect class="b" x="126" y="6" width="6" height="6"/><rect class="b" x="126" y="14" width="6" height="6"/><rect class="a" x="167" y="-6" width="6" height="6"/><rect class="a" x="176" y="3" width="6" height="6"/><rect class="a" x="210" y="36" width="6" height="6"/><rect class="a" x="210" y="44" width="6" height="6"/><rect class="a" x="202" y="44" width="6" height="6"/><rect class="a" x="202" y="36" width="6" height="6"/><rect class="a" x="210" y="28" width="6" height="6"/><rect class="c" x="218" y="28" width="6" height="6"/><rect class="d" x="218" y="36" width="6" height="6"/><rect class="c" x="226" y="28" width="6" height="6"/><rect class="c" x="234" y="28" width="6" height="6"/><rect class="a" x="210" y="50" width="6" height="6"/><rect class="a" x="210" y="56" width="6" height="6"/><rect class="a" x="210" y="62" width="6" height="6"/><rect class="a" x="184" y="62" width="6" height="6"/><rect class="a" x="193" y="53" width="6" height="6"/><rect class="a" x="196" y="36" width="6" height="6"/><rect class="a" x="190" y="36" width="6" height="6"/><rect class="a" x="184" y="36" width="6" height="6"/><rect class="a" x="178" y="36" width="6" height="6"/><rect class="a" x="172" y="36" width="6" height="6"/><rect class="a" x="166" y="36" width="6" height="6"/><rect class="a" x="160" y="36" width="6" height="6"/><rect class="d" x="160.08" y="46" width="6" height="6"/><rect class="d" x="151.08" y="46" width="6" height="6"/><rect class="d" x="142" y="46" width="6" height="6"/><rect class="a" x="154" y="36" width="6" height="6"/><rect class="a" x="148" y="36" width="6" height="6"/><rect class="a" x="167" y="-6" width="6" height="6"/><rect class="a" x="210" y="22" width="6" height="6"/><rect class="a" x="210" y="16" width="6" height="6"/><rect class="a" x="210" y="10" width="6" height="6"/><rect class="a" x="176" y="3" width="6" height="6"/><rect class="a" x="210" y="4" width="6" height="6"/><rect class="a" x="210" y="-2" width="6" height="6"/><rect class="b" x="210" y="74" width="6" height="6"/><rect class="b" x="210" y="82" width="6" height="6"/><rect class="b" x="210" y="90" width="6" height="6"/><rect class="b" x="210" y="98" width="6" height="6"/><rect class="c" x="242" y="28" width="6" height="6"/><rect class="c" x="250" y="28" width="6" height="6"/><rect class="c" x="258" y="28" width="6" height="6"/><rect class="c" x="266" y="28" width="6" height="6"/><rect class="a" x="142" y="36" width="6" height="6"/><rect class="a" x="210" y="66" width="6" height="6"/><rect class="a" x="242" y="69" width="6" height="6"/><rect class="a" x="251" y="78" width="6" height="6"/><rect class="a" x="260" y="87" width="6" height="6"/><rect class="a" x="294" y="120" width="6" height="6"/><rect class="a" x="294" y="128" width="6" height="6"/><rect class="a" x="286" y="128" width="6" height="6"/><rect class="a" x="286" y="120" width="6" height="6"/><rect class="a" x="294" y="112" width="6" height="6"/><rect class="c" x="302" y="112" width="6" height="6"/><rect class="d" x="302" y="120" width="6" height="6"/><rect class="c" x="310" y="112" width="6" height="6"/><rect class="c" x="318" y="112" width="6" height="6"/><rect class="a" x="294" y="134" width="6" height="6"/><rect class="a" x="294" y="140" width="6" height="6"/><rect class="a" x="294" y="146" width="6" height="6"/><rect class="a" x="268" y="146" width="6" height="6"/><rect class="a" x="277" y="137" width="6" height="6"/><rect class="a" x="280" y="120" width="6" height="6"/><rect class="a" x="274" y="120" width="6" height="6"/><rect class="a" x="268" y="120" width="6" height="6"/><rect class="a" x="262" y="120" width="6" height="6"/><rect class="a" x="256" y="120" width="6" height="6"/><rect class="a" x="250" y="120" width="6" height="6"/><rect class="a" x="244" y="120" width="6" height="6"/><rect class="d" x="244.08" y="130" width="6" height="6"/><rect class="d" x="235.08" y="130" width="6" height="6"/><rect class="d" x="226" y="130" width="6" height="6"/><rect class="a" x="238" y="120" width="6" height="6"/><rect class="a" x="232" y="120" width="6" height="6"/><rect class="a" x="242" y="69" width="6" height="6"/><rect class="a" x="251" y="78" width="6" height="6"/><rect class="a" x="294" y="106" width="6" height="6"/><rect class="a" x="294" y="100" width="6" height="6"/><rect class="a" x="294" y="94" width="6" height="6"/><rect class="a" x="260" y="87" width="6" height="6"/><rect class="a" x="294" y="88" width="6" height="6"/><rect class="a" x="294" y="82" width="6" height="6"/><rect class="a" x="294" y="76" width="6" height="6"/><rect class="a" x="294" y="70" width="6" height="6"/><rect class="b" x="294" y="158" width="6" height="6"/><rect class="b" x="294" y="166" width="6" height="6"/><rect class="b" x="294" y="174" width="6" height="6"/><rect class="b" x="294" y="182" width="6" height="6"/><rect class="c" x="326" y="112" width="6" height="6"/><rect class="c" x="334" y="112" width="6" height="6"/><rect class="a" x="294" y="62" width="6" height="6"/><rect class="a" x="226" y="120" width="6" height="6"/><rect class="a" x="294" y="150" width="6" height="6"/><rect class="a" x="326" y="153" width="6" height="6"/><rect class="a" x="335" y="162" width="6" height="6"/><rect class="a" x="334" y="204" width="6" height="6"/><rect class="a" x="328" y="204" width="6" height="6"/><rect class="d" x="328.08" y="214" width="6" height="6"/><rect class="d" x="319.08" y="214" width="6" height="6"/><rect class="d" x="310" y="214" width="6" height="6"/><rect class="a" x="322" y="204" width="6" height="6"/><rect class="a" x="316" y="204" width="6" height="6"/><rect class="a" x="326" y="153" width="6" height="6"/><rect class="a" x="335" y="162" width="6" height="6"/><rect class="a" x="310" y="204" width="6" height="6"/><rect class="a" x="328" y="2" width="6" height="6"/><rect class="a" x="328" y="-6" width="6" height="6"/><rect class="a" x="310" y="20" width="6" height="6"/><rect class="a" x="319" y="11" width="6" height="6"/><rect class="a" x="322" y="-6" width="6" height="6"/><rect class="a" x="316" y="-6" width="6" height="6"/><rect class="a" x="310" y="-6" width="6" height="6"/><rect class="a" x="304" y="-6" width="6" height="6"/><rect class="a" x="298" y="-6" width="6" height="6"/><rect class="a" x="292" y="-6" width="6" height="6"/><rect class="a" x="286" y="-6" width="6" height="6"/><rect class="d" x="286.08" y="4" width="6" height="6"/><rect class="d" x="277.08" y="4" width="6" height="6"/><rect class="d" x="268" y="4" width="6" height="6"/><rect class="a" x="280" y="-6" width="6" height="6"/><rect class="a" x="274" y="-6" width="6" height="6"/><rect class="a" x="268" y="-6" width="6" height="6"/><rect class="a" y="330" width="6" height="6"/><rect class="a" y="322" width="6" height="6"/><rect class="c" x="8" y="322" width="6" height="6"/><rect class="d" x="8" y="330" width="6" height="6"/><rect class="c" x="16" y="322" width="6" height="6"/><rect class="c" x="24" y="322" width="6" height="6"/><rect class="a" y="316" width="6" height="6"/><rect class="a" y="310" width="6" height="6"/><rect class="a" y="304" width="6" height="6"/><rect class="a" y="298" width="6" height="6"/><rect class="a" y="292" width="6" height="6"/><rect class="a" y="286" width="6" height="6"/><rect class="a" y="280" width="6" height="6"/><rect class="c" x="32" y="322" width="6" height="6"/><rect class="c" x="40" y="322" width="6" height="6"/><rect class="c" x="48" y="322" width="6" height="6"/><rect class="c" x="56" y="322" width="6" height="6"/><rect class="a" y="272" width="6" height="6"/><rect class="a" x="158" y="321" width="6" height="6"/><rect class="a" x="167" y="330" width="6" height="6"/><rect class="a" x="210" y="334" width="6" height="6"/><rect class="a" x="210" y="328" width="6" height="6"/><rect class="a" x="210" y="322" width="6" height="6"/><rect class="a" x="210" y="314" width="6" height="6"/><rect class="a" x="42" y="204" width="6" height="6"/><rect class="a" x="42" y="212" width="6" height="6"/><rect class="a" x="34" y="212" width="6" height="6"/><rect class="a" x="34" y="204" width="6" height="6"/><rect class="a" x="42" y="196" width="6" height="6"/><rect class="c" x="50" y="196" width="6" height="6"/><rect class="d" x="50" y="204" width="6" height="6"/><rect class="c" x="58" y="196" width="6" height="6"/><rect class="c" x="66" y="196" width="6" height="6"/><rect class="a" x="42" y="218" width="6" height="6"/><rect class="a" x="42" y="224" width="6" height="6"/><rect class="a" x="42" y="230" width="6" height="6"/><rect class="a" x="16" y="230" width="6" height="6"/><rect class="a" x="25" y="221" width="6" height="6"/><rect class="a" x="28" y="204" width="6" height="6"/><rect class="a" x="22" y="204" width="6" height="6"/><rect class="a" x="16" y="204" width="6" height="6"/><rect class="a" x="10" y="204" width="6" height="6"/><rect class="a" x="4" y="204" width="6" height="6"/><rect class="a" x="-2" y="204" width="6" height="6"/><rect class="a" x="-1" y="162" width="6" height="6"/><rect class="a" x="42" y="190" width="6" height="6"/><rect class="a" x="42" y="184" width="6" height="6"/><rect class="a" x="42" y="178" width="6" height="6"/><rect class="a" x="8" y="171" width="6" height="6"/><rect class="a" x="42" y="172" width="6" height="6"/><rect class="a" x="42" y="166" width="6" height="6"/><rect class="a" x="42" y="160" width="6" height="6"/><rect class="a" x="42" y="154" width="6" height="6"/><rect class="b" x="42" y="242" width="6" height="6"/><rect class="b" x="42" y="250" width="6" height="6"/><rect class="b" x="42" y="258" width="6" height="6"/><rect class="b" x="42" y="266" width="6" height="6"/><rect class="c" x="74" y="196" width="6" height="6"/><rect class="c" x="82" y="196" width="6" height="6"/><rect class="c" x="90" y="196" width="6" height="6"/><rect class="c" x="98" y="196" width="6" height="6"/><rect class="a" x="42" y="146" width="6" height="6"/><rect class="a" x="42" y="234" width="6" height="6"/><rect class="a" x="74" y="237" width="6" height="6"/><rect class="a" x="83" y="246" width="6" height="6"/><rect class="a" x="92" y="255" width="6" height="6"/><rect class="a" x="126" y="288" width="6" height="6"/><rect class="a" x="126" y="296" width="6" height="6"/><rect class="a" x="118" y="296" width="6" height="6"/><rect class="a" x="118" y="288" width="6" height="6"/><rect class="a" x="126" y="280" width="6" height="6"/><rect class="c" x="134" y="280" width="6" height="6"/><rect class="d" x="134" y="288" width="6" height="6"/><rect class="c" x="142" y="280" width="6" height="6"/><rect class="c" x="150" y="280" width="6" height="6"/><rect class="a" x="126" y="302" width="6" height="6"/><rect class="a" x="126" y="308" width="6" height="6"/><rect class="a" x="126" y="314" width="6" height="6"/><rect class="a" x="100" y="314" width="6" height="6"/><rect class="a" x="109" y="305" width="6" height="6"/><rect class="a" x="112" y="288" width="6" height="6"/><rect class="a" x="106" y="288" width="6" height="6"/><rect class="a" x="100" y="288" width="6" height="6"/><rect class="a" x="94" y="288" width="6" height="6"/><rect class="a" x="88" y="288" width="6" height="6"/><rect class="a" x="82" y="288" width="6" height="6"/><rect class="a" x="76" y="288" width="6" height="6"/><rect class="d" x="76.08" y="298" width="6" height="6"/><rect class="d" x="67.08" y="298" width="6" height="6"/><rect class="d" x="58" y="298" width="6" height="6"/><rect class="a" x="70" y="288" width="6" height="6"/><rect class="a" x="64" y="288" width="6" height="6"/><rect class="a" x="74" y="237" width="6" height="6"/><rect class="a" x="83" y="246" width="6" height="6"/><rect class="a" x="126" y="274" width="6" height="6"/><rect class="a" x="126" y="268" width="6" height="6"/><rect class="a" x="126" y="262" width="6" height="6"/><rect class="a" x="92" y="255" width="6" height="6"/><rect class="a" x="126" y="256" width="6" height="6"/><rect class="a" x="126" y="250" width="6" height="6"/><rect class="a" x="126" y="244" width="6" height="6"/><rect class="a" x="126" y="238" width="6" height="6"/><rect class="b" x="126" y="326" width="6" height="6"/><rect class="b" x="126" y="334" width="6" height="6"/><rect class="c" x="158" y="280" width="6" height="6"/><rect class="c" x="166" y="280" width="6" height="6"/><rect class="c" x="174" y="280" width="6" height="6"/><rect class="c" x="182" y="280" width="6" height="6"/><rect class="a" x="126" y="230" width="6" height="6"/><rect class="a" x="58" y="288" width="6" height="6"/><rect class="a" x="126" y="318" width="6" height="6"/><rect class="a" x="158" y="321" width="6" height="6"/><rect class="a" x="167" y="330" width="6" height="6"/><rect class="a" x="158" y="321" width="6" height="6"/><rect class="a" x="167" y="330" width="6" height="6"/><rect class="a" x="210" y="334" width="6" height="6"/><rect class="a" x="210" y="328" width="6" height="6"/><rect class="a" x="210" y="322" width="6" height="6"/><rect class="a" x="210" y="314" width="6" height="6"/><rect class="a" x="328" y="330" width="6" height="6"/><rect class="a" x="322" y="330" width="6" height="6"/><rect class="a" x="316" y="330" width="6" height="6"/><rect class="a" x="310" y="330" width="6" height="6"/><rect class="a" x="304" y="330" width="6" height="6"/><rect class="a" x="298" y="330" width="6" height="6"/><rect class="a" x="292" y="330" width="6" height="6"/><rect class="a" x="286" y="330" width="6" height="6"/><rect class="a" x="280" y="330" width="6" height="6"/><rect class="a" x="274" y="330" width="6" height="6"/><rect class="a" x="284" y="279" width="6" height="6"/><rect class="a" x="293" y="288" width="6" height="6"/><rect class="a" x="302" y="297" width="6" height="6"/><rect class="a" x="268" y="330" width="6" height="6"/><rect class="a" y="2" width="6" height="6"/><rect class="a" y="8" width="6" height="6"/><rect class="a" y="14" width="6" height="6"/><rect class="a" y="20" width="6" height="6"/><rect class="b" y="32" width="6" height="6"/><rect class="b" y="40" width="6" height="6"/><rect class="b" y="48" width="6" height="6"/><rect class="b" y="56" width="6" height="6"/><rect class="a" y="24" width="6" height="6"/><rect class="a" x="32" y="27" width="6" height="6"/><rect class="a" x="41" y="36" width="6" height="6"/><rect class="a" x="50" y="45" width="6" height="6"/><rect class="a" x="84" y="78" width="6" height="6"/><rect class="a" x="84" y="86" width="6" height="6"/><rect class="a" x="76" y="86" width="6" height="6"/><rect class="a" x="76" y="78" width="6" height="6"/><rect class="a" x="84" y="70" width="6" height="6"/><rect class="c" x="92" y="70" width="6" height="6"/><rect class="d" x="92" y="78" width="6" height="6"/><rect class="c" x="100" y="70" width="6" height="6"/><rect class="c" x="108" y="70" width="6" height="6"/><rect class="a" x="84" y="92" width="6" height="6"/><rect class="a" x="84" y="98" width="6" height="6"/><rect class="a" x="84" y="104" width="6" height="6"/><rect class="a" x="58" y="104" width="6" height="6"/><rect class="a" x="67" y="95" width="6" height="6"/><rect class="a" x="70" y="78" width="6" height="6"/><rect class="a" x="64" y="78" width="6" height="6"/><rect class="a" x="58" y="78" width="6" height="6"/><rect class="a" x="52" y="78" width="6" height="6"/><rect class="a" x="46" y="78" width="6" height="6"/><rect class="a" x="40" y="78" width="6" height="6"/><rect class="a" x="34" y="78" width="6" height="6"/><rect class="d" x="34.08" y="88" width="6" height="6"/><rect class="d" x="25.08" y="88" width="6" height="6"/><rect class="d" x="16" y="88" width="6" height="6"/><rect class="a" x="28" y="78" width="6" height="6"/><rect class="a" x="22" y="78" width="6" height="6"/><rect class="a" x="32" y="27" width="6" height="6"/><rect class="a" x="41" y="36" width="6" height="6"/><rect class="a" x="84" y="64" width="6" height="6"/><rect class="a" x="84" y="58" width="6" height="6"/><rect class="a" x="84" y="52" width="6" height="6"/><rect class="a" x="50" y="45" width="6" height="6"/><rect class="a" x="84" y="46" width="6" height="6"/><rect class="a" x="84" y="40" width="6" height="6"/><rect class="a" x="84" y="34" width="6" height="6"/><rect class="a" x="84" y="28" width="6" height="6"/><rect class="b" x="84" y="116" width="6" height="6"/><rect class="b" x="84" y="124" width="6" height="6"/><rect class="b" x="84" y="132" width="6" height="6"/><rect class="b" x="84" y="140" width="6" height="6"/><rect class="c" x="116" y="70" width="6" height="6"/><rect class="c" x="124" y="70" width="6" height="6"/><rect class="c" x="132" y="70" width="6" height="6"/><rect class="c" x="140" y="70" width="6" height="6"/><rect class="a" x="84" y="20" width="6" height="6"/><rect class="a" x="16" y="78" width="6" height="6"/><rect class="a" x="84" y="108" width="6" height="6"/><rect class="a" x="116" y="111" width="6" height="6"/><rect class="a" x="125" y="120" width="6" height="6"/><rect class="a" x="134" y="129" width="6" height="6"/><rect class="a" x="168" y="162" width="6" height="6"/><rect class="a" x="168" y="170" width="6" height="6"/><rect class="a" x="160" y="170" width="6" height="6"/><rect class="a" x="160" y="162" width="6" height="6"/><rect class="a" x="168" y="154" width="6" height="6"/><rect class="c" x="176" y="154" width="6" height="6"/><rect class="d" x="176" y="162" width="6" height="6"/><rect class="c" x="184" y="154" width="6" height="6"/><rect class="c" x="192" y="154" width="6" height="6"/><rect class="a" x="168" y="176" width="6" height="6"/><rect class="a" x="168" y="182" width="6" height="6"/><rect class="a" x="168" y="188" width="6" height="6"/><rect class="a" x="142" y="188" width="6" height="6"/><rect class="a" x="151" y="179" width="6" height="6"/><rect class="a" x="154" y="162" width="6" height="6"/><rect class="a" x="148" y="162" width="6" height="6"/><rect class="a" x="142" y="162" width="6" height="6"/><rect class="a" x="136" y="162" width="6" height="6"/><rect class="a" x="130" y="162" width="6" height="6"/><rect class="a" x="124" y="162" width="6" height="6"/><rect class="a" x="118" y="162" width="6" height="6"/><rect class="d" x="118.08" y="172" width="6" height="6"/><rect class="d" x="109.08" y="172" width="6" height="6"/><rect class="d" x="100" y="172" width="6" height="6"/><rect class="a" x="112" y="162" width="6" height="6"/><rect class="a" x="106" y="162" width="6" height="6"/><rect class="a" x="116" y="111" width="6" height="6"/><rect class="a" x="125" y="120" width="6" height="6"/><rect class="a" x="168" y="148" width="6" height="6"/><rect class="a" x="168" y="142" width="6" height="6"/><rect class="a" x="168" y="136" width="6" height="6"/><rect class="a" x="134" y="129" width="6" height="6"/><rect class="a" x="168" y="130" width="6" height="6"/><rect class="a" x="168" y="124" width="6" height="6"/><rect class="a" x="168" y="118" width="6" height="6"/><rect class="a" x="168" y="112" width="6" height="6"/><rect class="b" x="168" y="200" width="6" height="6"/><rect class="b" x="168" y="208" width="6" height="6"/><rect class="b" x="168" y="216" width="6" height="6"/><rect class="b" x="168" y="224" width="6" height="6"/><rect class="c" x="200" y="154" width="6" height="6"/><rect class="c" x="208" y="154" width="6" height="6"/><rect class="c" x="216" y="154" width="6" height="6"/><rect class="c" x="224" y="154" width="6" height="6"/><rect class="a" x="168" y="104" width="6" height="6"/><rect class="a" x="100" y="162" width="6" height="6"/><rect class="a" x="168" y="192" width="6" height="6"/><rect class="a" x="200" y="195" width="6" height="6"/><rect class="a" x="209" y="204" width="6" height="6"/><rect class="a" x="218" y="213" width="6" height="6"/><rect class="a" x="252" y="246" width="6" height="6"/><rect class="a" x="252" y="254" width="6" height="6"/><rect class="a" x="244" y="254" width="6" height="6"/><rect class="a" x="244" y="246" width="6" height="6"/><rect class="a" x="252" y="238" width="6" height="6"/><rect class="c" x="260" y="238" width="6" height="6"/><rect class="d" x="260" y="246" width="6" height="6"/><rect class="c" x="268" y="238" width="6" height="6"/><rect class="c" x="276" y="238" width="6" height="6"/><rect class="a" x="252" y="260" width="6" height="6"/><rect class="a" x="252" y="266" width="6" height="6"/><rect class="a" x="252" y="272" width="6" height="6"/><rect class="a" x="226" y="272" width="6" height="6"/><rect class="a" x="235" y="263" width="6" height="6"/><rect class="a" x="238" y="246" width="6" height="6"/><rect class="a" x="232" y="246" width="6" height="6"/><rect class="a" x="226" y="246" width="6" height="6"/><rect class="a" x="220" y="246" width="6" height="6"/><rect class="a" x="214" y="246" width="6" height="6"/><rect class="a" x="208" y="246" width="6" height="6"/><rect class="a" x="202" y="246" width="6" height="6"/><rect class="d" x="202.08" y="256" width="6" height="6"/><rect class="d" x="193.08" y="256" width="6" height="6"/><rect class="d" x="184" y="256" width="6" height="6"/><rect class="a" x="196" y="246" width="6" height="6"/><rect class="a" x="190" y="246" width="6" height="6"/><rect class="a" x="200" y="195" width="6" height="6"/><rect class="a" x="209" y="204" width="6" height="6"/><rect class="a" x="252" y="232" width="6" height="6"/><rect class="a" x="252" y="226" width="6" height="6"/><rect class="a" x="252" y="220" width="6" height="6"/><rect class="a" x="218" y="213" width="6" height="6"/><rect class="a" x="252" y="214" width="6" height="6"/><rect class="a" x="252" y="208" width="6" height="6"/><rect class="a" x="252" y="202" width="6" height="6"/><rect class="a" x="252" y="196" width="6" height="6"/><rect class="b" x="252" y="284" width="6" height="6"/><rect class="b" x="252" y="292" width="6" height="6"/><rect class="b" x="252" y="300" width="6" height="6"/><rect class="b" x="252" y="308" width="6" height="6"/><rect class="c" x="284" y="238" width="6" height="6"/><rect class="c" x="292" y="238" width="6" height="6"/><rect class="c" x="300" y="238" width="6" height="6"/><rect class="c" x="308" y="238" width="6" height="6"/><rect class="a" x="252" y="188" width="6" height="6"/><rect class="a" x="184" y="246" width="6" height="6"/><rect class="a" x="252" y="276" width="6" height="6"/><rect class="a" x="284" y="279" width="6" height="6"/><rect class="a" x="293" y="288" width="6" height="6"/><rect class="a" x="302" y="297" width="6" height="6"/><rect class="c" x="-2" y="112" width="6" height="6"/><rect class="c" x="6" y="112" width="6" height="6"/><rect class="c" x="14" y="112" width="6" height="6"/><rect class="a" x="-1" y="162" width="6" height="6"/><rect class="a" x="8" y="171" width="6" height="6"/><rect class="a" x="42" y="204" width="6" height="6"/><rect class="a" x="42" y="212" width="6" height="6"/><rect class="a" x="34" y="212" width="6" height="6"/><rect class="a" x="34" y="204" width="6" height="6"/><rect class="a" x="42" y="196" width="6" height="6"/><rect class="c" x="50" y="196" width="6" height="6"/><rect class="d" x="50" y="204" width="6" height="6"/><rect class="c" x="58" y="196" width="6" height="6"/><rect class="c" x="66" y="196" width="6" height="6"/><rect class="a" x="42" y="218" width="6" height="6"/><rect class="a" x="42" y="224" width="6" height="6"/><rect class="a" x="42" y="230" width="6" height="6"/><rect class="a" x="16" y="230" width="6" height="6"/><rect class="a" x="25" y="221" width="6" height="6"/><rect class="a" x="28" y="204" width="6" height="6"/><rect class="a" x="22" y="204" width="6" height="6"/><rect class="a" x="16" y="204" width="6" height="6"/><rect class="a" x="10" y="204" width="6" height="6"/><rect class="a" x="4" y="204" width="6" height="6"/><rect class="a" x="-2" y="204" width="6" height="6"/><rect class="a" x="-1" y="162" width="6" height="6"/><rect class="a" x="42" y="190" width="6" height="6"/><rect class="a" x="42" y="184" width="6" height="6"/><rect class="a" x="42" y="178" width="6" height="6"/><rect class="a" x="8" y="171" width="6" height="6"/><rect class="a" x="42" y="172" width="6" height="6"/><rect class="a" x="42" y="166" width="6" height="6"/><rect class="a" x="42" y="160" width="6" height="6"/><rect class="a" x="42" y="154" width="6" height="6"/><rect class="b" x="42" y="242" width="6" height="6"/><rect class="b" x="42" y="250" width="6" height="6"/><rect class="b" x="42" y="258" width="6" height="6"/><rect class="b" x="42" y="266" width="6" height="6"/><rect class="c" x="74" y="196" width="6" height="6"/><rect class="c" x="82" y="196" width="6" height="6"/><rect class="c" x="90" y="196" width="6" height="6"/><rect class="c" x="98" y="196" width="6" height="6"/><rect class="a" x="42" y="146" width="6" height="6"/><rect class="a" x="42" y="234" width="6" height="6"/><rect class="a" x="74" y="237" width="6" height="6"/><rect class="a" x="83" y="246" width="6" height="6"/><rect class="a" x="92" y="255" width="6" height="6"/><rect class="a" x="126" y="288" width="6" height="6"/><rect class="a" x="126" y="296" width="6" height="6"/><rect class="a" x="118" y="296" width="6" height="6"/><rect class="a" x="118" y="288" width="6" height="6"/><rect class="a" x="126" y="280" width="6" height="6"/><rect class="c" x="134" y="280" width="6" height="6"/><rect class="d" x="134" y="288" width="6" height="6"/><rect class="c" x="142" y="280" width="6" height="6"/><rect class="c" x="150" y="280" width="6" height="6"/><rect class="a" x="126" y="302" width="6" height="6"/><rect class="a" x="126" y="308" width="6" height="6"/><rect class="a" x="126" y="314" width="6" height="6"/><rect class="a" x="100" y="314" width="6" height="6"/><rect class="a" x="109" y="305" width="6" height="6"/><rect class="a" x="112" y="288" width="6" height="6"/><rect class="a" x="106" y="288" width="6" height="6"/><rect class="a" x="100" y="288" width="6" height="6"/><rect class="a" x="94" y="288" width="6" height="6"/><rect class="a" x="88" y="288" width="6" height="6"/><rect class="a" x="82" y="288" width="6" height="6"/><rect class="a" x="76" y="288" width="6" height="6"/><rect class="d" x="76.08" y="298" width="6" height="6"/><rect class="d" x="67.08" y="298" width="6" height="6"/><rect class="d" x="58" y="298" width="6" height="6"/><rect class="a" x="70" y="288" width="6" height="6"/><rect class="a" x="64" y="288" width="6" height="6"/><rect class="a" x="74" y="237" width="6" height="6"/><rect class="a" x="83" y="246" width="6" height="6"/><rect class="a" x="126" y="274" width="6" height="6"/><rect class="a" x="126" y="268" width="6" height="6"/><rect class="a" x="126" y="262" width="6" height="6"/><rect class="a" x="92" y="255" width="6" height="6"/><rect class="a" x="126" y="256" width="6" height="6"/><rect class="a" x="126" y="250" width="6" height="6"/><rect class="a" x="126" y="244" width="6" height="6"/><rect class="a" x="126" y="238" width="6" height="6"/><rect class="b" x="126" y="326" width="6" height="6"/><rect class="b" x="126" y="334" width="6" height="6"/><rect class="c" x="158" y="280" width="6" height="6"/><rect class="c" x="166" y="280" width="6" height="6"/><rect class="c" x="174" y="280" width="6" height="6"/><rect class="c" x="182" y="280" width="6" height="6"/><rect class="a" x="126" y="230" width="6" height="6"/><rect class="a" x="58" y="288" width="6" height="6"/><rect class="a" x="126" y="318" width="6" height="6"/><rect class="a" x="158" y="321" width="6" height="6"/><rect class="a" x="167" y="330" width="6" height="6"/><rect class="b" x="126" y="-2" width="6" height="6"/><rect class="b" x="126" y="6" width="6" height="6"/><rect class="b" x="126" y="14" width="6" height="6"/><rect class="a" x="167" y="-6" width="6" height="6"/><rect class="a" x="176" y="3" width="6" height="6"/><rect class="a" x="210" y="36" width="6" height="6"/><rect class="a" x="210" y="44" width="6" height="6"/><rect class="a" x="202" y="44" width="6" height="6"/><rect class="a" x="202" y="36" width="6" height="6"/><rect class="a" x="210" y="28" width="6" height="6"/><rect class="c" x="218" y="28" width="6" height="6"/><rect class="d" x="218" y="36" width="6" height="6"/><rect class="c" x="226" y="28" width="6" height="6"/><rect class="c" x="234" y="28" width="6" height="6"/><rect class="a" x="210" y="50" width="6" height="6"/><rect class="a" x="210" y="56" width="6" height="6"/><rect class="a" x="210" y="62" width="6" height="6"/><rect class="a" x="184" y="62" width="6" height="6"/><rect class="a" x="193" y="53" width="6" height="6"/><rect class="a" x="196" y="36" width="6" height="6"/><rect class="a" x="190" y="36" width="6" height="6"/><rect class="a" x="184" y="36" width="6" height="6"/><rect class="a" x="178" y="36" width="6" height="6"/><rect class="a" x="172" y="36" width="6" height="6"/><rect class="a" x="166" y="36" width="6" height="6"/><rect class="a" x="160" y="36" width="6" height="6"/><rect class="d" x="160.08" y="46" width="6" height="6"/><rect class="d" x="151.08" y="46" width="6" height="6"/><rect class="d" x="142" y="46" width="6" height="6"/><rect class="a" x="154" y="36" width="6" height="6"/><rect class="a" x="148" y="36" width="6" height="6"/><rect class="a" x="167" y="-6" width="6" height="6"/><rect class="a" x="210" y="22" width="6" height="6"/><rect class="a" x="210" y="16" width="6" height="6"/><rect class="a" x="210" y="10" width="6" height="6"/><rect class="a" x="176" y="3" width="6" height="6"/><rect class="a" x="210" y="4" width="6" height="6"/><rect class="a" x="210" y="-2" width="6" height="6"/><rect class="b" x="210" y="74" width="6" height="6"/><rect class="b" x="210" y="82" width="6" height="6"/><rect class="b" x="210" y="90" width="6" height="6"/><rect class="b" x="210" y="98" width="6" height="6"/><rect class="c" x="242" y="28" width="6" height="6"/><rect class="c" x="250" y="28" width="6" height="6"/><rect class="c" x="258" y="28" width="6" height="6"/><rect class="c" x="266" y="28" width="6" height="6"/><rect class="a" x="142" y="36" width="6" height="6"/><rect class="a" x="210" y="66" width="6" height="6"/><rect class="a" x="242" y="69" width="6" height="6"/><rect class="a" x="251" y="78" width="6" height="6"/><rect class="a" x="260" y="87" width="6" height="6"/></svg>