<svg xmlns="http://www.w3.org/2000/svg" viewBox="0 0 238 238"><defs><style>.a{fill:#183982;}.b{fill:#df1f96;}.c{fill:#ff0005;}.d{fill:#49a4ea;}</style></defs><title>carpet2</title><rect class="a" x="-3.16" y="234.53" width="6" height="6" transform="translate(-168.01 69.46) rotate(-45)"/><rect class="a" x="9.57" y="234.53" width="6" height="6" transform="translate(-164.28 78.46) rotate(-45)"/><rect class="a" x="56.94" y="233.82" width="6" height="6" transform="translate(-149.9 111.75) rotate(-45)"/><rect class="a" x="51.29" y="228.17" width="6" height="6" transform="translate(-147.56 106.09) rotate(-45)"/><rect class="b" x="56.94" y="222.51" width="6" height="6" transform="translate(-141.9 108.44) rotate(-45)"/><rect class="c" x="62.6" y="228.17" width="6" height="6" transform="translate(-144.25 114.09) rotate(-45)"/><rect class="b" x="62.6" y="216.85" width="6" height="6" transform="translate(-136.25 110.78) rotate(-45)"/><rect class="b" x="68.26" y="211.2" width="6" height="6" transform="translate(-130.59 113.12) rotate(-45)"/><rect class="a" x="-3.16" y="234.53" width="6" height="6" transform="translate(-168.01 69.46) rotate(-45)"/><rect class="a" x="47.04" y="223.92" width="6" height="6" transform="translate(-145.8 101.85) rotate(-45)"/><rect class="a" x="42.8" y="219.68" width="6" height="6" transform="translate(-144.04 97.61) rotate(-45)"/><rect class="a" x="38.56" y="215.44" width="6" height="6" transform="translate(-142.29 93.37) rotate(-45)"/><rect class="a" x="9.57" y="234.53" width="6" height="6" transform="translate(-164.28 78.46) rotate(-45)"/><rect class="a" x="34.32" y="211.2" width="6" height="6" transform="translate(-140.53 89.12) rotate(-45)"/><rect class="a" x="30.07" y="206.95" width="6" height="6" transform="translate(-138.77 84.88) rotate(-45)"/><rect class="a" x="25.83" y="202.62" width="6" height="6" transform="translate(-136.95 80.61) rotate(-45)"/><rect class="a" x="21.59" y="198.38" width="6" height="6" transform="translate(-135.2 76.37) rotate(-45)"/><rect class="b" x="73.91" y="205.54" width="6" height="6" transform="translate(-124.93 115.47) rotate(-45)"/><rect class="b" x="79.57" y="199.79" width="6" height="6" transform="translate(-119.21 117.78) rotate(-45)"/><rect class="b" x="85.23" y="194.14" width="6" height="6" transform="translate(-113.56 120.13) rotate(-45)"/><rect class="b" x="90.88" y="188.48" width="6" height="6" transform="translate(-107.9 122.47) rotate(-45)"/><rect class="a" x="15.93" y="192.72" width="6" height="6" transform="translate(-132.85 70.71) rotate(-45)"/><rect class="a" x="102.9" y="234.53" width="6" height="6" transform="translate(-136.94 144.46) rotate(-45)"/><rect class="a" x="115.63" y="234.53" width="6" height="6" transform="translate(-133.21 153.46) rotate(-45)"/><rect class="a" x="128.36" y="234.53" width="6" height="6" transform="translate(-129.48 162.46) rotate(-45)"/><rect class="a" x="175.74" y="233.82" width="6" height="6" transform="translate(-115.11 195.75) rotate(-45)"/><rect class="a" x="170.08" y="228.17" width="6" height="6" transform="translate(-112.77 190.09) rotate(-45)"/><rect class="b" x="175.74" y="222.51" width="6" height="6" transform="translate(-107.11 192.44) rotate(-45)"/><rect class="c" x="181.39" y="228.17" width="6" height="6" transform="translate(-109.45 198.09) rotate(-45)"/><rect class="b" x="181.39" y="216.85" width="6" height="6" transform="translate(-101.45 194.78) rotate(-45)"/><rect class="b" x="187.05" y="211.2" width="6" height="6" transform="translate(-95.79 197.12) rotate(-45)"/><rect class="a" x="102.9" y="234.53" width="6" height="6" transform="translate(-136.94 144.46) rotate(-45)"/><rect class="a" x="115.63" y="234.53" width="6" height="6" transform="translate(-133.21 153.46) rotate(-45)"/><rect class="a" x="165.84" y="223.92" width="6" height="6" transform="translate(-111.01 185.85) rotate(-45)"/><rect class="a" x="161.59" y="219.68" width="6" height="6" transform="translate(-109.25 181.61) rotate(-45)"/><rect class="a" x="157.35" y="215.44" width="6" height="6" transform="translate(-107.49 177.37) rotate(-45)"/><rect class="a" x="128.36" y="234.53" width="6" height="6" transform="translate(-129.48 162.46) rotate(-45)"/><rect class="a" x="153.11" y="211.2" width="6" height="6" transform="translate(-105.74 173.12) rotate(-45)"/><rect class="a" x="148.87" y="206.95" width="6" height="6" transform="translate(-103.98 168.88) rotate(-45)"/><rect class="a" x="144.62" y="202.71" width="6" height="6" transform="translate(-102.22 164.64) rotate(-45)"/><rect class="a" x="140.38" y="198.47" width="6" height="6" transform="translate(-100.46 160.39) rotate(-45)"/><rect class="b" x="192.71" y="205.54" width="6" height="6" transform="translate(-90.14 199.47) rotate(-45)"/><rect class="b" x="198.36" y="199.88" width="6" height="6" transform="translate(-84.48 201.81) rotate(-45)"/><rect class="b" x="204.02" y="194.23" width="6" height="6" transform="translate(-78.82 204.15) rotate(-45)"/><rect class="b" x="209.68" y="188.57" width="6" height="6" transform="translate(-73.17 206.5) rotate(-45)"/><rect class="a" x="134.72" y="192.81" width="6" height="6" transform="translate(-98.12 154.74) rotate(-45)"/><rect class="a" x="221.7" y="234.53" width="6" height="6" transform="translate(-102.15 228.46) rotate(-45)"/><rect class="a" x="234.43" y="234.53" width="6" height="6" transform="translate(-98.42 237.46) rotate(-45)"/><rect class="a" x="221.7" y="234.53" width="6" height="6" transform="translate(-102.15 228.46) rotate(-45)"/><rect class="a" x="234.43" y="234.53" width="6" height="6" transform="translate(-98.42 237.46) rotate(-45)"/><rect class="a" x="235.13" y="115.03" width="6" height="6" transform="translate(-13.71 202.96) rotate(-45)"/><rect class="a" x="235.13" y="126.34" width="6" height="6" transform="translate(-21.71 206.27) rotate(-45)"/><rect class="a" x="229.48" y="120.69" width="6" height="6" transform="translate(-19.37 200.61) rotate(-45)"/><rect class="a" x="229.48" y="109.37" width="6" height="6" transform="translate(-11.37 197.3) rotate(-45)"/><rect class="b" x="235.13" y="103.72" width="6" height="6" transform="translate(-5.71 199.64) rotate(-45)"/><rect class="a" x="235.13" y="151.8" width="6" height="6" transform="translate(-39.71 213.73) rotate(-45)"/><rect class="a" x="235.13" y="139.07" width="6" height="6" transform="translate(-30.71 210) rotate(-45)"/><rect class="a" x="225.23" y="124.93" width="6" height="6" transform="translate(-23.61 198.86) rotate(-45)"/><rect class="a" x="220.99" y="129.17" width="6" height="6" transform="translate(-27.85 197.1) rotate(-45)"/><rect class="a" x="216.75" y="133.41" width="6" height="6" transform="translate(-32.1 195.34) rotate(-45)"/><rect class="a" x="212.51" y="137.66" width="6" height="6" transform="translate(-36.34 193.58) rotate(-45)"/><rect class="a" x="208.26" y="141.9" width="6" height="6" transform="translate(-40.58 191.83) rotate(-45)"/><rect class="a" x="204.02" y="146.14" width="6" height="6" transform="translate(-44.82 190.07) rotate(-45)"/><rect class="a" x="199.78" y="150.38" width="6" height="6" transform="translate(-49.07 188.31) rotate(-45)"/><rect class="c" x="206.91" y="157.4" width="6" height="6" transform="translate(-51.94 195.41) rotate(-45)"/><rect class="c" x="200.54" y="163.76" width="6" height="6" transform="translate(-58.3 192.77) rotate(-45)"/><rect class="c" x="194.12" y="170.18" width="6" height="6" transform="translate(-64.72 190.11) rotate(-45)"/><rect class="a" x="195.54" y="154.63" width="6" height="6" transform="translate(-53.31 186.55) rotate(-45)"/><rect class="a" x="191.29" y="158.87" width="6" height="6" transform="translate(-57.55 184.8) rotate(-45)"/><rect class="a" x="162.3" y="115.74" width="6" height="6" transform="translate(-35.54 151.66) rotate(-45)"/><rect class="a" x="175.03" y="115.74" width="6" height="6" transform="translate(-31.82 160.66) rotate(-45)"/><rect class="a" x="225.23" y="105.13" width="6" height="6" transform="translate(-9.61 193.06) rotate(-45)"/><rect class="a" x="220.99" y="100.89" width="6" height="6" transform="translate(-7.85 188.81) rotate(-45)"/><rect class="a" x="216.75" y="96.64" width="6" height="6" transform="translate(-6.1 184.57) rotate(-45)"/><rect class="a" x="187.76" y="115.74" width="6" height="6" transform="translate(-28.09 169.66) rotate(-45)"/><rect class="a" x="212.51" y="92.4" width="6" height="6" transform="translate(-4.34 180.33) rotate(-45)"/><rect class="a" x="208.26" y="88.16" width="6" height="6" transform="translate(-2.58 176.09) rotate(-45)"/><rect class="a" x="204.02" y="83.92" width="6" height="6" transform="translate(-0.82 171.84) rotate(-45)"/><rect class="a" x="199.78" y="79.67" width="6" height="6" transform="translate(0.93 167.6) rotate(-45)"/><rect class="a" x="194.12" y="74.02" width="6" height="6" transform="translate(3.28 161.94) rotate(-45)"/><rect class="a" x="187.05" y="163.11" width="6" height="6" transform="translate(-61.79 183.04) rotate(-45)"/><rect class="a" x="-2.45" y="114.94" width="6" height="6" transform="translate(-83.24 34.93) rotate(-45)"/><rect class="a" x="3.2" y="120.6" width="6" height="6" transform="translate(-85.58 40.59) rotate(-45)"/><rect class="a" x="-2.45" y="126.25" width="6" height="6" transform="translate(-91.24 38.24) rotate(-45)"/><rect class="b" x="-2.45" y="103.63" width="6" height="6" transform="translate(-75.24 31.62) rotate(-45)"/><rect class="c" x="3.2" y="109.28" width="6" height="6" transform="translate(-77.58 37.27) rotate(-45)"/><rect class="b" x="3.2" y="97.97" width="6" height="6" transform="translate(-69.58 33.96) rotate(-45)"/><rect class="b" x="8.86" y="92.31" width="6" height="6" transform="translate(-63.92 36.3) rotate(-45)"/><rect class="a" x="7.45" y="124.84" width="6" height="6" transform="translate(-87.34 44.83) rotate(-45)"/><rect class="a" x="11.69" y="129.08" width="6" height="6" transform="translate(-89.09 49.07) rotate(-45)"/><rect class="a" x="15.93" y="133.33" width="6" height="6" transform="translate(-90.85 53.32) rotate(-45)"/><rect class="a" x="-2.45" y="151.71" width="6" height="6" transform="translate(-109.24 45.7) rotate(-45)"/><rect class="a" x="-2.45" y="138.98" width="6" height="6" transform="translate(-100.24 41.97) rotate(-45)"/><rect class="d" x="24.42" y="141.81" width="6" height="6" transform="translate(-94.37 61.8) rotate(-45)"/><rect class="d" x="30.07" y="147.47" width="6" height="6" transform="translate(-96.71 67.46) rotate(-45)"/><rect class="d" x="35.73" y="153.12" width="6" height="6" transform="translate(-99.05 73.11) rotate(-45)"/><rect class="d" x="41.39" y="158.78" width="6" height="6" transform="translate(-101.4 78.77) rotate(-45)"/><rect class="b" x="14.52" y="86.66" width="6" height="6" transform="translate(-58.27 38.65) rotate(-45)"/><rect class="b" x="20.17" y="81" width="6" height="6" transform="translate(-52.61 40.99) rotate(-45)"/><rect class="b" x="25.83" y="75.34" width="6" height="6" transform="translate(-46.95 43.33) rotate(-45)"/><rect class="b" x="31.49" y="69.69" width="6" height="6" transform="translate(-41.3 45.68) rotate(-45)"/><rect class="a" x="18.76" y="136.15" width="6" height="6" transform="translate(-92.02 56.14) rotate(-45)"/><rect class="a" x="43.51" y="115.65" width="6" height="6" transform="translate(-70.28 67.64) rotate(-45)"/><rect class="a" x="56.24" y="115.65" width="6" height="6" transform="translate(-66.55 76.64) rotate(-45)"/><rect class="a" x="68.96" y="115.65" width="6" height="6" transform="translate(-62.82 85.64) rotate(-45)"/><rect class="a" x="116.34" y="114.94" width="6" height="6" transform="translate(-48.44 118.93) rotate(-45)"/><rect class="a" x="122" y="120.6" width="6" height="6" transform="translate(-50.79 124.59) rotate(-45)"/><rect class="a" x="116.34" y="126.25" width="6" height="6" transform="translate(-56.44 122.24) rotate(-45)"/><rect class="a" x="110.68" y="120.6" width="6" height="6" transform="translate(-54.1 116.59) rotate(-45)"/><rect class="a" x="110.68" y="109.28" width="6" height="6" transform="translate(-46.1 113.27) rotate(-45)"/><rect class="b" x="116.34" y="103.63" width="6" height="6" transform="translate(-40.44 115.62) rotate(-45)"/><rect class="c" x="122" y="109.28" width="6" height="6" transform="translate(-42.79 121.27) rotate(-45)"/><rect class="b" x="122" y="97.97" width="6" height="6" transform="translate(-34.79 117.96) rotate(-45)"/><rect class="b" x="127.65" y="92.31" width="6" height="6" transform="translate(-29.13 120.3) rotate(-45)"/><rect class="a" x="126.24" y="124.84" width="6" height="6" transform="translate(-52.54 128.83) rotate(-45)"/><rect class="a" x="130.48" y="129.08" width="6" height="6" transform="translate(-54.3 133.07) rotate(-45)"/><rect class="a" x="134.72" y="133.41" width="6" height="6" transform="translate(-56.12 137.34) rotate(-45)"/><rect class="a" x="116.34" y="151.71" width="6" height="6" transform="translate(-74.44 129.7) rotate(-45)"/><rect class="a" x="116.34" y="138.98" width="6" height="6" transform="translate(-65.44 125.97) rotate(-45)"/><rect class="a" x="106.44" y="124.84" width="6" height="6" transform="translate(-58.34 114.83) rotate(-45)"/><rect class="a" x="102.2" y="129.08" width="6" height="6" transform="translate(-62.59 113.07) rotate(-45)"/><rect class="a" x="97.96" y="133.33" width="6" height="6" transform="translate(-66.83 111.32) rotate(-45)"/><rect class="a" x="93.71" y="137.57" width="6" height="6" transform="translate(-71.07 109.56) rotate(-45)"/><rect class="a" x="89.47" y="141.81" width="6" height="6" transform="translate(-75.31 107.8) rotate(-45)"/><rect class="a" x="85.23" y="146.05" width="6" height="6" transform="translate(-79.56 106.04) rotate(-45)"/><rect class="a" x="80.98" y="150.3" width="6" height="6" transform="translate(-83.8 104.29) rotate(-45)"/><rect class="c" x="88.11" y="157.31" width="6" height="6" transform="translate(-86.67 111.38) rotate(-45)"/><rect class="c" x="81.75" y="163.67" width="6" height="6" transform="translate(-93.03 108.75) rotate(-45)"/><rect class="c" x="75.33" y="170.1" width="6" height="6" transform="translate(-99.46 106.08) rotate(-45)"/><rect class="a" x="76.74" y="154.54" width="6" height="6" transform="translate(-88.04 102.53) rotate(-45)"/><rect class="a" x="72.5" y="158.78" width="6" height="6" transform="translate(-92.28 100.77) rotate(-45)"/><rect class="a" x="43.51" y="115.65" width="6" height="6" transform="translate(-70.28 67.64) rotate(-45)"/><rect class="a" x="56.24" y="115.65" width="6" height="6" transform="translate(-66.55 76.64) rotate(-45)"/><rect class="a" x="106.44" y="105.04" width="6" height="6" transform="translate(-44.34 109.03) rotate(-45)"/><rect class="a" x="102.2" y="100.8" width="6" height="6" transform="translate(-42.59 104.79) rotate(-45)"/><rect class="a" x="97.96" y="96.56" width="6" height="6" transform="translate(-40.83 100.55) rotate(-45)"/><rect class="a" x="68.96" y="115.65" width="6" height="6" transform="translate(-62.82 85.64) rotate(-45)"/><rect class="a" x="93.71" y="92.31" width="6" height="6" transform="translate(-39.07 96.3) rotate(-45)"/><rect class="a" x="89.47" y="88.07" width="6" height="6" transform="translate(-37.31 92.06) rotate(-45)"/><rect class="a" x="85.23" y="83.83" width="6" height="6" transform="translate(-35.56 87.82) rotate(-45)"/><rect class="a" x="80.98" y="79.59" width="6" height="6" transform="translate(-33.8 83.57) rotate(-45)"/><rect class="d" x="143.21" y="141.9" width="6" height="6" transform="translate(-59.64 145.83) rotate(-45)"/><rect class="d" x="148.87" y="147.56" width="6" height="6" transform="translate(-61.98 151.48) rotate(-45)"/><rect class="d" x="154.52" y="153.21" width="6" height="6" transform="translate(-64.32 157.14) rotate(-45)"/><rect class="d" x="160.18" y="158.87" width="6" height="6" transform="translate(-66.66 162.8) rotate(-45)"/><rect class="b" x="133.31" y="86.66" width="6" height="6" transform="translate(-23.47 122.65) rotate(-45)"/><rect class="b" x="138.97" y="81.09" width="6" height="6" transform="translate(-17.88 125.02) rotate(-45)"/><rect class="b" x="144.62" y="75.43" width="6" height="6" transform="translate(-12.22 127.36) rotate(-45)"/><rect class="b" x="150.28" y="69.77" width="6" height="6" transform="translate(-6.56 129.7) rotate(-45)"/><rect class="a" x="75.33" y="73.93" width="6" height="6" transform="translate(-31.46 77.92) rotate(-45)"/><rect class="a" x="68.26" y="163.02" width="6" height="6" transform="translate(-96.53 99.01) rotate(-45)"/><rect class="a" x="137.55" y="136.24" width="6" height="6" transform="translate(-57.29 140.17) rotate(-45)"/><rect class="a" x="162.3" y="115.74" width="6" height="6" transform="translate(-35.54 151.66) rotate(-45)"/><rect class="a" x="175.03" y="115.74" width="6" height="6" transform="translate(-31.82 160.66) rotate(-45)"/><rect class="a" x="187.76" y="115.74" width="6" height="6" transform="translate(-28.09 169.66) rotate(-45)"/><rect class="a" x="235.13" y="115.03" width="6" height="6" transform="translate(-13.71 202.96) rotate(-45)"/><rect class="a" x="235.13" y="126.34" width="6" height="6" transform="translate(-21.71 206.27) rotate(-45)"/><rect class="a" x="229.48" y="120.69" width="6" height="6" transform="translate(-19.37 200.61) rotate(-45)"/><rect class="a" x="229.48" y="109.37" width="6" height="6" transform="translate(-11.37 197.3) rotate(-45)"/><rect class="b" x="235.13" y="103.72" width="6" height="6" transform="translate(-5.71 199.64) rotate(-45)"/><rect class="a" x="235.13" y="151.8" width="6" height="6" transform="translate(-39.71 213.73) rotate(-45)"/><rect class="a" x="235.13" y="139.07" width="6" height="6" transform="translate(-30.71 210) rotate(-45)"/><rect class="a" x="225.23" y="124.93" width="6" height="6" transform="translate(-23.61 198.86) rotate(-45)"/><rect class="a" x="220.99" y="129.17" width="6" height="6" transform="translate(-27.85 197.1) rotate(-45)"/><rect class="a" x="216.75" y="133.41" width="6" height="6" transform="translate(-32.1 195.34) rotate(-45)"/><rect class="a" x="212.51" y="137.66" width="6" height="6" transform="translate(-36.34 193.58) rotate(-45)"/><rect class="a" x="208.26" y="141.9" width="6" height="6" transform="translate(-40.58 191.83) rotate(-45)"/><rect class="a" x="204.02" y="146.14" width="6" height="6" transform="translate(-44.82 190.07) rotate(-45)"/><rect class="a" x="199.78" y="150.38" width="6" height="6" transform="translate(-49.07 188.31) rotate(-45)"/><rect class="c" x="206.91" y="157.4" width="6" height="6" transform="translate(-51.94 195.41) rotate(-45)"/><rect class="c" x="200.54" y="163.76" width="6" height="6" transform="translate(-58.3 192.77) rotate(-45)"/><rect class="c" x="194.12" y="170.18" width="6" height="6" transform="translate(-64.72 190.11) rotate(-45)"/><rect class="a" x="195.54" y="154.63" width="6" height="6" transform="translate(-53.31 186.55) rotate(-45)"/><rect class="a" x="191.29" y="158.87" width="6" height="6" transform="translate(-57.55 184.8) rotate(-45)"/><rect class="a" x="162.3" y="115.74" width="6" height="6" transform="translate(-35.54 151.66) rotate(-45)"/><rect class="a" x="175.03" y="115.74" width="6" height="6" transform="translate(-31.82 160.66) rotate(-45)"/><rect class="a" x="225.23" y="105.13" width="6" height="6" transform="translate(-9.61 193.06) rotate(-45)"/><rect class="a" x="220.99" y="100.89" width="6" height="6" transform="translate(-7.85 188.81) rotate(-45)"/><rect class="a" x="216.75" y="96.64" width="6" height="6" transform="translate(-6.1 184.57) rotate(-45)"/><rect class="a" x="187.76" y="115.74" width="6" height="6" transform="translate(-28.09 169.66) rotate(-45)"/><rect class="a" x="212.51" y="92.4" width="6" height="6" transform="translate(-4.34 180.33) rotate(-45)"/><rect class="a" x="208.26" y="88.16" width="6" height="6" transform="translate(-2.58 176.09) rotate(-45)"/><rect class="a" x="204.02" y="83.92" width="6" height="6" transform="translate(-0.82 171.84) rotate(-45)"/><rect class="a" x="199.78" y="79.67" width="6" height="6" transform="translate(0.93 167.6) rotate(-45)"/><rect class="a" x="194.12" y="74.02" width="6" height="6" transform="translate(3.28 161.94) rotate(-45)"/><rect class="a" x="187.05" y="163.11" width="6" height="6" transform="translate(-61.79 183.04) rotate(-45)"/><rect class="a" x="221.7" y="-3.06" width="6" height="6" transform="translate(65.85 158.87) rotate(-45)"/><rect class="a" x="234.43" y="-3.06" width="6" height="6" transform="translate(69.58 167.87) rotate(-45)"/><rect class="a" x="-3.16" y="-3.15" width="6" height="6" transform="translate(0.06 -0.16) rotate(-45)"/><rect class="a" x="9.57" y="-3.15" width="6" height="6" transform="translate(3.78 8.84) rotate(-45)"/><rect class="a" x="56.94" y="-3.85" width="6" height="6" transform="translate(18.16 42.14) rotate(-45)"/><rect class="a" x="62.6" y="1.8" width="6" height="6" transform="translate(15.82 47.79) rotate(-45)"/><rect class="a" x="56.94" y="7.46" width="6" height="6" transform="translate(10.16 45.45) rotate(-45)"/><rect class="a" x="51.29" y="1.8" width="6" height="6" transform="translate(12.5 39.79) rotate(-45)"/><rect class="a" x="66.84" y="6.05" width="6" height="6" transform="translate(14.06 52.04) rotate(-45)"/><rect class="a" x="71.09" y="10.29" width="6" height="6" transform="translate(12.3 56.28) rotate(-45)"/><rect class="a" x="75.33" y="14.53" width="6" height="6" transform="translate(10.54 60.52) rotate(-45)"/><rect class="a" x="56.94" y="32.92" width="6" height="6" transform="translate(-7.84 52.91) rotate(-45)"/><rect class="a" x="56.94" y="20.19" width="6" height="6" transform="translate(1.16 49.18) rotate(-45)"/><rect class="a" x="47.04" y="6.05" width="6" height="6" transform="translate(8.26 38.04) rotate(-45)"/><rect class="a" x="42.8" y="10.29" width="6" height="6" transform="translate(4.02 36.28) rotate(-45)"/><rect class="a" x="38.56" y="14.53" width="6" height="6" transform="translate(-0.22 34.52) rotate(-45)"/><rect class="a" x="34.32" y="18.77" width="6" height="6" transform="translate(-4.47 32.76) rotate(-45)"/><rect class="a" x="30.07" y="23.02" width="6" height="6" transform="translate(-8.71 31.01) rotate(-45)"/><rect class="a" x="25.83" y="27.26" width="6" height="6" transform="translate(-12.95 29.25) rotate(-45)"/><rect class="a" x="21.59" y="31.5" width="6" height="6" transform="translate(-17.2 27.49) rotate(-45)"/><rect class="c" x="28.72" y="38.51" width="6" height="6" transform="translate(-20.07 34.59) rotate(-45)"/><rect class="c" x="22.35" y="44.88" width="6" height="6" transform="translate(-26.43 31.95) rotate(-45)"/><rect class="c" x="15.93" y="51.3" width="6" height="6" transform="translate(-32.85 29.29) rotate(-45)"/><rect class="a" x="17.35" y="35.75" width="6" height="6" transform="translate(-21.44 25.73) rotate(-45)"/><rect class="a" x="13.1" y="39.99" width="6" height="6" transform="translate(-25.68 23.98) rotate(-45)"/><rect class="a" x="-3.16" y="-3.15" width="6" height="6" transform="translate(0.06 -0.16) rotate(-45)"/><rect class="a" x="9.57" y="-3.15" width="6" height="6" transform="translate(3.78 8.84) rotate(-45)"/><rect class="d" x="83.81" y="23.02" width="6" height="6" transform="translate(7.03 69.01) rotate(-45)"/><rect class="d" x="89.47" y="28.67" width="6" height="6" transform="translate(4.69 74.66) rotate(-45)"/><rect class="d" x="95.13" y="34.33" width="6" height="6" transform="translate(2.34 80.32) rotate(-45)"/><rect class="d" x="100.78" y="39.99" width="6" height="6" transform="translate(0 85.98) rotate(-45)"/><rect class="a" x="8.86" y="44.23" width="6" height="6" transform="translate(-29.92 22.22) rotate(-45)"/><rect class="a" x="78.16" y="17.36" width="6" height="6" transform="translate(9.37 63.35) rotate(-45)"/><rect class="a" x="102.9" y="-3.15" width="6" height="6" transform="translate(31.12 74.84) rotate(-45)"/><rect class="a" x="115.63" y="-3.15" width="6" height="6" transform="translate(34.85 83.84) rotate(-45)"/><rect class="a" x="128.36" y="-3.15" width="6" height="6" transform="translate(38.58 92.84) rotate(-45)"/><rect class="a" x="175.74" y="-3.76" width="6" height="6" transform="translate(52.89 126.16) rotate(-45)"/><rect class="a" x="181.39" y="1.89" width="6" height="6" transform="translate(50.55 131.82) rotate(-45)"/><rect class="a" x="175.74" y="7.55" width="6" height="6" transform="translate(44.89 129.48) rotate(-45)"/><rect class="a" x="170.08" y="1.89" width="6" height="6" transform="translate(47.23 123.82) rotate(-45)"/><rect class="a" x="185.64" y="6.14" width="6" height="6" transform="translate(48.79 136.06) rotate(-45)"/><rect class="a" x="189.88" y="10.38" width="6" height="6" transform="translate(47.03 140.3) rotate(-45)"/><rect class="a" x="194.12" y="14.62" width="6" height="6" transform="translate(45.28 144.55) rotate(-45)"/><rect class="a" x="175.74" y="33.01" width="6" height="6" transform="translate(26.89 136.93) rotate(-45)"/><rect class="a" x="175.74" y="20.28" width="6" height="6" transform="translate(35.89 133.2) rotate(-45)"/><rect class="a" x="165.84" y="6.14" width="6" height="6" transform="translate(42.99 122.06) rotate(-45)"/><rect class="a" x="161.59" y="10.38" width="6" height="6" transform="translate(38.75 120.3) rotate(-45)"/><rect class="a" x="157.35" y="14.62" width="6" height="6" transform="translate(34.51 118.55) rotate(-45)"/><rect class="a" x="153.11" y="18.86" width="6" height="6" transform="translate(30.26 116.79) rotate(-45)"/><rect class="a" x="148.87" y="23.11" width="6" height="6" transform="translate(26.02 115.03) rotate(-45)"/><rect class="a" x="144.62" y="27.35" width="6" height="6" transform="translate(21.78 113.27) rotate(-45)"/><rect class="a" x="140.38" y="31.59" width="6" height="6" transform="translate(17.54 111.52) rotate(-45)"/><rect class="c" x="147.51" y="38.6" width="6" height="6" transform="translate(14.67 118.61) rotate(-45)"/><rect class="c" x="141.15" y="44.97" width="6" height="6" transform="translate(8.3 115.98) rotate(-45)"/><rect class="c" x="134.72" y="51.39" width="6" height="6" transform="translate(1.88 113.32) rotate(-45)"/><rect class="a" x="136.14" y="35.83" width="6" height="6" transform="translate(13.29 109.76) rotate(-45)"/><rect class="a" x="131.9" y="39.99" width="6" height="6" transform="translate(9.11 107.98) rotate(-45)"/><rect class="a" x="102.9" y="-3.15" width="6" height="6" transform="translate(31.12 74.84) rotate(-45)"/><rect class="a" x="115.63" y="-3.15" width="6" height="6" transform="translate(34.85 83.84) rotate(-45)"/><rect class="a" x="128.36" y="-3.15" width="6" height="6" transform="translate(38.58 92.84) rotate(-45)"/><rect class="d" x="202.61" y="23.11" width="6" height="6" transform="translate(41.76 153.03) rotate(-45)"/><rect class="d" x="208.26" y="28.76" width="6" height="6" transform="translate(39.42 158.69) rotate(-45)"/><rect class="d" x="213.92" y="34.42" width="6" height="6" transform="translate(37.08 164.35) rotate(-45)"/><rect class="d" x="219.58" y="40.08" width="6" height="6" transform="translate(34.73 170) rotate(-45)"/><rect class="a" x="127.65" y="44.23" width="6" height="6" transform="translate(4.87 106.22) rotate(-45)"/><rect class="a" x="196.95" y="17.45" width="6" height="6" transform="translate(44.1 147.38) rotate(-45)"/><rect class="a" x="221.7" y="-3.06" width="6" height="6" transform="translate(65.85 158.87) rotate(-45)"/><rect class="a" x="234.43" y="-3.06" width="6" height="6" transform="translate(69.58 167.87) rotate(-45)"/><rect class="a" x="-3.16" y="234.53" width="6" height="6" transform="translate(-168.01 69.46) rotate(-45)"/><rect class="a" x="9.57" y="234.53" width="6" height="6" transform="translate(-164.28 78.46) rotate(-45)"/><rect class="a" x="56.94" y="233.82" width="6" height="6" transform="translate(-149.9 111.75) rotate(-45)"/><rect class="a" x="51.29" y="228.17" width="6" height="6" transform="translate(-147.56 106.09) rotate(-45)"/><rect class="b" x="56.94" y="222.51" width="6" height="6" transform="translate(-141.9 108.44) rotate(-45)"/><rect class="c" x="62.6" y="228.17" width="6" height="6" transform="translate(-144.25 114.09) rotate(-45)"/><rect class="b" x="62.6" y="216.85" width="6" height="6" transform="translate(-136.25 110.78) rotate(-45)"/><rect class="b" x="68.26" y="211.2" width="6" height="6" transform="translate(-130.59 113.12) rotate(-45)"/><rect class="a" x="-3.16" y="234.53" width="6" height="6" transform="translate(-168.01 69.46) rotate(-45)"/><rect class="a" x="47.04" y="223.92" width="6" height="6" transform="translate(-145.8 101.85) rotate(-45)"/><rect class="a" x="42.8" y="219.68" width="6" height="6" transform="translate(-144.04 97.61) rotate(-45)"/><rect class="a" x="38.56" y="215.44" width="6" height="6" transform="translate(-142.29 93.37) rotate(-45)"/><rect class="a" x="9.57" y="234.53" width="6" height="6" transform="translate(-164.28 78.46) rotate(-45)"/><rect class="a" x="34.32" y="211.2" width="6" height="6" transform="translate(-140.53 89.12) rotate(-45)"/><rect class="a" x="30.07" y="206.95" width="6" height="6" transform="translate(-138.77 84.88) rotate(-45)"/><rect class="a" x="25.83" y="202.62" width="6" height="6" transform="translate(-136.95 80.61) rotate(-45)"/><rect class="a" x="21.59" y="198.38" width="6" height="6" transform="translate(-135.2 76.37) rotate(-45)"/><rect class="b" x="73.91" y="205.54" width="6" height="6" transform="translate(-124.93 115.47) rotate(-45)"/><rect class="b" x="79.57" y="199.79" width="6" height="6" transform="translate(-119.21 117.78) rotate(-45)"/><rect class="b" x="85.23" y="194.14" width="6" height="6" transform="translate(-113.56 120.13) rotate(-45)"/><rect class="b" x="90.88" y="188.48" width="6" height="6" transform="translate(-107.9 122.47) rotate(-45)"/><rect class="a" x="15.93" y="192.72" width="6" height="6" transform="translate(-132.85 70.71) rotate(-45)"/><rect class="a" x="102.9" y="234.53" width="6" height="6" transform="translate(-136.94 144.46) rotate(-45)"/><rect class="a" x="115.63" y="234.53" width="6" height="6" transform="translate(-133.21 153.46) rotate(-45)"/><rect class="a" x="128.36" y="234.53" width="6" height="6" transform="translate(-129.48 162.46) rotate(-45)"/><rect class="a" x="175.74" y="233.82" width="6" height="6" transform="translate(-115.11 195.75) rotate(-45)"/><rect class="a" x="170.08" y="228.17" width="6" height="6" transform="translate(-112.77 190.09) rotate(-45)"/><rect class="b" x="175.74" y="222.51" width="6" height="6" transform="translate(-107.11 192.44) rotate(-45)"/><rect class="c" x="181.39" y="228.17" width="6" height="6" transform="translate(-109.45 198.09) rotate(-45)"/><rect class="b" x="181.39" y="216.85" width="6" height="6" transform="translate(-101.45 194.78) rotate(-45)"/><rect class="b" x="187.05" y="211.2" width="6" height="6" transform="translate(-95.79 197.12) rotate(-45)"/><rect class="a" x="102.9" y="234.53" width="6" height="6" transform="translate(-136.94 144.46) rotate(-45)"/><rect class="a" x="115.63" y="234.53" width="6" height="6" transform="translate(-133.21 153.46) rotate(-45)"/><rect class="a" x="165.84" y="223.92" width="6" height="6" transform="translate(-111.01 185.85) rotate(-45)"/><rect class="a" x="161.59" y="219.68" width="6" height="6" transform="translate(-109.25 181.61) rotate(-45)"/><rect class="a" x="157.35" y="215.44" width="6" height="6" transform="translate(-107.49 177.37) rotate(-45)"/><rect class="a" x="128.36" y="234.53" width="6" height="6" transform="translate(-129.48 162.46) rotate(-45)"/><rect class="a" x="153.11" y="211.2" width="6" height="6" transform="translate(-105.74 173.12) rotate(-45)"/><rect class="a" x="148.87" y="206.95" width="6" height="6" transform="translate(-103.98 168.88) rotate(-45)"/><rect class="a" x="144.62" y="202.71" width="6" height="6" transform="translate(-102.22 164.64) rotate(-45)"/><rect class="a" x="140.38" y="198.47" width="6" height="6" transform="translate(-100.46 160.39) rotate(-45)"/><rect class="b" x="192.71" y="205.54" width="6" height="6" transform="translate(-90.14 199.47) rotate(-45)"/><rect class="b" x="198.36" y="199.88" width="6" height="6" transform="translate(-84.48 201.81) rotate(-45)"/><rect class="b" x="204.02" y="194.23" width="6" height="6" transform="translate(-78.82 204.15) rotate(-45)"/><rect class="b" x="209.68" y="188.57" width="6" height="6" transform="translate(-73.17 206.5) rotate(-45)"/><rect class="a" x="134.72" y="192.81" width="6" height="6" transform="translate(-98.12 154.74) rotate(-45)"/><rect class="a" x="221.7" y="234.53" width="6" height="6" transform="translate(-102.15 228.46) rotate(-45)"/><rect class="a" x="234.43" y="234.53" width="6" height="6" transform="translate(-98.42 237.46) rotate(-45)"/><rect class="a" x="221.7" y="234.53" width="6" height="6" transform="translate(-102.15 228.46) rotate(-45)"/><rect class="a" x="234.43" y="234.53" width="6" height="6" transform="translate(-98.42 237.46) rotate(-45)"/><rect class="a" x="-2.45" y="114.94" width="6" height="6" transform="translate(-83.24 34.93) rotate(-45)"/><rect class="a" x="3.2" y="120.6" width="6" height="6" transform="translate(-85.58 40.59) rotate(-45)"/><rect class="a" x="-2.45" y="126.25" width="6" height="6" transform="translate(-91.24 38.24) rotate(-45)"/><rect class="b" x="-2.45" y="103.63" width="6" height="6" transform="translate(-75.24 31.62) rotate(-45)"/><rect class="c" x="3.2" y="109.28" width="6" height="6" transform="translate(-77.58 37.27) rotate(-45)"/><rect class="b" x="3.2" y="97.97" width="6" height="6" transform="translate(-69.58 33.96) rotate(-45)"/><rect class="b" x="8.86" y="92.31" width="6" height="6" transform="translate(-63.92 36.3) rotate(-45)"/><rect class="a" x="7.45" y="124.84" width="6" height="6" transform="translate(-87.34 44.83) rotate(-45)"/><rect class="a" x="11.69" y="129.08" width="6" height="6" transform="translate(-89.09 49.07) rotate(-45)"/><rect class="a" x="15.93" y="133.33" width="6" height="6" transform="translate(-90.85 53.32) rotate(-45)"/><rect class="a" x="-2.45" y="151.71" width="6" height="6" transform="translate(-109.24 45.7) rotate(-45)"/><rect class="a" x="-2.45" y="138.98" width="6" height="6" transform="translate(-100.24 41.97) rotate(-45)"/><rect class="d" x="24.42" y="141.81" width="6" height="6" transform="translate(-94.37 61.8) rotate(-45)"/><rect class="d" x="30.07" y="147.47" width="6" height="6" transform="translate(-96.71 67.46) rotate(-45)"/><rect class="d" x="35.73" y="153.12" width="6" height="6" transform="translate(-99.05 73.11) rotate(-45)"/><rect class="d" x="41.39" y="158.78" width="6" height="6" transform="translate(-101.4 78.77) rotate(-45)"/><rect class="b" x="14.52" y="86.66" width="6" height="6" transform="translate(-58.27 38.65) rotate(-45)"/><rect class="b" x="20.17" y="81" width="6" height="6" transform="translate(-52.61 40.99) rotate(-45)"/><rect class="b" x="25.83" y="75.34" width="6" height="6" transform="translate(-46.95 43.33) rotate(-45)"/><rect class="b" x="31.49" y="69.69" width="6" height="6" transform="translate(-41.3 45.68) rotate(-45)"/><rect class="a" x="18.76" y="136.15" width="6" height="6" transform="translate(-92.02 56.14) rotate(-45)"/><rect class="a" x="43.51" y="115.65" width="6" height="6" transform="translate(-70.28 67.64) rotate(-45)"/><rect class="a" x="56.24" y="115.65" width="6" height="6" transform="translate(-66.55 76.64) rotate(-45)"/><rect class="a" x="68.96" y="115.65" width="6" height="6" transform="translate(-62.82 85.64) rotate(-45)"/><rect class="a" x="116.34" y="114.94" width="6" height="6" transform="translate(-48.44 118.93) rotate(-45)"/><rect class="a" x="122" y="120.6" width="6" height="6" transform="translate(-50.79 124.59) rotate(-45)"/><rect class="a" x="116.34" y="126.25" width="6" height="6" transform="translate(-56.44 122.24) rotate(-45)"/><rect class="a" x="110.68" y="120.6" width="6" height="6" transform="translate(-54.1 116.59) rotate(-45)"/><rect class="a" x="110.68" y="109.28" width="6" height="6" transform="translate(-46.1 113.27) rotate(-45)"/><rect class="b" x="116.34" y="103.63" width="6" height="6" transform="translate(-40.44 115.62) rotate(-45)"/><rect class="c" x="122" y="109.28" width="6" height="6" transform="translate(-42.79 121.27) rotate(-45)"/><rect class="b" x="122" y="97.97" width="6" height="6" transform="translate(-34.79 117.96) rotate(-45)"/><rect class="b" x="127.65" y="92.31" width="6" height="6" transform="translate(-29.13 120.3) rotate(-45)"/><rect class="a" x="126.24" y="124.84" width="6" height="6" transform="translate(-52.54 128.83) rotate(-45)"/><rect class="a" x="130.48" y="129.08" width="6" height="6" transform="translate(-54.3 133.07) rotate(-45)"/><rect class="a" x="134.72" y="133.41" width="6" height="6" transform="translate(-56.12 137.34) rotate(-45)"/><rect class="a" x="116.34" y="151.71" width="6" height="6" transform="translate(-74.44 129.7) rotate(-45)"/><rect class="a" x="116.34" y="138.98" width="6" height="6" transform="translate(-65.44 125.97) rotate(-45)"/><rect class="a" x="106.44" y="124.84" width="6" height="6" transform="translate(-58.34 114.83) rotate(-45)"/><rect class="a" x="102.2" y="129.08" width="6" height="6" transform="translate(-62.59 113.07) rotate(-45)"/><rect class="a" x="97.96" y="133.33" width="6" height="6" transform="translate(-66.83 111.32) rotate(-45)"/><rect class="a" x="93.71" y="137.57" width="6" height="6" transform="translate(-71.07 109.56) rotate(-45)"/><rect class="a" x="89.47" y="141.81" width="6" height="6" transform="translate(-75.31 107.8) rotate(-45)"/><rect class="a" x="85.23" y="146.05" width="6" height="6" transform="translate(-79.56 106.04) rotate(-45)"/><rect class="a" x="80.98" y="150.3" width="6" height="6" transform="translate(-83.8 104.29) rotate(-45)"/><rect class="c" x="88.11" y="157.31" width="6" height="6" transform="translate(-86.67 111.38) rotate(-45)"/><rect class="c" x="81.75" y="163.67" width="6" height="6" transform="translate(-93.03 108.75) rotate(-45)"/><rect class="c" x="75.33" y="170.1" width="6" height="6" transform="translate(-99.46 106.08) rotate(-45)"/><rect class="a" x="76.74" y="154.54" width="6" height="6" transform="translate(-88.04 102.53) rotate(-45)"/><rect class="a" x="72.5" y="158.78" width="6" height="6" transform="translate(-92.28 100.77) rotate(-45)"/><rect class="a" x="43.51" y="115.65" width="6" height="6" transform="translate(-70.28 67.64) rotate(-45)"/><rect class="a" x="56.24" y="115.65" width="6" height="6" transform="translate(-66.55 76.64) rotate(-45)"/><rect class="a" x="106.44" y="105.04" width="6" height="6" transform="translate(-44.34 109.03) rotate(-45)"/><rect class="a" x="102.2" y="100.8" width="6" height="6" transform="translate(-42.59 104.79) rotate(-45)"/><rect class="a" x="97.96" y="96.56" width="6" height="6" transform="translate(-40.83 100.55) rotate(-45)"/><rect class="a" x="68.96" y="115.65" width="6" height="6" transform="translate(-62.82 85.64) rotate(-45)"/><rect class="a" x="93.71" y="92.31" width="6" height="6" transform="translate(-39.07 96.3) rotate(-45)"/><rect class="a" x="89.47" y="88.07" width="6" height="6" transform="translate(-37.31 92.06) rotate(-45)"/><rect class="a" x="85.23" y="83.83" width="6" height="6" transform="translate(-35.56 87.82) rotate(-45)"/><rect class="a" x="80.98" y="79.59" width="6" height="6" transform="translate(-33.8 83.57) rotate(-45)"/><rect class="d" x="143.21" y="141.9" width="6" height="6" transform="translate(-59.64 145.83) rotate(-45)"/><rect class="d" x="148.87" y="147.56" width="6" height="6" transform="translate(-61.98 151.48) rotate(-45)"/><rect class="d" x="154.52" y="153.21" width="6" height="6" transform="translate(-64.32 157.14) rotate(-45)"/><rect class="d" x="160.18" y="158.87" width="6" height="6" transform="translate(-66.66 162.8) rotate(-45)"/><rect class="b" x="133.31" y="86.66" width="6" height="6" transform="translate(-23.47 122.65) rotate(-45)"/><rect class="b" x="138.97" y="81.09" width="6" height="6" transform="translate(-17.88 125.02) rotate(-45)"/><rect class="b" x="144.62" y="75.43" width="6" height="6" transform="translate(-12.22 127.36) rotate(-45)"/><rect class="b" x="150.28" y="69.77" width="6" height="6" transform="translate(-6.56 129.7) rotate(-45)"/><rect class="a" x="75.33" y="73.93" width="6" height="6" transform="translate(-31.46 77.92) rotate(-45)"/><rect class="a" x="68.26" y="163.02" width="6" height="6" transform="translate(-96.53 99.01) rotate(-45)"/><rect class="a" x="137.55" y="136.24" width="6" height="6" transform="translate(-57.29 140.17) rotate(-45)"/><rect class="a" x="162.3" y="115.74" width="6" height="6" transform="translate(-35.54 151.66) rotate(-45)"/><rect class="a" x="175.03" y="115.74" width="6" height="6" transform="translate(-31.82 160.66) rotate(-45)"/><rect class="a" x="187.76" y="115.74" width="6" height="6" transform="translate(-28.09 169.66) rotate(-45)"/></svg>