<svg xmlns="http://www.w3.org/2000/svg" viewBox="0 0 1.29 84.94"><defs><style>.a{fill:#009b72;}.b{fill:#231f20;}</style></defs><title>horizontal</title><path class="a" d="M2.75,59.08c2.7.2,6.3.5,11.65.69s121.18,5.85,148.1,6.66S258,68.91,258,68.91v1.32s-68.57-1.68-95.49-2.48S19.75,61.27,14.4,61.09s-9.75-.54-11.65-.69H-.17c-1.89.15-6.29.5-11.64.69S-133,66.94-159.91,67.75s-95.49,2.48-95.49,2.48V68.91s68.57-1.68,95.49-2.48S-17.16,60-11.81,59.77s9-.49,11.64-.69Z"/><path class="b" d="M2.76,59c10.62.67,21.25,1.08,31.89,1.54L66.55,62l63.79,2.74,31.9,1.37,31.92.77c21.28.48,42.56,1.14,63.84,1.7a.39.39,0,0,1,.37.38v1.32a.38.38,0,0,1-.38.38h0l-63.84-1.75L162.22,68l-31.89-1.48-63.8-2.86-31.89-1.4C24,61.76,13.37,61.35,2.73,60.67H-.14c-10.64.7-21.27,1.15-31.9,1.65l-31.9,1.49-63.79,2.94-31.9,1.44-31.92.84-63.84,1.68a.48.48,0,0,1-.5-.47V68.91a.49.49,0,0,1,.48-.48l63.83-1.65,31.92-.76,31.9-1.36L-64,61.93l31.9-1.37C-21.43,60.1-10.79,59.7-.17,59H2.76Zm0,.1H-.16c-10.63.71-21.26,1.15-31.89,1.66l-31.9,1.49-63.79,3-31.89,1.51-31.92.91-63.84,1.68.48-.49v1.32l-.5-.48,63.83-1.65,31.92-.83,31.9-1.43L-64,63.05l31.89-1.38c10.64-.46,21.28-.87,31.88-1.54h3c10.6.7,21.24,1.14,31.87,1.64l31.9,1.47,63.79,2.87,31.9,1.38,31.92.79L258,69.85l-.39.38V68.91l.38.38c-21.28-.54-42.56-1-63.84-1.62l-31.92-.9-31.89-1.5-63.8-3L34.64,60.79C24,60.29,13.37,59.84,2.75,59.13Z"/></svg>