<svg xmlns="http://www.w3.org/2000/svg" viewBox="0 0 217.67 229.8"><defs><style>.a,.b,.c{fill:none;stroke:#2a2d34;stroke-miterlimit:10;}.a{stroke-width:4px;}.b{stroke-width:9px;}.c{stroke-width:3px;}</style></defs><title>right-upright</title><line class="a" x1="-0.33" y1="169.25" x2="29.67" y2="172.25"/><line class="a" x1="199.67" y1="187.25" x2="29.67" y2="172.25"/><line class="a" x1="216.67" y1="190.25" x2="199.67" y2="187.25"/><line class="b" x1="29.67" y1="172.25" x2="29.67" y2="19.25"/><path class="a" d="M199.37,187.09c-48-6.67-169.19-113.51-169-168.17"/><line class="b" x1="29.67" y1="-0.75" x2="29.67" y2="19.25"/><line class="b" x1="29.17" y1="171.75" x2="29.17" y2="229.75"/><line class="c" x1="171.33" y1="176.75" x2="171.33" y2="184.75"/><line class="c" x1="143" y1="158.75" x2="143" y2="181.75"/><line class="c" x1="114.67" y1="136.75" x2="114.67" y2="179.75"/><line class="c" x1="86.33" y1="110.75" x2="86.33" y2="177.75"/><line class="c" x1="58" y1="78.75" x2="58" y2="174.75"/><path class="a" d="M-196.27,169.29c69.17-5.93,127.64-5.91,196.91-.06"/></svg>