<svg xmlns="http://www.w3.org/2000/svg" xmlns:xlink="http://www.w3.org/1999/xlink" viewBox="0 0 216.79 150.15"><defs><style>.a{fill:none;}.b{clip-path:url(#a);}.c{fill:#fff;}.c,.e{stroke:#1e4057;stroke-miterlimit:10;}.d{clip-path:url(#b);}.e{fill:#1e4057;stroke-width:2px;}</style><clipPath id="a"><rect class="a" y="84.4" width="216.79" height="65.75"/></clipPath><clipPath id="b"><rect class="a" width="216.79" height="84.4"/></clipPath></defs><title>Artboard 1</title><g class="b"><path class="c" d="M40.24,2.27,41.92,2l.49.15.36.31.89.68.37.21.8.15.83.36.8.48.67.5.46.57.43.71.34.78.25,1.37.35.4.42.33.36.45.13.57.19,1.58.45,1.23v.64l-.14.71V15L51,16l.09.34v.39l-.12.68v.39L51,19.15l.15.79.25.58.45.49.61.49.64.37,2,.41,1-.28h.38l.85.44,1.35.35.76.43,2.23.07,2.11.78.5-.12.47-.28,2-.53,4.72-1.62,1.06-.61,1.81-1.41,1.11-.56.74-.11,2,.4,3.87-.62,7.83.78,1.25.42.52.42.26.52.22.62.33.73.47.32.59-.06,2.33-1h.72l.29.08h1.29l.39.17,1.11.12,1.12-.29h.35l.15-.06,1.15-.87.21-.07,1.87-.35,1.22-.47.11-.27.18-.2.69-.43.29,0,4,.71h.3l.63-.28h.24l1.35.21h.29l.61-.22,1-.58.26-.08h.41l.78.16h.4l.74-.3.68-.48.79-.75.49-.29,1.22-.2L125.05,15l7.13-1.22,1.1-.83.73-.9.42-.22.69-.1,1.82.07,1.33-.25,2.3-.43,6.5-.18,1.27-.56,1.08-1.21h1.44l3.33-.2h3.37L161,8.94l3.35-.08,3.42-.08,3.38-.09,3.38-.06,3.37-.09,3.38-.08,3.37-.08L188,8.29l3.38-.11,3.37-.09L198,8l3.38-.11L205,7.77l.06.15L205.28,9l.85,1.92,1.63,1.46.24.53.3.43,1.9.33.26.22.57.58,1.55.83,1.1.18.39.31.34.37.37.67.53,1.4,1,1.67.21.7.06.75-.18.66-.36.56-.74.85-.15.24-.43,1.2-.11.73-.07.34-1.21,1.56L213,28.67l-.87,1-.32.63-.08.75V32.5l-.25.59-.32.61-.39,2.15-.51,1.38-2.68,4.13-.2.39-.07.37.07.4.13.27.14.16v.84l-.24,1.63-.2.67-.56,1.25-1.35,2.27-.35.45-.5.42-1.58,1.06-.47.58-.26.52-.67,1.82-.64,1.24-.27.76-.18,1.37-.26.68-.35.62-.33.41-.31.16-.29.08-.24.18-.08.45-.1.21-.26.21-.15.25.28.93-.18.64-.28.71-.06.83.13.39.38.72.11.45v.36l-.11.46V67l.2.64.44.46,1.07.68.25-.29.21-.31.25-.27.35-.15.34.07.22.29.17.32.21.26.58.16.44-.14.48-.23.61-.11.32.1.11.31v.41l.07.37.18.43.14.16.6.3.47.32.53.48.14.33-.09.26-.18.2-.1.21v.83l-.09.4-.21.37-.3.14h-.36l-.37.07-.27.33V75l.76,1.17.22.75v.39l-.08.29-.11.27-.12.4-.14,1.45-.3,1.15-.06.83-.29.82-.29.47-.57.46-.41.6.23.8v.27h0l.11.44.1,3.18v1.58l.11,3.64.13,3.63.11,3.67.11,3.64.13,3.63.11,3.64.14,3.66.11,3.64.11,3.64.14,3.66.11,3.67.11,3.64.14,3.66.11,3.67.11,3.64.14,3.66-5.13.17-5.12.14-5.11.14-5.12.14-5.11.11-5.13.11-5.11.11-5.12.11-5.12.09-5.13.06-5.09.08-5.13.06-5.1.05-5.13.06H102.28l-7.18-.05H87.91L80.73,150l-7.18-.08-7.18-.11-7.19-.11L52,149.57l-7.18-.13-7.21-.16-7.2-.18-7.18-.22-7.17-.22-7.18-.22H8l-.36-.78L6,146.46l-1.19-1.53-.37-.23-.17-.35-.52-3.78-.31-.79L3,139.43l.08-.37L3,138.28,2.75,137l-.12-.09-.27-.25-.19-.27.28-.25.14-.27.22-.56.08-.42V133.1l-.19-1v-.41l.12-.51.66-1.32.13-.46.27-1.2-.29-1.69V125.4l-.11-.61-.28-.33-.41-.25-.36-.32-.32-.57-.37-1.08-.25-.47-.38.32-.25-.44-.4-2-.16-.43L0,118.86l-.44-.3.53-.4L1.56,115l1-2.09.34-.53.39-.48.33-.56.16-.74.06-.72.23-1.55,1.21-4.76.1-1.52v-.51l.06-.26.2-.39.26-.35.52-.29.15-.25h.3l.06,1.93.41.42h.19V101l-.13-.41h.31l.18-.06.11-.15.17-.28-.34-.37.32-.8.66-.84.65-.34.38.12.06.32v.44l.19.59.33.32.54.26.54.09.41-.13L11,98.46l-.19-.86-.22-.21-.18-.21L10.32,97l0-.31L10.7,96l-.89.52-1,1-.89,1.07-.63,1-.19-.27.47-.94,1.85-4.72.06-.39.3-.74L10,90.82l.21-.5.32-.47.68-.59.31-.39.21-.5.16-.47.22-.31.39-.1v.6l.21.09H14V88l-.34-.35L13,87.22l-.65-.29-.52.15-.27.6-.28.85L11,89l-.24-.58v-.77l.52-1.46L12,81.92l.3-1.47.08-.59,0-1.46.08-.29.35-.2.15-.36v-.18l-.27-1-.06-.45v-.53l.23-1.11.51-3V69l.22-1.3v-.22l-.08-.29V67l.07-.2.25-.29.08-.18.57-2.07.09-.7.2-.53h.5l1,.45L16,62.55l-.45-.07-.49.15-.51-.3-.14-.63v-.85l.9-4.51h.3l.56.36.52.18.09-.56-.19-.45h-.26l-.3.16-.32,0-.24-.39V54.9l-.17-.46L15.27,54l.22-1.6v-.71l0-.68V48.86l.2-.56.35-.61.34-.69.07-.64v-.28l.22-.15.17-.25.05-.59-.07-.21-.11-.17.26-.81.13-1.06.22-1.6L17,40.85v-.34l.29-.63.54-.78.23-.84.19-.86V35.21l.14-1.31.09-.1h.1l.14-.11.08-.18v-2l-.24-.26L18.1,31h-.36v-.25l.54-.16.22-.42.11-.6.08-.45.09-.37.09-.24.1-.21.09.06,0,.15-.18,1.07.45-.36.36-.56.36-.42-.92-.56L18.66,27l.08-1.49.33-.74.15-1.12.16-.3v1.09l.15.93.36.45.43.11.47.32.17-.11.16-.33.46-.3v-.27L21,25.13l-.33-.43v-.65l.13-.76-.76.17-.59-.52-.26-.25.05-.45.28-1.12.2-.83.58-.55.21-.34.26-.22.31-.11.29-.19.25-.4-.18.06h-.11l-.13.05-.14.11-.38-.26-.31.09-.24.34-.18.22-.18.36.07-1.08-.21-1-.48-.79-.62-.38.65-1.2.2-.69.15-2-.07-.83-.23-.78-.54-.7.23-.37.25-.13.28-.13.66-.59.12-.21.16-.44.2-.7V5.81L20.47,5l-.3-1.3L19,.89,18.87.12l.5-.12-.09.13V.25L19.19.5l.67.09.72.41.65.56.45.52.47.3L23,2.32l.33.18.18.54V4l.36.43V4L24,3.58l.2-.26.34-.09V3l-.23-.23-.5-.64L23.49,2h-.28L23,1.91l-.23-.18-.21-.23L23,1.33h1L24.43,1l.38-.15.3.27.49.73.42.22h.41l2.36-.39.4-.18-.37-.37L28.59,1,29,.88h.83l.44-.11.71-.46.38-.15.58,0,.32.11L32.5.5l1.31,1.91L34,2.7l.43.36,2.75.55h1.54L39,3.44l.76-.91.43-.3Z"/></g><g class="d"><path class="e" d="M40.64,2.27,42.32,2l.49.15.36.31.89.68.37.21.79.15.83.36.8.48.67.5.46.57.43.71.34.78L49,8.27l.35.4.42.33.36.45.13.57.19,1.58.45,1.23v.64l-.14.71V15l.59,1,.09.34v.39l-.12.68v.39l.09,1.35.15.79.25.58.45.49.61.49.64.37,2,.41,1-.28h.38l.85.44,1.35.35.76.43,2.23.07,2.11.78.5-.12.47-.28,2-.53,4.72-1.62,1.06-.61,1.81-1.41,1.1-.56.74-.11,2,.4,3.87-.62,7.82.78,1.25.42.52.42.26.52.22.62.33.73.47.32.59-.06,2.33-1h.71l.29.08h1.29l.39.17,1.11.12,1.12-.29h.35l.15-.06,1.15-.87.21-.07,1.87-.35,1.22-.47.11-.27.18-.2.68-.43.29,0,4,.71h.3l.63-.28h.24l1.35.21h.29l.61-.22,1-.58.26-.08h.41l.77.16h.4l.74-.3.68-.48.79-.75.49-.29,1.22-.2L125.37,15l7.12-1.22,1.1-.83.73-.9.42-.22.69-.1,1.82.07,1.32-.25,2.3-.43,6.5-.18,1.26-.56,1.08-1.21h1.44l3.33-.2h3.37l3.38-.06,3.35-.08L168,8.78l3.37-.09,3.38-.06,3.37-.09,3.37-.08,3.37-.08,3.37-.09,3.37-.11L195,8.09,198.29,8l3.37-.11,3.56-.12.06.15L205.52,9l.85,1.92L208,12.38l.24.53.3.43,1.89.33.26.22.57.58,1.55.83,1.1.18.39.31.34.37.37.67.53,1.4,1,1.67.21.7.06.75-.18.66-.36.56-.74.85-.15.24-.43,1.2-.11.73-.07.34-1.21,1.56-.35,1.18-.87,1-.32.63-.08.75V32.5l-.25.59-.32.61L211,35.85l-.51,1.38-2.67,4.13-.2.39-.07.37.07.4.13.27.14.16v.84l-.24,1.63-.2.67-.56,1.25-1.35,2.27-.35.45-.5.42-1.58,1.06-.47.58-.26.52-.67,1.82-.64,1.24-.27.76-.18,1.37-.26.68-.35.62-.33.41-.3.16-.29.08-.24.18-.08.45-.1.21-.26.21-.15.25.28.93-.18.64-.28.71-.06.83.13.39.38.72.11.45v.36l-.11.46V67l.2.64.44.46,1.06.68.25-.29.21-.31.25-.27.35-.15.34.07.22.29.17.32.21.26.58.16.44-.14.48-.23.61-.11.32.1.11.31v.41l.07.37L205,70l.14.16.6.3.47.32.53.48.14.33-.09.26-.18.2-.1.21v.83l-.09.4-.21.37-.3.14h-.36l-.37.07-.27.33V75l.76,1.17.22.75v.39l-.08.29-.11.27-.12.4-.14,1.45-.3,1.15-.06.83-.29.82-.29.47-.57.46-.41.6.23.8v.27h0l.11.44.1,3.18v1.58l.11,3.64.13,3.63.11,3.67.11,3.64.13,3.63.11,3.64.14,3.66.11,3.64.11,3.64.14,3.66.11,3.67.11,3.64.14,3.66.11,3.67.11,3.64.14,3.66-5.13.17-5.11.14-5.11.14-5.11.14-5.11.11-5.12.11-5.11.11-5.11.11-5.12.09-5.12.06-5.09.08-5.12.06-5.1.05-5.12.06H102.62l-7.17-.05H88.26L81.09,150l-7.17-.08-7.18-.11-7.18-.11-7.18-.13-7.18-.13-7.2-.16-7.19-.18-7.17-.22-7.17-.22-7.17-.22H8.39L8,147.66l-1.59-1.2-1.19-1.53-.37-.23-.17-.35-.52-3.78-.31-.79-.48-.35.07-.37-.06-.78L3.19,137l-.12-.09-.27-.25-.19-.27.28-.25.14-.27.22-.56.08-.42V133.1l-.19-1v-.41l.12-.51.65-1.32L4,129.4l.27-1.2L4,126.51V125.4l-.11-.61-.28-.33-.4-.25-.36-.32-.32-.57-.37-1.08-.25-.47-.38.32-.25-.44-.4-2-.16-.43-.28-.36-.44-.3.53-.4L2,115l1-2.09.34-.53.38-.48.33-.56.16-.74.06-.72.23-1.55,1.21-4.76.1-1.52v-.51l.06-.26.2-.39.26-.35.52-.29L7,100h.3l.06,1.93.41.42H8V101l-.13-.41h.31l.18-.06.11-.15.17-.28-.34-.37.32-.8.66-.84.65-.34.38.12.06.32v.44l.19.59.33.32.54.26.54.09.41-.13-.93-1.33-.19-.86L11,97.39l-.18-.21L10.75,97l.05-.31.33-.74-.89.52-1,1-.89,1.07-.63,1-.19-.27L8,98.33l1.85-4.72.06-.39.3-.74.26-1.66.21-.5.32-.47.68-.59.31-.39.21-.5.16-.47.22-.31.39-.1v.6l.21.09h1.21V88l-.34-.35-.6-.43-.65-.29-.52.15-.27.6-.28.85-.27.43-.24-.58v-.77l.52-1.46.71-4.23.3-1.47.08-.59.05-1.46.08-.29.35-.2.15-.36v-.18l-.27-1-.06-.45v-.53l.23-1.11.5-3V69l.22-1.3v-.22L14,67.19V67l.07-.2.25-.29.08-.18L15,64.26l.09-.7.2-.53h.5l1,.45-.31-.93L16,62.48l-.49.15-.51-.3-.14-.63v-.85l.9-4.51h.3l.56.36.52.18.09-.56L17,55.87h-.26l-.3.16-.32,0-.24-.39V54.9l-.17-.46L15.69,54l.22-1.6v-.71l0-.68V48.86l.2-.56.35-.61.34-.69.07-.64v-.28l.22-.15.17-.25.05-.59-.07-.21-.11-.17.26-.81.13-1.06.22-1.6-.26-.39v-.34l.29-.63.54-.78.23-.84.19-.86V35.21l.14-1.31.09-.1H19l.14-.11.08-.18v-2L19,31.23,18.52,31h-.36v-.25l.54-.16.22-.42.11-.6.08-.45.09-.37.09-.24.1-.21.09.06-.05.15-.18,1.07.45-.36.36-.56.36-.42-.92-.56L19.08,27l.08-1.49.33-.74.15-1.12.16-.3v1.09l.15.93.36.45.43.11.47.32.17-.11.16-.33.46-.3v-.27l-.59-.11-.33-.43v-.65l.13-.76-.76.17-.59-.52-.26-.25,0-.45.28-1.12.2-.83.58-.55.21-.34.26-.22.31-.11.29-.19.25-.4-.18.06h-.11l-.13.05-.14.11-.38-.26-.31.09-.24.34-.18.22-.18.36.07-1.08-.21-1-.48-.79-.62-.38.65-1.2.2-.69.15-2-.07-.83-.23-.78L19.1,10l.23-.37.25-.13.28-.13.66-.59.12-.21.16-.44.2-.7V5.81L20.89,5l-.3-1.3L19.41.89,19.29.12l.5-.12L19.7.13V.25L19.61.5l.67.09L21,1l.65.56.45.52.47.3.89-.06.33.18L24,3V4l.35.43V4l.06-.39.2-.26.34-.09V3l-.23-.23-.5-.64L23.91,2h-.28l-.26-.09-.23-.18-.21-.23.49-.17h1L24.84,1l.38-.15.3.27.49.73.42.22h.41l2.36-.39.4-.18-.37-.37L29,1l.36-.12h.83l.44-.11.71-.46.38-.15.58,0,.32.11.29.25,1.31,1.91.16.29.42.36,2.75.55h1.54l.35-.17.76-.91.43-.3Z"/></g></svg>